{
.appVersion = "85";
DisplayStrings = (
"/las-georgian"
);
classes = (
{
automatic = 1;

glyphs = (
{
glyphname = A;
lastChange = "2017-12-28 15:37:02 +0000";
layers = (
{
layerId = "049F51DC-9351-481A-A5F1-2729E00BCCBB";
paths = (
{
closed = 1;
nodes = (
"475 655 LINE SMOOTH",
"466.333 673 OFFCURVE",
"453.333 686.833 OFFCURVE",
"436 696.5 CURVE SMOOTH",
"418.667 706.167 OFFCURVE",
"400 711 OFFCURVE",
"380 711 CURVE SMOOTH",
"359.333 711 OFFCURVE",
"340.5 706.167 OFFCURVE",
"323.5 696.5 CURVE SMOOTH",
"306.5 686.833 OFFCURVE",
"293.667 673 OFFCURVE",
"285 655 CURVE SMOOTH",
"21 113 LINE SMOOTH",
"15 100.333 OFFCURVE",
"12 88 OFFCURVE",
"12 76 CURVE SMOOTH",
"12 54 OFFCURVE",
"21.167 35.333 OFFCURVE",
"39.5 20 CURVE SMOOTH",
"57.833 4.667 OFFCURVE",
"78.333 -3 OFFCURVE",
"101 -3 CURVE SMOOTH",
"116.333 -3 OFFCURVE",
"130.5 1 OFFCURVE",
"143.5 9 CURVE SMOOTH",
"156.5 17 OFFCURVE",
"166.667 29 OFFCURVE",
"174 45 CURVE SMOOTH",
"220 146 LINE",
"544 146 LINE",
"589 45 LINE SMOOTH",
"596.333 29 OFFCURVE",
"606.333 17 OFFCURVE",
"619 9 CURVE SMOOTH",
"631.667 1 OFFCURVE",
"645.667 -3 OFFCURVE",
"661 -3 CURVE SMOOTH",
"683.667 -3 OFFCURVE",
"703.833 4.667 OFFCURVE",
"721.5 20 CURVE SMOOTH",
"739.167 35.333 OFFCURVE",
"748 54 OFFCURVE",
"748 76 CURVE SMOOTH",
"748 88 OFFCURVE",
"745 100.333 OFFCURVE",
"739 113 CURVE SMOOTH"
);
},
{
closed = 1;
nodes = (
"482 284 LINE",
"282 284 LINE",
"382 507 LINE"
);
}
);
width = 761;
}
);
leftKerningGroup = A;
rightKerningGroup = A;
unicode = 0041;
},
{
glyphname = Aogonek;
lastChange = "2017-12-28 15:37:02 +0000";
layers = (
{
layerId = "049F51DC-9351-481A-A5F1-2729E00BCCBB";
paths = (
{
closed = 1;
nodes = (
"735.333 -106.333 OFFCURVE",
"726.5 -108.333 OFFCURVE",
"719.5 -109 CURVE SMOOTH",
"712.5 -109.667 OFFCURVE",
"705.333 -110 OFFCURVE",
"698 -110 CURVE SMOOTH",
"684.667 -110 OFFCURVE",
"673.333 -105.667 OFFCURVE",
"664 -97 CURVE SMOOTH",
"654.667 -88.333 OFFCURVE",
"650 -76 OFFCURVE",
"650 -60 CURVE SMOOTH",
"650 -48.667 OFFCURVE",
"652.833 -38.667 OFFCURVE",
"658.5 -30 CURVE SMOOTH",
"664.167 -21.333 OFFCURVE",
"672.167 -13.667 OFFCURVE",
"682.5 -7 CURVE SMOOTH",
"692.833 -0.333 OFFCURVE",
"699.333 4 OFFCURVE",
"702 6 CURVE",
"715.333 12.667 OFFCURVE",
"726.333 22 OFFCURVE",
"735 34 CURVE SMOOTH",
"743.667 46 OFFCURVE",
"748 59.667 OFFCURVE",
"748 75 CURVE SMOOTH",
"748 86.333 OFFCURVE",
"745 99 OFFCURVE",
"739 113 CURVE",
"475 655 LINE SMOOTH",
"466.333 673 OFFCURVE",
"453.333 686.833 OFFCURVE",
"436 696.5 CURVE SMOOTH",
"418.667 706.167 OFFCURVE",
"400 711 OFFCURVE",
"380 711 CURVE SMOOTH",
"359.333 711 OFFCURVE",
"340.5 706.167 OFFCURVE",
"323.5 696.5 CURVE SMOOTH",
"306.5 686.833 OFFCURVE",
"293.667 673 OFFCURVE",
"285 655 CURVE SMOOTH",
"21 113 LINE SMOOTH",
"15 100.333 OFFCURVE",
"12 88 OFFCURVE",
"12 76 CURVE SMOOTH",
"12 54 OFFCURVE",
"21.167 35.333 OFFCURVE",
"39.5 20 CURVE SMOOTH",
"57.833 4.667 OFFCURVE",
"78.333 -3 OFFCURVE",
"101 -3 CURVE SMOOTH",
"116.333 -3 OFFCURVE",
"130.5 1 OFFCURVE",
"143.5 9 CURVE SMOOTH",
"156.5 17 OFFCURVE",
"166.667 29 OFFCURVE",
"174 45 CURVE SMOOTH",
"220 146 LINE",
"544 146 LINE",
"589 45 LINE SMOOTH",
"592.333 37.667 OFFCURVE",
"597 30.333 OFFCURVE",
"603 23 CURVE",
"582.333 9.667 OFFCURVE",
"566.667 -6.333 OFFCURVE",
"556 -25 CURVE SMOOTH",
"545.333 -43.667 OFFCURVE",
"540 -63.333 OFFCURVE",
"540 -84 CURVE SMOOTH",
"540 -117.333 OFFCURVE",
"552.5 -144.667 OFFCURVE",
"577.5 -166 CURVE SMOOTH",
"602.5 -187.333 OFFCURVE",
"633.667 -198 OFFCURVE",
"671 -198 CURVE SMOOTH",
"706.333 -198 OFFCURVE",
"737.667 -190 OFFCURVE",
"765 -174 CURVE SMOOTH",
"777 -166.667 OFFCURVE",
"783 -155 OFFCURVE",
"783 -139 CURVE SMOOTH",
"783 -129 OFFCURVE",
"780.333 -120.333 OFFCURVE",
"775 -113 CURVE SMOOTH",
"769.667 -105.667 OFFCURVE",
"762.667 -102 OFFCURVE",
"754 -102 CURVE SMOOTH",
"750.667 -102 OFFCURVE",
"748 -102.333 OFFCURVE",
"746 -103 CURVE SMOOTH"
);
},
{
closed = 1;
nodes = (
"482 284 LINE",
"282 284 LINE",
"382 507 LINE"
);
}
);
width = 761;
}
);
leftKerningGroup = A;
rightKerningGroup = A;
unicode = 0104;
},
{
glyphname = Aring;
lastChange = "2017-12-28 15:37:02 +0000";
layers = (
{
layerId = "049F51DC-9351-481A-A5F1-2729E00BCCBB";
paths = (
{
closed = 1;
nodes = (
"456 697 LINE",
"480.667 718.333 OFFCURVE",
"493 746 OFFCURVE",
"493 780 CURVE SMOOTH",
"493 810.667 OFFCURVE",
"482.167 836.667 OFFCURVE",
"460.5 858 CURVE SMOOTH",
"438.833 879.333 OFFCURVE",
"412.333 890 OFFCURVE",
"381 890 CURVE SMOOTH",
"349.667 890 OFFCURVE",
"323 879.333 OFFCURVE",
"301 858 CURVE SMOOTH",
"279 836.667 OFFCURVE",
"268 810.667 OFFCURVE",
"268 780 CURVE SMOOTH",
"268 746 OFFCURVE",
"280.333 718.333 OFFCURVE",
"305 697 CURVE",
"21 113 LINE SMOOTH",
"15 100.333 OFFCURVE",
"12 88 OFFCURVE",
"12 76 CURVE SMOOTH",
"12 53.333 OFFCURVE",
"21 34.333 OFFCURVE",
"39 19 CURVE SMOOTH",
"57 3.667 OFFCURVE",
"77.333 -4 OFFCURVE",
"100 -4 CURVE SMOOTH",
"116 -4 OFFCURVE",
"130.333 0 OFFCURVE",
"143 8 CURVE SMOOTH",
"155.667 16 OFFCURVE",
"166 28.333 OFFCURVE",
"174 45 CURVE SMOOTH",
"220 146 LINE",
"544 146 LINE",
"589 45 LINE SMOOTH",
"596.333 29 OFFCURVE",
"606.5 16.833 OFFCURVE",
"619.5 8.5 CURVE SMOOTH",
"632.5 0.167 OFFCURVE",
"646.333 -4 OFFCURVE",
"661 -4 CURVE SMOOTH",
"683.667 -4 OFFCURVE",
"703.833 3.667 OFFCURVE",
"721.5 19 CURVE SMOOTH",
"739.167 34.333 OFFCURVE",
"748 53 OFFCURVE",
"748 75 CURVE SMOOTH",
"748 87.667 OFFCURVE",
"745 100.333 OFFCURVE",
"739 113 CURVE SMOOTH"
);
},
{
closed = 1;
nodes = (
"393 823 OFFCURVE",
"402.833 818.833 OFFCURVE",
"410.5 810.5 CURVE SMOOTH",
"418.167 802.167 OFFCURVE",
"422 792 OFFCURVE",
"422 780 CURVE SMOOTH",
"422 767.333 OFFCURVE",
"418.167 756.833 OFFCURVE",
"410.5 748.5 CURVE SMOOTH",
"402.833 740.167 OFFCURVE",
"393 736 OFFCURVE",
"381 736 CURVE SMOOTH",
"369 736 OFFCURVE",
"359 740.167 OFFCURVE",
"351 748.5 CURVE SMOOTH",
"343 756.833 OFFCURVE",
"339 767.333 OFFCURVE",
"339 780 CURVE SMOOTH",
"339 792 OFFCURVE",
"343 802.167 OFFCURVE",
"351 810.5 CURVE SMOOTH",
"359 818.833 OFFCURVE",
"369 823 OFFCURVE",
"381 823 CURVE SMOOTH"
);
},
{
closed = 1;
nodes = (
"482 284 LINE",
"282 284 LINE",
"382 507 LINE"
);
}
);
width = 761;
}
);
leftKerningGroup = A;
rightKerningGroup = A;
unicode = 00C5;
},
{
glyphname = Aringacute;
lastChange = "2017-12-28 15:37:02 +0000";
layers = (
{
layerId = "049F51DC-9351-481A-A5F1-2729E00BCCBB";
paths = (
{
closed = 1;
nodes = (
"456 697 LINE",
"480.667 718.333 OFFCURVE",
"493 746 OFFCURVE",
"493 780 CURVE SMOOTH",
"493 790 OFFCURVE",
"491.333 800.667 OFFCURVE",
"488 812 CURVE",
"571 830 LINE",
"589.667 835.333 OFFCURVE",
"603.667 843.5 OFFCURVE",
"613 854.5 CURVE SMOOTH",
"622.333 865.5 OFFCURVE",
"627 877.667 OFFCURVE",
"627 891 CURVE SMOOTH",
"627 907 OFFCURVE",
"621.167 921.167 OFFCURVE",
"609.5 933.5 CURVE SMOOTH",
"597.833 945.833 OFFCURVE",
"583.333 952 OFFCURVE",
"566 952 CURVE SMOOTH",
"549.333 952 OFFCURVE",
"533.333 946.667 OFFCURVE",
"518 936 CURVE",
"429 879 LINE",
"414.333 886.333 OFFCURVE",
"398.333 890 OFFCURVE",
"381 890 CURVE SMOOTH",
"349.667 890 OFFCURVE",
"323 879.333 OFFCURVE",
"301 858 CURVE SMOOTH",
"279 836.667 OFFCURVE",
"268 810.667 OFFCURVE",
"268 780 CURVE SMOOTH",
"268 746 OFFCURVE",
"280.333 718.333 OFFCURVE",
"305 697 CURVE",
"21 113 LINE SMOOTH",
"15 100.333 OFFCURVE",
"12 88 OFFCURVE",
"12 76 CURVE SMOOTH",
"12 53.333 OFFCURVE",
"21 34.333 OFFCURVE",
"39 19 CURVE SMOOTH",
"57 3.667 OFFCURVE",
"77.333 -4 OFFCURVE",
"100 -4 CURVE SMOOTH",
"116 -4 OFFCURVE",
"130.333 0 OFFCURVE",
"143 8 CURVE SMOOTH",
"155.667 16 OFFCURVE",
"166 28.333 OFFCURVE",
"174 45 CURVE SMOOTH",
"220 146 LINE",
"544 146 LINE",
"589 45 LINE SMOOTH",
"596.333 29 OFFCURVE",
"606.5 16.833 OFFCURVE",
"619.5 8.5 CURVE SMOOTH",
"632.5 0.167 OFFCURVE",
"646.333 -4 OFFCURVE",
"661 -4 CURVE SMOOTH",
"683.667 -4 OFFCURVE",
"703.833 3.667 OFFCURVE",
"721.5 19 CURVE SMOOTH",
"739.167 34.333 OFFCURVE",
"748 53 OFFCURVE",
"748 75 CURVE SMOOTH",
"748 87.667 OFFCURVE",
"745 100.333 OFFCURVE",
"739 113 CURVE SMOOTH"
);
},
{
closed = 1;
nodes = (
"393 823 OFFCURVE",
"402.833 818.833 OFFCURVE",
"410.5 810.5 CURVE SMOOTH",
"418.167 802.167 OFFCURVE",
"422 792 OFFCURVE",
"422 780 CURVE SMOOTH",
"422 767.333 OFFCURVE",
"418.167 756.833 OFFCURVE",
"410.5 748.5 CURVE SMOOTH",
"402.833 740.167 OFFCURVE",
"393 736 OFFCURVE",
"381 736 CURVE SMOOTH",
"369 736 OFFCURVE",
"359 740.167 OFFCURVE",
"351 748.5 CURVE SMOOTH",
"343 756.833 OFFCURVE",
"339 767.333 OFFCURVE",
"339 780 CURVE SMOOTH",
"339 792 OFFCURVE",
"343 802.167 OFFCURVE",
"351 810.5 CURVE SMOOTH",
"359 818.833 OFFCURVE",
"369 823 OFFCURVE",
"381 823 CURVE SMOOTH"
);
},
{
closed = 1;
nodes = (
"482 284 LINE",
"282 284 LINE",
"382 507 LINE"
);
}
);
width = 761;
}
);
leftKerningGroup = A;
rightKerningGroup = A;
unicode = 01FA;
},
{
glyphname = AE;
lastChange = "2017-12-28 15:37:02 +0000";
layers = (
{
layerId = "049F51DC-9351-481A-A5F1-2729E00BCCBB";
paths = (
{
closed = 1;
nodes = (
"696 141 LINE",
"663 288 LINE",
"882 288 LINE SMOOTH",
"940 288 OFFCURVE",
"969 311.333 OFFCURVE",
"969 358 CURVE SMOOTH",
"969 405.333 OFFCURVE",
"940 429 OFFCURVE",
"882 429 CURVE SMOOTH",
"631 429 LINE",
"600 564 LINE",
"902 564 LINE SMOOTH",
"930 564 OFFCURVE",
"951.5 570 OFFCURVE",
"966.5 582 CURVE SMOOTH",
"981.5 594 OFFCURVE",
"989 611.667 OFFCURVE",
"989 635 CURVE SMOOTH",
"989 657.667 OFFCURVE",
"981.667 675 OFFCURVE",
"967 687 CURVE SMOOTH",
"952.333 699 OFFCURVE",
"930.667 705 OFFCURVE",
"902 705 CURVE SMOOTH",
"477 705 LINE SMOOTH",
"455.667 705 OFFCURVE",
"435.833 700.5 OFFCURVE",
"417.5 691.5 CURVE SMOOTH",
"399.167 682.5 OFFCURVE",
"384.667 670.333 OFFCURVE",
"374 655 CURVE SMOOTH",
"18 113 LINE SMOOTH",
"6.667 96.333 OFFCURVE",
"1 79.667 OFFCURVE",
"1 63 CURVE SMOOTH",
"1 43.667 OFFCURVE",
"9 27.5 OFFCURVE",
"25 14.5 CURVE SMOOTH",
"41 1.5 OFFCURVE",
"59.667 -5 OFFCURVE",
"81 -5 CURVE SMOOTH",
"97.667 -5 OFFCURVE",
"113.5 -0.833 OFFCURVE",
"128.5 7.5 CURVE SMOOTH",
"143.5 15.833 OFFCURVE",
"156.333 28.333 OFFCURVE",
"167 45 CURVE SMOOTH",
"230 146 LINE",
"527 146 LINE",
"549 48 LINE",
"553 33.333 OFFCURVE",
"562.167 21.667 OFFCURVE",
"576.5 13 CURVE SMOOTH",
"590.833 4.333 OFFCURVE",
"608.333 0 OFFCURVE",
"629 0 CURVE SMOOTH",
"902 0 LINE SMOOTH",
"930.667 0 OFFCURVE",
"952.333 6 OFFCURVE",
"967 18 CURVE SMOOTH",
"981.667 30 OFFCURVE",
"989 47.333 OFFCURVE",
"989 70 CURVE SMOOTH",
"989 117.333 OFFCURVE",
"960 141 OFFCURVE",
"902 141 CURVE SMOOTH"
);
},
{
closed = 1;
nodes = (
"496 284 LINE",
"317 284 LINE",
"449 496 LINE"
);
}
);
width = 1004;
}
);
leftKerningGroup = A;
rightKerningGroup = AE;
unicode = 00C6;
},
{
glyphname = B;
lastChange = "2017-12-28 15:37:02 +0000";
layers = (
{
layerId = "049F51DC-9351-481A-A5F1-2729E00BCCBB";
paths = (
{
closed = 1;
nodes = (
"571.667 378.667 OFFCURVE",
"598.667 398.833 OFFCURVE",
"618 426.5 CURVE SMOOTH",
"637.333 454.167 OFFCURVE",
"647 486 OFFCURVE",
"647 522 CURVE SMOOTH",
"647 578 OFFCURVE",
"625.167 622.5 OFFCURVE",
"581.5 655.5 CURVE SMOOTH",
"537.833 688.5 OFFCURVE",
"479 705 OFFCURVE",
"405 705 CURVE SMOOTH",
"149 705 LINE SMOOTH",
"121.667 705 OFFCURVE",
"100.667 697.667 OFFCURVE",
"86 683 CURVE SMOOTH",
"71.333 668.333 OFFCURVE",
"64 647.333 OFFCURVE",
"64 620 CURVE SMOOTH",
"64 85 LINE SMOOTH",
"64 57.667 OFFCURVE",
"71.333 36.667 OFFCURVE",
"86 22 CURVE SMOOTH",
"100.667 7.333 OFFCURVE",
"121.667 0 OFFCURVE",
"149 0 CURVE SMOOTH",
"415 0 LINE SMOOTH",
"465.667 0 OFFCURVE",
"509.833 8 OFFCURVE",
"547.5 24 CURVE SMOOTH",
"585.167 40 OFFCURVE",
"614.167 62.5 OFFCURVE",
"634.5 91.5 CURVE SMOOTH",
"654.833 120.5 OFFCURVE",
"665 154.333 OFFCURVE",
"665 193 CURVE SMOOTH",
"665 236.333 OFFCURVE",
"654 272.833 OFFCURVE",
"632 302.5 CURVE SMOOTH",
"610 332.167 OFFCURVE",
"578.333 353.333 OFFCURVE",
"537 366 CURVE"
);
},
{
closed = 1;
nodes = (
"374 566 LINE SMOOTH",
"408.667 566 OFFCURVE",
"434 560.333 OFFCURVE",
"450 549 CURVE SMOOTH",
"466 537.667 OFFCURVE",
"474 519.667 OFFCURVE",
"474 495 CURVE SMOOTH",
"474 471.667 OFFCURVE",
"466 454.667 OFFCURVE",
"450 444 CURVE SMOOTH",
"434 433.333 OFFCURVE",
"408.667 428 OFFCURVE",
"374 428 CURVE SMOOTH",
"243 428 LINE",
"243 566 LINE"
);
},
{
closed = 1;
nodes = (
"243 139 LINE",
"243 289 LINE",
"392 289 LINE SMOOTH",
"428.667 289 OFFCURVE",
"454.833 283.167 OFFCURVE",
"470.5 271.5 CURVE SMOOTH",
"486.167 259.833 OFFCURVE",
"494 240.667 OFFCURVE",
"494 214 CURVE SMOOTH",
"494 187.333 OFFCURVE",
"486.167 168.167 OFFCURVE",
"470.5 156.5 CURVE SMOOTH",
"454.833 144.833 OFFCURVE",
"428.667 139 OFFCURVE",
"392 139 CURVE SMOOTH"
);
}
);
width = 695;
}
);
rightKerningGroup = B;
unicode = 0042;
},
{
glyphname = Bhook;
lastChange = "2017-12-28 16:16:11 +0000";
layers = (
{
layerId = "049F51DC-9351-481A-A5F1-2729E00BCCBB";
paths = (
{
closed = 1;
nodes = (
"627 566 LINE",
"662 566 OFFCURVE",
"687 560 OFFCURVE",
"703 549 CURVE",
"719 538 OFFCURVE",
"727 520 OFFCURVE",
"727 495 CURVE",
"727 472 OFFCURVE",
"719 455 OFFCURVE",
"703 444 CURVE",
"687 433 OFFCURVE",
"662 428 OFFCURVE",
"627 428 CURVE",
"496 428 LINE",
"496 566 LINE"
);
},
{
closed = 1;
nodes = (
"496 139 LINE",
"496 289 LINE",
"645 289 LINE",
"682 289 OFFCURVE",
"708 283 OFFCURVE",
"724 272 CURVE",
"739 260 OFFCURVE",
"747 241 OFFCURVE",
"747 214 CURVE",
"747 187 OFFCURVE",
"739 168 OFFCURVE",
"724 157 CURVE",
"708 145 OFFCURVE",
"682 139 OFFCURVE",
"645 139 CURVE"
);
},
{
closed = 1;
nodes = (
"65 532 OFFCURVE",
"71 513 OFFCURVE",
"82 501 CURVE",
"93 490 OFFCURVE",
"111 484 OFFCURVE",
"135 484 CURVE SMOOTH",
"161 484 OFFCURVE",
"181 490 OFFCURVE",
"196 502 CURVE",
"211 515 OFFCURVE",
"220 535 OFFCURVE",
"223 564 CURVE SMOOTH",
"226 586 OFFCURVE",
"232 598 OFFCURVE",
"243 607 CURVE SMOOTH",
"254 616 OFFCURVE",
"274 620 OFFCURVE",
"301 620 CURVE SMOOTH",
"317 620 LINE",
"317 85 LINE SMOOTH",
"317 58 OFFCURVE",
"324 37 OFFCURVE",
"339 22 CURVE SMOOTH",
"354 7 OFFCURVE",
"375 0 OFFCURVE",
"402 0 CURVE SMOOTH",
"668 0 LINE SMOOTH",
"719 0 OFFCURVE",
"763 8 OFFCURVE",
"801 24 CURVE SMOOTH",
"838 40 OFFCURVE",
"867 63 OFFCURVE",
"888 92 CURVE SMOOTH",
"908 121 OFFCURVE",
"918 154 OFFCURVE",
"918 193 CURVE SMOOTH",
"918 236 OFFCURVE",
"907 273 OFFCURVE",
"885 303 CURVE SMOOTH",
"863 332 OFFCURVE",
"831 353 OFFCURVE",
"790 366 CURVE",
"825 379 OFFCURVE",
"852 399 OFFCURVE",
"871 427 CURVE SMOOTH",
"890 454 OFFCURVE",
"900 486 OFFCURVE",
"900 522 CURVE SMOOTH",
"900 578 OFFCURVE",
"878 623 OFFCURVE",
"835 656 CURVE SMOOTH",
"791 689 OFFCURVE",
"732 705 OFFCURVE",
"658 705 CURVE SMOOTH",
"235 705 OFFCURVE",
"214 705 OFFCURVE",
"194 704 CURVE",
"167 701 OFFCURVE",
"147 692 OFFCURVE",
"127 677 CURVE SMOOTH",
"108 662 OFFCURVE",
"92 644 OFFCURVE",
"81 623 CURVE SMOOTH",
"70 602 OFFCURVE",
"65 580 OFFCURVE",
"65 558 CURVE SMOOTH"
);
},
{
closed = 1;
nodes = (
"317 626 LINE",
"317 620 LINE"
);
}
);
width = 966;
}
);
unicode = 0181;
},
{
glyphname = C;
lastChange = "2017-12-28 15:37:02 +0000";
layers = (
{
layerId = "049F51DC-9351-481A-A5F1-2729E00BCCBB";
paths = (
{
closed = 1;
nodes = (
"482.667 -9 OFFCURVE",
"557 13.333 OFFCURVE",
"621 58 CURVE SMOOTH",
"632.333 66 OFFCURVE",
"640.5 74.833 OFFCURVE",
"645.5 84.5 CURVE SMOOTH",
"650.5 94.167 OFFCURVE",
"653 106 OFFCURVE",
"653 120 CURVE SMOOTH",
"653 140.667 OFFCURVE",
"647.167 158.167 OFFCURVE",
"635.5 172.5 CURVE SMOOTH",
"623.833 186.833 OFFCURVE",
"609.667 194 OFFCURVE",
"593 194 CURVE SMOOTH",
"583.667 194 OFFCURVE",
"575.667 192.667 OFFCURVE",
"569 190 CURVE SMOOTH",
"562.333 187.333 OFFCURVE",
"552 182.333 OFFCURVE",
"538 175 CURVE",
"508.667 161.667 OFFCURVE",
"484.667 151.833 OFFCURVE",
"466 145.5 CURVE SMOOTH",
"447.333 139.167 OFFCURVE",
"428 136 OFFCURVE",
"408 136 CURVE SMOOTH",
"348.667 136 OFFCURVE",
"304.5 153.833 OFFCURVE",
"275.5 189.5 CURVE SMOOTH",
"246.5 225.167 OFFCURVE",
"232 279.667 OFFCURVE",
"232 353 CURVE SMOOTH",
"232 425.667 OFFCURVE",
"246.5 479.833 OFFCURVE",
"275.5 515.5 CURVE SMOOTH",
"304.5 551.167 OFFCURVE",
"348.667 569 OFFCURVE",
"408 569 CURVE SMOOTH",
"430 569 OFFCURVE",
"451.333 566 OFFCURVE",
"472 560 CURVE SMOOTH",
"492.667 554 OFFCURVE",
"514.667 544 OFFCURVE",
"538 530 CURVE SMOOTH",
"548.667 523.333 OFFCURVE",
"558 518.5 OFFCURVE",
"566 515.5 CURVE SMOOTH",
"574 512.5 OFFCURVE",
"583 511 OFFCURVE",
"593 511 CURVE SMOOTH",
"609.667 511 OFFCURVE",
"623.833 518.167 OFFCURVE",
"635.5 532.5 CURVE SMOOTH",
"647.167 546.833 OFFCURVE",
"653 564.333 OFFCURVE",
"653 585 CURVE SMOOTH",
"653 599.667 OFFCURVE",
"650.5 611.667 OFFCURVE",
"645.5 621 CURVE SMOOTH",
"640.5 630.333 OFFCURVE",
"632.333 639 OFFCURVE",
"621 647 CURVE SMOOTH",
"557 691.667 OFFCURVE",
"482.667 714 OFFCURVE",
"398 714 CURVE SMOOTH",
"327.333 714 OFFCURVE",
"265.5 699.333 OFFCURVE",
"212.5 670 CURVE SMOOTH",
"159.5 640.667 OFFCURVE",
"118.5 598.667 OFFCURVE",
"89.5 544 CURVE SMOOTH",
"60.5 489.333 OFFCURVE",
"46 425.667 OFFCURVE",
"46 353 CURVE SMOOTH",
"46 279.667 OFFCURVE",
"60.5 215.667 OFFCURVE",
"89.5 161 CURVE SMOOTH",
"118.5 106.333 OFFCURVE",
"159.5 64.333 OFFCURVE",
"212.5 35 CURVE SMOOTH",
"265.5 5.667 OFFCURVE",
"327.333 -9 OFFCURVE",
"398 -9 CURVE SMOOTH"
);
}
);
width = 678;
}
);
leftKerningGroup = C;
rightKerningGroup = C;
unicode = 0043;
},
{
glyphname = Ccedilla;
lastChange = "2017-12-28 15:37:02 +0000";
layers = (
{
layerId = "049F51DC-9351-481A-A5F1-2729E00BCCBB";
paths = (
{
closed = 1;
nodes = (
"583.667 194 OFFCURVE",
"575.667 192.667 OFFCURVE",
"569 190 CURVE SMOOTH",
"562.333 187.333 OFFCURVE",
"552 182.333 OFFCURVE",
"538 175 CURVE",
"508.667 161.667 OFFCURVE",
"484.667 151.833 OFFCURVE",
"466 145.5 CURVE SMOOTH",
"447.333 139.167 OFFCURVE",
"428 136 OFFCURVE",
"408 136 CURVE SMOOTH",
"348.667 136 OFFCURVE",
"304.5 153.833 OFFCURVE",
"275.5 189.5 CURVE SMOOTH",
"246.5 225.167 OFFCURVE",
"232 279.667 OFFCURVE",
"232 353 CURVE SMOOTH",
"232 425.667 OFFCURVE",
"246.5 479.833 OFFCURVE",
"275.5 515.5 CURVE SMOOTH",
"304.5 551.167 OFFCURVE",
"348.667 569 OFFCURVE",
"408 569 CURVE SMOOTH",
"430 569 OFFCURVE",
"451.333 566 OFFCURVE",
"472 560 CURVE SMOOTH",
"492.667 554 OFFCURVE",
"514.667 544 OFFCURVE",
"538 530 CURVE SMOOTH",
"548.667 523.333 OFFCURVE",
"558 518.5 OFFCURVE",
"566 515.5 CURVE SMOOTH",
"574 512.5 OFFCURVE",
"583 511 OFFCURVE",
"593 511 CURVE SMOOTH",
"609.667 511 OFFCURVE",
"623.833 518.167 OFFCURVE",
"635.5 532.5 CURVE SMOOTH",
"647.167 546.833 OFFCURVE",
"653 564.333 OFFCURVE",
"653 585 CURVE SMOOTH",
"653 599.667 OFFCURVE",
"650.5 611.667 OFFCURVE",
"645.5 621 CURVE SMOOTH",
"640.5 630.333 OFFCURVE",
"632.333 639 OFFCURVE",
"621 647 CURVE SMOOTH",
"557 691.667 OFFCURVE",
"482.667 714 OFFCURVE",
"398 714 CURVE SMOOTH",
"327.333 714 OFFCURVE",
"265.5 699.333 OFFCURVE",
"212.5 670 CURVE SMOOTH",
"159.5 640.667 OFFCURVE",
"118.5 598.667 OFFCURVE",
"89.5 544 CURVE SMOOTH",
"60.5 489.333 OFFCURVE",
"46 425.667 OFFCURVE",
"46 353 CURVE SMOOTH",
"46 286.333 OFFCURVE",
"58 227.333 OFFCURVE",
"82 176 CURVE SMOOTH",
"106 124.667 OFFCURVE",
"140.167 83.333 OFFCURVE",
"184.5 52 CURVE SMOOTH",
"228.833 20.667 OFFCURVE",
"281.333 1.333 OFFCURVE",
"342 -6 CURVE",
"333 -76 LINE",
"331.667 -82.667 OFFCURVE",
"333 -87.833 OFFCURVE",
"337 -91.5 CURVE SMOOTH",
"341 -95.167 OFFCURVE",
"346.333 -97 OFFCURVE",
"353 -97 CURVE SMOOTH",
"357.667 -97 OFFCURVE",
"364.333 -96.167 OFFCURVE",
"373 -94.5 CURVE SMOOTH",
"381.667 -92.833 OFFCURVE",
"388.667 -92 OFFCURVE",
"394 -92 CURVE SMOOTH",
"408.667 -92 OFFCURVE",
"416 -97.667 OFFCURVE",
"416 -109 CURVE SMOOTH",
"416 -123.667 OFFCURVE",
"402 -131 OFFCURVE",
"374 -131 CURVE SMOOTH",
"363.333 -131 OFFCURVE",
"344.667 -128.333 OFFCURVE",
"318 -123 CURVE",
"309.333 -120.333 OFFCURVE",
"301.833 -122.833 OFFCURVE",
"295.5 -130.5 CURVE SMOOTH",
"289.167 -138.167 OFFCURVE",
"286 -147 OFFCURVE",
"286 -157 CURVE SMOOTH",
"286 -173.667 OFFCURVE",
"293.333 -184.333 OFFCURVE",
"308 -189 CURVE SMOOTH",
"326 -195 OFFCURVE",
"350 -198 OFFCURVE",
"380 -198 CURVE SMOOTH",
"425.333 -198 OFFCURVE",
"460.167 -189.833 OFFCURVE",
"484.5 -173.5 CURVE SMOOTH",
"508.833 -157.167 OFFCURVE",
"521 -135.667 OFFCURVE",
"521 -109 CURVE SMOOTH",
"521 -88.333 OFFCURVE",
"513.833 -71.667 OFFCURVE",
"499.5 -59 CURVE SMOOTH",
"485.167 -46.333 OFFCURVE",
"467.667 -40 OFFCURVE",
"447 -40 CURVE SMOOTH",
"438.333 -40 OFFCURVE",
"431.333 -40.333 OFFCURVE",
"426 -41 CURVE",
"432 -8 LINE",
"501.333 -3.333 OFFCURVE",
"564.333 18.667 OFFCURVE",
"621 58 CURVE SMOOTH",
"632.333 66 OFFCURVE",
"640.5 74.833 OFFCURVE",
"645.5 84.5 CURVE SMOOTH",
"650.5 94.167 OFFCURVE",
"653 106 OFFCURVE",
"653 120 CURVE SMOOTH",
"653 140.667 OFFCURVE",
"647.167 158.167 OFFCURVE",
"635.5 172.5 CURVE SMOOTH",
"623.833 186.833 OFFCURVE",
"609.667 194 OFFCURVE",
"593 194 CURVE SMOOTH"
);
}
);
width = 678;
}
);
leftKerningGroup = C;
rightKerningGroup = C;
unicode = 00C7;
},
{
glyphname = Ccedillaacute;
lastChange = "2017-12-28 15:37:02 +0000";
layers = (
{
layerId = "049F51DC-9351-481A-A5F1-2729E00BCCBB";
paths = (
{
closed = 1;
nodes = (
"524 806 LINE",
"554 820 OFFCURVE",
"569 839.667 OFFCURVE",
"569 865 CURVE SMOOTH",
"569 881.667 OFFCURVE",
"562.833 896.333 OFFCURVE",
"550.5 909 CURVE SMOOTH",
"538.167 921.667 OFFCURVE",
"523.333 928 OFFCURVE",
"506 928 CURVE SMOOTH",
"487.333 928 OFFCURVE",
"469.333 919.667 OFFCURVE",
"452 903 CURVE SMOOTH",
"371 827 LINE SMOOTH",
"361 817 OFFCURVE",
"356 807 OFFCURVE",
"356 797 CURVE SMOOTH",
"356 787 OFFCURVE",
"360 778.333 OFFCURVE",
"368 771 CURVE SMOOTH",
"376 763.667 OFFCURVE",
"385.667 760 OFFCURVE",
"397 760 CURVE SMOOTH",
"404.333 760 OFFCURVE",
"411 761.333 OFFCURVE",
"417 764 CURVE"
);
},
{
closed = 1;
nodes = (
"583.667 194 OFFCURVE",
"575.667 192.667 OFFCURVE",
"569 190 CURVE SMOOTH",
"562.333 187.333 OFFCURVE",
"552 182.333 OFFCURVE",
"538 175 CURVE",
"508.667 161.667 OFFCURVE",
"484.667 151.833 OFFCURVE",
"466 145.5 CURVE SMOOTH",
"447.333 139.167 OFFCURVE",
"428 136 OFFCURVE",
"408 136 CURVE SMOOTH",
"348.667 136 OFFCURVE",
"304.5 153.833 OFFCURVE",
"275.5 189.5 CURVE SMOOTH",
"246.5 225.167 OFFCURVE",
"232 279.667 OFFCURVE",
"232 353 CURVE SMOOTH",
"232 425.667 OFFCURVE",
"246.5 479.833 OFFCURVE",
"275.5 515.5 CURVE SMOOTH",
"304.5 551.167 OFFCURVE",
"348.667 569 OFFCURVE",
"408 569 CURVE SMOOTH",
"430 569 OFFCURVE",
"451.333 566 OFFCURVE",
"472 560 CURVE SMOOTH",
"492.667 554 OFFCURVE",
"514.667 544 OFFCURVE",
"538 530 CURVE SMOOTH",
"548.667 523.333 OFFCURVE",
"558 518.5 OFFCURVE",
"566 515.5 CURVE SMOOTH",
"574 512.5 OFFCURVE",
"583 511 OFFCURVE",
"593 511 CURVE SMOOTH",
"609.667 511 OFFCURVE",
"623.833 518.167 OFFCURVE",
"635.5 532.5 CURVE SMOOTH",
"647.167 546.833 OFFCURVE",
"653 564.333 OFFCURVE",
"653 585 CURVE SMOOTH",
"653 599.667 OFFCURVE",
"650.5 611.667 OFFCURVE",
"645.5 621 CURVE SMOOTH",
"640.5 630.333 OFFCURVE",
"632.333 639 OFFCURVE",
"621 647 CURVE SMOOTH",
"557 691.667 OFFCURVE",
"482.667 714 OFFCURVE",
"398 714 CURVE SMOOTH",
"327.333 714 OFFCURVE",
"265.5 699.333 OFFCURVE",
"212.5 670 CURVE SMOOTH",
"159.5 640.667 OFFCURVE",
"118.5 598.667 OFFCURVE",
"89.5 544 CURVE SMOOTH",
"60.5 489.333 OFFCURVE",
"46 425.667 OFFCURVE",
"46 353 CURVE SMOOTH",
"46 286.333 OFFCURVE",
"58 227.333 OFFCURVE",
"82 176 CURVE SMOOTH",
"106 124.667 OFFCURVE",
"140.167 83.333 OFFCURVE",
"184.5 52 CURVE SMOOTH",
"228.833 20.667 OFFCURVE",
"281.333 1.333 OFFCURVE",
"342 -6 CURVE",
"333 -76 LINE",
"331.667 -82.667 OFFCURVE",
"333 -87.833 OFFCURVE",
"337 -91.5 CURVE SMOOTH",
"341 -95.167 OFFCURVE",
"346.333 -97 OFFCURVE",
"353 -97 CURVE SMOOTH",
"357.667 -97 OFFCURVE",
"364.333 -96.167 OFFCURVE",
"373 -94.5 CURVE SMOOTH",
"381.667 -92.833 OFFCURVE",
"388.667 -92 OFFCURVE",
"394 -92 CURVE SMOOTH",
"408.667 -92 OFFCURVE",
"416 -97.667 OFFCURVE",
"416 -109 CURVE SMOOTH",
"416 -123.667 OFFCURVE",
"402 -131 OFFCURVE",
"374 -131 CURVE SMOOTH",
"363.333 -131 OFFCURVE",
"344.667 -128.333 OFFCURVE",
"318 -123 CURVE",
"309.333 -120.333 OFFCURVE",
"301.833 -122.833 OFFCURVE",
"295.5 -130.5 CURVE SMOOTH",
"289.167 -138.167 OFFCURVE",
"286 -147 OFFCURVE",
"286 -157 CURVE SMOOTH",
"286 -173.667 OFFCURVE",
"293.333 -184.333 OFFCURVE",
"308 -189 CURVE SMOOTH",
"326 -195 OFFCURVE",
"350 -198 OFFCURVE",
"380 -198 CURVE SMOOTH",
"425.333 -198 OFFCURVE",
"460.167 -189.833 OFFCURVE",
"484.5 -173.5 CURVE SMOOTH",
"508.833 -157.167 OFFCURVE",
"521 -135.667 OFFCURVE",
"521 -109 CURVE SMOOTH",
"521 -88.333 OFFCURVE",
"513.833 -71.667 OFFCURVE",
"499.5 -59 CURVE SMOOTH",
"485.167 -46.333 OFFCURVE",
"467.667 -40 OFFCURVE",
"447 -40 CURVE SMOOTH",
"438.333 -40 OFFCURVE",
"431.333 -40.333 OFFCURVE",
"426 -41 CURVE",
"432 -8 LINE",
"501.333 -3.333 OFFCURVE",
"564.333 18.667 OFFCURVE",
"621 58 CURVE SMOOTH",
"632.333 66 OFFCURVE",
"640.5 74.833 OFFCURVE",
"645.5 84.5 CURVE SMOOTH",
"650.5 94.167 OFFCURVE",
"653 106 OFFCURVE",
"653 120 CURVE SMOOTH",
"653 140.667 OFFCURVE",
"647.167 158.167 OFFCURVE",
"635.5 172.5 CURVE SMOOTH",
"623.833 186.833 OFFCURVE",
"609.667 194 OFFCURVE",
"593 194 CURVE SMOOTH"
);
}
);
width = 678;
}
);
leftKerningGroup = C;
note = uni1E08;
rightKerningGroup = C;
unicode = 1E08;
},
{
glyphname = D;
lastChange = "2017-12-28 15:37:02 +0000";
layers = (
{
layerId = "049F51DC-9351-481A-A5F1-2729E00BCCBB";
paths = (
{
closed = 1;
nodes = (
"351 0 LINE SMOOTH",
"429.667 0 OFFCURVE",
"497.167 14 OFFCURVE",
"553.5 42 CURVE SMOOTH",
"609.833 70 OFFCURVE",
"652.833 110.5 OFFCURVE",
"682.5 163.5 CURVE SMOOTH",
"712.167 216.5 OFFCURVE",
"727 279.667 OFFCURVE",
"727 353 CURVE SMOOTH",
"727 425.667 OFFCURVE",
"712 488.333 OFFCURVE",
"682 541 CURVE SMOOTH",
"652 593.667 OFFCURVE",
"608.833 634.167 OFFCURVE",
"552.5 662.5 CURVE SMOOTH",
"496.167 690.833 OFFCURVE",
"429 705 OFFCURVE",
"351 705 CURVE SMOOTH",
"149 705 LINE SMOOTH",
"121.667 705 OFFCURVE",
"100.667 697.667 OFFCURVE",
"86 683 CURVE SMOOTH",
"71.333 668.333 OFFCURVE",
"64 647.333 OFFCURVE",
"64 620 CURVE SMOOTH",
"64 85 LINE SMOOTH",
"64 57.667 OFFCURVE",
"71.333 36.667 OFFCURVE",
"86 22 CURVE SMOOTH",
"100.667 7.333 OFFCURVE",
"121.667 0 OFFCURVE",
"149 0 CURVE SMOOTH"
);
},
{
closed = 1;
nodes = (
"248 557 LINE",
"338 557 LINE SMOOTH",
"406.667 557 OFFCURVE",
"458.167 540.333 OFFCURVE",
"492.5 507 CURVE SMOOTH",
"526.833 473.667 OFFCURVE",
"544 422.333 OFFCURVE",
"544 353 CURVE SMOOTH",
"544 283.667 OFFCURVE",
"526.833 232.167 OFFCURVE",
"492.5 198.5 CURVE SMOOTH",
"458.167 164.833 OFFCURVE",
"406.667 148 OFFCURVE",
"338 148 CURVE SMOOTH",
"248 148 LINE"
);
}
);
width = 773;
}
);
rightKerningGroup = D;
unicode = 0044;
},
{
glyphname = Dafrican;
lastChange = "2017-12-28 16:23:58 +0000";
layers = (
{
components = (
{
alignment = -1;
name = D;
transform = "{1, 0, 0, 1, 76, 0}";
}
);
layerId = "049F51DC-9351-481A-A5F1-2729E00BCCBB";
paths = (
{
closed = 1;
nodes = (
"407 296 LINE SMOOTH",
"423 296 OFFCURVE",
"436 299 OFFCURVE",
"447 309 CURVE SMOOTH",
"457 318 OFFCURVE",
"462 331 OFFCURVE",
"462 346 CURVE SMOOTH",
"462 361 OFFCURVE",
"457 372 OFFCURVE",
"447 381 CURVE SMOOTH",
"436 391 OFFCURVE",
"423 395 OFFCURVE",
"407 395 CURVE SMOOTH",
"55 395 LINE SMOOTH",
"39 395 OFFCURVE",
"26 391 OFFCURVE",
"15 381 CURVE SMOOTH",
"5 372 OFFCURVE",
"0 361 OFFCURVE",
"0 346 CURVE SMOOTH",
"0 331 OFFCURVE",
"5 318 OFFCURVE",
"15 309 CURVE SMOOTH",
"26 299 OFFCURVE",
"39 296 OFFCURVE",
"55 296 CURVE SMOOTH"
);
}
);
width = 849;
}
);
unicode = 0189;
},
{
glyphname = Eth;
lastChange = "2017-12-28 15:37:02 +0000";
layers = (
{
layerId = "049F51DC-9351-481A-A5F1-2729E00BCCBB";
paths = (
{
closed = 1;
nodes = (
"185 705 LINE SMOOTH",
"157.667 705 OFFCURVE",
"136.667 697.667 OFFCURVE",
"122 683 CURVE SMOOTH",
"107.333 668.333 OFFCURVE",
"100 647.333 OFFCURVE",
"100 620 CURVE SMOOTH",
"100 425 LINE",
"82 425 LINE SMOOTH",
"55.333 425 OFFCURVE",
"35 419 OFFCURVE",
"21 407 CURVE SMOOTH",
"7 395 OFFCURVE",
"0 378 OFFCURVE",
"0 356 CURVE SMOOTH",
"0 333.333 OFFCURVE",
"7 316 OFFCURVE",
"21 304 CURVE SMOOTH",
"35 292 OFFCURVE",
"55.333 286 OFFCURVE",
"82 286 CURVE SMOOTH",
"100 286 LINE",
"100 85 LINE SMOOTH",
"100 57.667 OFFCURVE",
"107.333 36.667 OFFCURVE",
"122 22 CURVE SMOOTH",
"136.667 7.333 OFFCURVE",
"157.667 0 OFFCURVE",
"185 0 CURVE SMOOTH",
"387 0 LINE SMOOTH",
"465.667 0 OFFCURVE",
"533.167 14 OFFCURVE",
"589.5 42 CURVE SMOOTH",
"645.833 70 OFFCURVE",
"688.833 110.5 OFFCURVE",
"718.5 163.5 CURVE SMOOTH",
"748.167 216.5 OFFCURVE",
"763 279.667 OFFCURVE",
"763 353 CURVE SMOOTH",
"763 425.667 OFFCURVE",
"748 488.333 OFFCURVE",
"718 541 CURVE SMOOTH",
"688 593.667 OFFCURVE",
"644.833 634.167 OFFCURVE",
"588.5 662.5 CURVE SMOOTH",
"532.167 690.833 OFFCURVE",
"465 705 OFFCURVE",
"387 705 CURVE SMOOTH"
);
},
{
closed = 1;
nodes = (
"284 148 LINE",
"284 286 LINE",
"402 286 LINE SMOOTH",
"428 286 OFFCURVE",
"448.167 292 OFFCURVE",
"462.5 304 CURVE SMOOTH",
"476.833 316 OFFCURVE",
"484 333.333 OFFCURVE",
"484 356 CURVE SMOOTH",
"484 378 OFFCURVE",
"476.833 395 OFFCURVE",
"462.5 407 CURVE SMOOTH",
"448.167 419 OFFCURVE",
"428 425 OFFCURVE",
"402 425 CURVE SMOOTH",
"284 425 LINE",
"284 557 LINE",
"374 557 LINE SMOOTH",
"442.667 557 OFFCURVE",
"494.167 540.333 OFFCURVE",
"528.5 507 CURVE SMOOTH",
"562.833 473.667 OFFCURVE",
"580 422.333 OFFCURVE",
"580 353 CURVE SMOOTH",
"580 283.667 OFFCURVE",
"562.833 232.167 OFFCURVE",
"528.5 198.5 CURVE SMOOTH",
"494.167 164.833 OFFCURVE",
"442.667 148 OFFCURVE",
"374 148 CURVE SMOOTH"
);
}
);
width = 809;
}
);
rightKerningGroup = D;
unicode = 00D0;
},
{
glyphname = E;
lastChange = "2017-12-28 15:37:02 +0000";
layers = (
{
layerId = "049F51DC-9351-481A-A5F1-2729E00BCCBB";
paths = (
{
closed = 1;
nodes = (
"495 0 LINE SMOOTH",
"523.667 0 OFFCURVE",
"545.333 6 OFFCURVE",
"560 18 CURVE SMOOTH",
"574.667 30 OFFCURVE",
"582 47.333 OFFCURVE",
"582 70 CURVE SMOOTH",
"582 118 OFFCURVE",
"553 142 OFFCURVE",
"495 142 CURVE SMOOTH",
"243 142 LINE",
"243 288 LINE",
"475 288 LINE SMOOTH",
"503.667 288 OFFCURVE",
"525.333 294 OFFCURVE",
"540 306 CURVE SMOOTH",
"554.667 318 OFFCURVE",
"562 335.333 OFFCURVE",
"562 358 CURVE SMOOTH",
"562 405.333 OFFCURVE",
"533 429 OFFCURVE",
"475 429 CURVE SMOOTH",
"243 429 LINE",
"243 563 LINE",
"495 563 LINE SMOOTH",
"553 563 OFFCURVE",
"582 587 OFFCURVE",
"582 635 CURVE SMOOTH",
"582 657.667 OFFCURVE",
"574.667 675 OFFCURVE",
"560 687 CURVE SMOOTH",
"545.333 699 OFFCURVE",
"523.667 705 OFFCURVE",
"495 705 CURVE SMOOTH",
"149 705 LINE SMOOTH",
"121.667 705 OFFCURVE",
"100.667 697.667 OFFCURVE",
"86 683 CURVE SMOOTH",
"71.333 668.333 OFFCURVE",
"64 647.333 OFFCURVE",
"64 620 CURVE SMOOTH",
"64 85 LINE SMOOTH",
"64 57.667 OFFCURVE",
"71.333 36.667 OFFCURVE",
"86 22 CURVE SMOOTH",
"100.667 7.333 OFFCURVE",
"121.667 0 OFFCURVE",
"149 0 CURVE SMOOTH"
);
}
);
width = 597;
}
);
rightKerningGroup = AE;
unicode = 0045;
},
{
glyphname = Ecedilla;
lastChange = "2017-12-28 15:37:02 +0000";
layers = (
{
layerId = "049F51DC-9351-481A-A5F1-2729E00BCCBB";
paths = (
{
closed = 1;
nodes = (
"243 142 LINE",
"243 288 LINE",
"475 288 LINE SMOOTH",
"503.667 288 OFFCURVE",
"525.333 294 OFFCURVE",
"540 306 CURVE SMOOTH",
"554.667 318 OFFCURVE",
"562 335.333 OFFCURVE",
"562 358 CURVE SMOOTH",
"562 405.333 OFFCURVE",
"533 429 OFFCURVE",
"475 429 CURVE SMOOTH",
"243 429 LINE",
"243 563 LINE",
"495 563 LINE SMOOTH",
"553 563 OFFCURVE",
"582 587 OFFCURVE",
"582 635 CURVE SMOOTH",
"582 657.667 OFFCURVE",
"574.667 675 OFFCURVE",
"560 687 CURVE SMOOTH",
"545.333 699 OFFCURVE",
"523.667 705 OFFCURVE",
"495 705 CURVE SMOOTH",
"149 705 LINE SMOOTH",
"121.667 705 OFFCURVE",
"100.667 697.667 OFFCURVE",
"86 683 CURVE SMOOTH",
"71.333 668.333 OFFCURVE",
"64 647.333 OFFCURVE",
"64 620 CURVE SMOOTH",
"64 85 LINE SMOOTH",
"64 57.667 OFFCURVE",
"71.333 36.667 OFFCURVE",
"86 22 CURVE SMOOTH",
"100.667 7.333 OFFCURVE",
"121.667 0 OFFCURVE",
"149 0 CURVE SMOOTH",
"278 0 LINE",
"268 -76 LINE",
"266.667 -82.667 OFFCURVE",
"268 -87.833 OFFCURVE",
"272 -91.5 CURVE SMOOTH",
"276 -95.167 OFFCURVE",
"281.333 -97 OFFCURVE",
"288 -97 CURVE SMOOTH",
"292.667 -97 OFFCURVE",
"299.333 -96.167 OFFCURVE",
"308 -94.5 CURVE SMOOTH",
"316.667 -92.833 OFFCURVE",
"323.667 -92 OFFCURVE",
"329 -92 CURVE SMOOTH",
"343.667 -92 OFFCURVE",
"351 -97.667 OFFCURVE",
"351 -109 CURVE SMOOTH",
"351 -123.667 OFFCURVE",
"337 -131 OFFCURVE",
"309 -131 CURVE SMOOTH",
"298.333 -131 OFFCURVE",
"279.667 -128.333 OFFCURVE",
"253 -123 CURVE",
"244.333 -120.333 OFFCURVE",
"236.833 -122.833 OFFCURVE",
"230.5 -130.5 CURVE SMOOTH",
"224.167 -138.167 OFFCURVE",
"221 -147 OFFCURVE",
"221 -157 CURVE SMOOTH",
"221 -173.667 OFFCURVE",
"228.333 -184.333 OFFCURVE",
"243 -189 CURVE SMOOTH",
"261 -195 OFFCURVE",
"285 -198 OFFCURVE",
"315 -198 CURVE SMOOTH",
"360.333 -198 OFFCURVE",
"395.167 -189.833 OFFCURVE",
"419.5 -173.5 CURVE SMOOTH",
"443.833 -157.167 OFFCURVE",
"456 -135.667 OFFCURVE",
"456 -109 CURVE SMOOTH",
"456 -88.333 OFFCURVE",
"448.833 -71.667 OFFCURVE",
"434.5 -59 CURVE SMOOTH",
"420.167 -46.333 OFFCURVE",
"402.667 -40 OFFCURVE",
"382 -40 CURVE SMOOTH",
"373.333 -40 OFFCURVE",
"366.333 -40.333 OFFCURVE",
"361 -41 CURVE",
"368 0 LINE",
"495 0 LINE SMOOTH",
"523.667 0 OFFCURVE",
"545.333 6 OFFCURVE",
"560 18 CURVE SMOOTH",
"574.667 30 OFFCURVE",
"582 47.333 OFFCURVE",
"582 70 CURVE SMOOTH",
"582 118 OFFCURVE",
"553 142 OFFCURVE",
"495 142 CURVE SMOOTH"
);
}
);
width = 597;
}
);
note = uni0228;
rightKerningGroup = AE;
unicode = 0228;
},
{
glyphname = Ecedillabreve;
lastChange = "2017-12-28 15:37:02 +0000";
layers = (
{
layerId = "049F51DC-9351-481A-A5F1-2729E00BCCBB";
paths = (
{
closed = 1;
nodes = (
"373 772 OFFCURVE",
"408.333 779 OFFCURVE",
"439 793 CURVE SMOOTH",
"469.667 807 OFFCURVE",
"491.333 824.333 OFFCURVE",
"504 845 CURVE",
"510 856.333 OFFCURVE",
"513 866.333 OFFCURVE",
"513 875 CURVE SMOOTH",
"513 887 OFFCURVE",
"508.833 896.833 OFFCURVE",
"500.5 904.5 CURVE SMOOTH",
"492.167 912.167 OFFCURVE",
"482 916 OFFCURVE",
"470 916 CURVE SMOOTH",
"454.667 916 OFFCURVE",
"441 910.333 OFFCURVE",
"429 899 CURVE",
"418.333 891.667 OFFCURVE",
"404 885.667 OFFCURVE",
"386 881 CURVE SMOOTH",
"368 876.333 OFFCURVE",
"350.333 874 OFFCURVE",
"333 874 CURVE SMOOTH",
"315.667 874 OFFCURVE",
"298 876.333 OFFCURVE",
"280 881 CURVE SMOOTH",
"262 885.667 OFFCURVE",
"247.667 891.667 OFFCURVE",
"237 899 CURVE",
"224.333 909.667 OFFCURVE",
"211 915 OFFCURVE",
"197 915 CURVE SMOOTH",
"185 915 OFFCURVE",
"174.833 911.167 OFFCURVE",
"166.5 903.5 CURVE SMOOTH",
"158.167 895.833 OFFCURVE",
"154 886 OFFCURVE",
"154 874 CURVE SMOOTH",
"154 864.667 OFFCURVE",
"156.667 855 OFFCURVE",
"162 845 CURVE",
"174.667 823.667 OFFCURVE",
"196.333 806.167 OFFCURVE",
"227 792.5 CURVE SMOOTH",
"257.667 778.833 OFFCURVE",
"293 772 OFFCURVE",
"333 772 CURVE SMOOTH"
);
},
{
closed = 1;
nodes = (
"243 142 LINE",
"243 288 LINE",
"475 288 LINE SMOOTH",
"503.667 288 OFFCURVE",
"525.333 294 OFFCURVE",
"540 306 CURVE SMOOTH",
"554.667 318 OFFCURVE",
"562 335.333 OFFCURVE",
"562 358 CURVE SMOOTH",
"562 405.333 OFFCURVE",
"533 429 OFFCURVE",
"475 429 CURVE SMOOTH",
"243 429 LINE",
"243 563 LINE",
"495 563 LINE SMOOTH",
"553 563 OFFCURVE",
"582 587 OFFCURVE",
"582 635 CURVE SMOOTH",
"582 657.667 OFFCURVE",
"574.667 675 OFFCURVE",
"560 687 CURVE SMOOTH",
"545.333 699 OFFCURVE",
"523.667 705 OFFCURVE",
"495 705 CURVE SMOOTH",
"149 705 LINE SMOOTH",
"121.667 705 OFFCURVE",
"100.667 697.667 OFFCURVE",
"86 683 CURVE SMOOTH",
"71.333 668.333 OFFCURVE",
"64 647.333 OFFCURVE",
"64 620 CURVE SMOOTH",
"64 85 LINE SMOOTH",
"64 57.667 OFFCURVE",
"71.333 36.667 OFFCURVE",
"86 22 CURVE SMOOTH",
"100.667 7.333 OFFCURVE",
"121.667 0 OFFCURVE",
"149 0 CURVE SMOOTH",
"278 0 LINE",
"268 -76 LINE",
"266.667 -82.667 OFFCURVE",
"268 -87.833 OFFCURVE",
"272 -91.5 CURVE SMOOTH",
"276 -95.167 OFFCURVE",
"281.333 -97 OFFCURVE",
"288 -97 CURVE SMOOTH",
"292.667 -97 OFFCURVE",
"299.333 -96.167 OFFCURVE",
"308 -94.5 CURVE SMOOTH",
"316.667 -92.833 OFFCURVE",
"323.667 -92 OFFCURVE",
"329 -92 CURVE SMOOTH",
"343.667 -92 OFFCURVE",
"351 -97.667 OFFCURVE",
"351 -109 CURVE SMOOTH",
"351 -123.667 OFFCURVE",
"337 -131 OFFCURVE",
"309 -131 CURVE SMOOTH",
"298.333 -131 OFFCURVE",
"279.667 -128.333 OFFCURVE",
"253 -123 CURVE",
"244.333 -120.333 OFFCURVE",
"236.833 -122.833 OFFCURVE",
"230.5 -130.5 CURVE SMOOTH",
"224.167 -138.167 OFFCURVE",
"221 -147 OFFCURVE",
"221 -157 CURVE SMOOTH",
"221 -173.667 OFFCURVE",
"228.333 -184.333 OFFCURVE",
"243 -189 CURVE SMOOTH",
"261 -195 OFFCURVE",
"285 -198 OFFCURVE",
"315 -198 CURVE SMOOTH",
"360.333 -198 OFFCURVE",
"395.167 -189.833 OFFCURVE",
"419.5 -173.5 CURVE SMOOTH",
"443.833 -157.167 OFFCURVE",
"456 -135.667 OFFCURVE",
"456 -109 CURVE SMOOTH",
"456 -88.333 OFFCURVE",
"448.833 -71.667 OFFCURVE",
"434.5 -59 CURVE SMOOTH",
"420.167 -46.333 OFFCURVE",
"402.667 -40 OFFCURVE",
"382 -40 CURVE SMOOTH",
"373.333 -40 OFFCURVE",
"366.333 -40.333 OFFCURVE",
"361 -41 CURVE",
"368 0 LINE",
"495 0 LINE SMOOTH",
"523.667 0 OFFCURVE",
"545.333 6 OFFCURVE",
"560 18 CURVE SMOOTH",
"574.667 30 OFFCURVE",
"582 47.333 OFFCURVE",
"582 70 CURVE SMOOTH",
"582 118 OFFCURVE",
"553 142 OFFCURVE",
"495 142 CURVE SMOOTH"
);
}
);
width = 597;
}
);
note = uni1E1C;
rightKerningGroup = AE;
unicode = 1E1C;
},
{
glyphname = Eogonek;
lastChange = "2017-12-28 15:37:02 +0000";
layers = (
{
layerId = "049F51DC-9351-481A-A5F1-2729E00BCCBB";
paths = (
{
closed = 1;
nodes = (
"555 -107.667 OFFCURVE",
"539 -110 OFFCURVE",
"527 -110 CURVE SMOOTH",
"512.333 -110 OFFCURVE",
"500.667 -105.5 OFFCURVE",
"492 -96.5 CURVE SMOOTH",
"483.333 -87.5 OFFCURVE",
"479 -75.333 OFFCURVE",
"479 -60 CURVE SMOOTH",
"479 -45.333 OFFCURVE",
"482.667 -32.833 OFFCURVE",
"490 -22.5 CURVE SMOOTH",
"497.333 -12.167 OFFCURVE",
"507.667 -4.667 OFFCURVE",
"521 0 CURVE",
"542.333 5.333 OFFCURVE",
"557.833 13.5 OFFCURVE",
"567.5 24.5 CURVE SMOOTH",
"577.167 35.5 OFFCURVE",
"582 50.667 OFFCURVE",
"582 70 CURVE SMOOTH",
"582 118 OFFCURVE",
"553 142 OFFCURVE",
"495 142 CURVE SMOOTH",
"243 142 LINE",
"243 288 LINE",
"475 288 LINE SMOOTH",
"503.667 288 OFFCURVE",
"525.333 294 OFFCURVE",
"540 306 CURVE SMOOTH",
"554.667 318 OFFCURVE",
"562 335.333 OFFCURVE",
"562 358 CURVE SMOOTH",
"562 405.333 OFFCURVE",
"533 429 OFFCURVE",
"475 429 CURVE SMOOTH",
"243 429 LINE",
"243 563 LINE",
"495 563 LINE SMOOTH",
"553 563 OFFCURVE",
"582 587 OFFCURVE",
"582 635 CURVE SMOOTH",
"582 657.667 OFFCURVE",
"574.667 675 OFFCURVE",
"560 687 CURVE SMOOTH",
"545.333 699 OFFCURVE",
"523.667 705 OFFCURVE",
"495 705 CURVE SMOOTH",
"149 705 LINE SMOOTH",
"121.667 705 OFFCURVE",
"100.667 697.667 OFFCURVE",
"86 683 CURVE SMOOTH",
"71.333 668.333 OFFCURVE",
"64 647.333 OFFCURVE",
"64 620 CURVE SMOOTH",
"64 85 LINE SMOOTH",
"64 57.667 OFFCURVE",
"71.333 36.667 OFFCURVE",
"86 22 CURVE SMOOTH",
"100.667 7.333 OFFCURVE",
"121.667 0 OFFCURVE",
"149 0 CURVE SMOOTH",
"407 0 LINE",
"381.667 -23.333 OFFCURVE",
"369 -52.333 OFFCURVE",
"369 -87 CURVE SMOOTH",
"369 -119.667 OFFCURVE",
"381.333 -146.333 OFFCURVE",
"406 -167 CURVE SMOOTH",
"430.667 -187.667 OFFCURVE",
"462 -198 OFFCURVE",
"500 -198 CURVE SMOOTH",
"535.333 -198 OFFCURVE",
"566.667 -190 OFFCURVE",
"594 -174 CURVE SMOOTH",
"606.667 -166 OFFCURVE",
"613 -154.333 OFFCURVE",
"613 -139 CURVE SMOOTH",
"613 -129 OFFCURVE",
"610.167 -120.333 OFFCURVE",
"604.5 -113 CURVE SMOOTH",
"598.833 -105.667 OFFCURVE",
"591.667 -102 OFFCURVE",
"583 -102 CURVE SMOOTH",
"579.667 -102 OFFCURVE",
"577 -102.333 OFFCURVE",
"575 -103 CURVE"
);
}
);
width = 597;
}
);
rightKerningGroup = AE;
unicode = 0118;
},
{
glyphname = F;
lastChange = "2017-12-28 15:37:02 +0000";
layers = (
{
layerId = "049F51DC-9351-481A-A5F1-2729E00BCCBB";
paths = (
{
closed = 1;
nodes = (
"182.333 -6 OFFCURVE",
"204.167 2.167 OFFCURVE",
"220.5 18.5 CURVE SMOOTH",
"236.833 34.833 OFFCURVE",
"245 57 OFFCURVE",
"245 85 CURVE SMOOTH",
"245 287 LINE",
"465 287 LINE SMOOTH",
"494.333 287 OFFCURVE",
"516.167 292.667 OFFCURVE",
"530.5 304 CURVE SMOOTH",
"544.833 315.333 OFFCURVE",
"552 333.333 OFFCURVE",
"552 358 CURVE SMOOTH",
"552 382.667 OFFCURVE",
"544.833 401 OFFCURVE",
"530.5 413 CURVE SMOOTH",
"516.167 425 OFFCURVE",
"494.333 431 OFFCURVE",
"465 431 CURVE SMOOTH",
"245 431 LINE",
"245 561 LINE",
"485 561 LINE SMOOTH",
"514.333 561 OFFCURVE",
"536.167 566.667 OFFCURVE",
"550.5 578 CURVE SMOOTH",
"564.833 589.333 OFFCURVE",
"572 607.333 OFFCURVE",
"572 632 CURVE SMOOTH",
"572 657.333 OFFCURVE",
"565 675.833 OFFCURVE",
"551 687.5 CURVE SMOOTH",
"537 699.167 OFFCURVE",
"515 705 OFFCURVE",
"485 705 CURVE SMOOTH",
"149 705 LINE SMOOTH",
"121.667 705 OFFCURVE",
"100.667 697.667 OFFCURVE",
"86 683 CURVE SMOOTH",
"71.333 668.333 OFFCURVE",
"64 647.333 OFFCURVE",
"64 620 CURVE SMOOTH",
"64 85 LINE SMOOTH",
"64 57.667 OFFCURVE",
"72.333 35.667 OFFCURVE",
"89 19 CURVE SMOOTH",
"105.667 2.333 OFFCURVE",
"127.667 -6 OFFCURVE",
"155 -6 CURVE SMOOTH"
);
}
);
width = 578;
}
);
rightKerningGroup = F;
unicode = 0046;
},
{
glyphname = G;
lastChange = "2017-12-28 15:37:02 +0000";
layers = (
{
layerId = "049F51DC-9351-481A-A5F1-2729E00BCCBB";
paths = (
{
closed = 1;
nodes = (
"451 398 LINE SMOOTH",
"429 398 OFFCURVE",
"412 392.5 OFFCURVE",
"400 381.5 CURVE SMOOTH",
"388 370.5 OFFCURVE",
"382 355 OFFCURVE",
"382 335 CURVE SMOOTH",
"382 315 OFFCURVE",
"388 299.5 OFFCURVE",
"400 288.5 CURVE SMOOTH",
"412 277.5 OFFCURVE",
"429 272 OFFCURVE",
"451 272 CURVE SMOOTH",
"523 272 LINE",
"523 141 LINE",
"491.667 134.333 OFFCURVE",
"460 131 OFFCURVE",
"428 131 CURVE SMOOTH",
"361.333 131 OFFCURVE",
"311.833 149.167 OFFCURVE",
"279.5 185.5 CURVE SMOOTH",
"247.167 221.833 OFFCURVE",
"231 277.667 OFFCURVE",
"231 353 CURVE SMOOTH",
"231 426.333 OFFCURVE",
"246.5 480.667 OFFCURVE",
"277.5 516 CURVE SMOOTH",
"308.5 551.333 OFFCURVE",
"355.667 569 OFFCURVE",
"419 569 CURVE SMOOTH",
"444.333 569 OFFCURVE",
"467.833 566 OFFCURVE",
"489.5 560 CURVE SMOOTH",
"511.167 554 OFFCURVE",
"534.333 544.333 OFFCURVE",
"559 531 CURVE",
"571 523.667 OFFCURVE",
"580.833 518.5 OFFCURVE",
"588.5 515.5 CURVE SMOOTH",
"596.167 512.5 OFFCURVE",
"605.333 511 OFFCURVE",
"616 511 CURVE SMOOTH",
"632 511 OFFCURVE",
"645.667 518.167 OFFCURVE",
"657 532.5 CURVE SMOOTH",
"668.333 546.833 OFFCURVE",
"674 564.333 OFFCURVE",
"674 585 CURVE SMOOTH",
"674 599.667 OFFCURVE",
"671.5 611.667 OFFCURVE",
"666.5 621 CURVE SMOOTH",
"661.5 630.333 OFFCURVE",
"653.333 639 OFFCURVE",
"642 647 CURVE SMOOTH",
"610 669.667 OFFCURVE",
"575.5 686.5 OFFCURVE",
"538.5 697.5 CURVE SMOOTH",
"501.5 708.5 OFFCURVE",
"459.667 714 OFFCURVE",
"413 714 CURVE SMOOTH",
"339 714 OFFCURVE",
"274.333 699.333 OFFCURVE",
"219 670 CURVE SMOOTH",
"163.667 640.667 OFFCURVE",
"121 598.833 OFFCURVE",
"91 544.5 CURVE SMOOTH",
"61 490.167 OFFCURVE",
"46 426.333 OFFCURVE",
"46 353 CURVE SMOOTH",
"46 278.333 OFFCURVE",
"61 213.833 OFFCURVE",
"91 159.5 CURVE SMOOTH",
"121 105.167 OFFCURVE",
"164.167 63.5 OFFCURVE",
"220.5 34.5 CURVE SMOOTH",
"276.833 5.5 OFFCURVE",
"343.333 -9 OFFCURVE",
"420 -9 CURVE SMOOTH",
"447.333 -9 OFFCURVE",
"476.833 -7.167 OFFCURVE",
"508.5 -3.5 CURVE SMOOTH",
"540.167 0.167 OFFCURVE",
"569 5.333 OFFCURVE",
"595 12 CURVE SMOOTH",
"621 19.333 OFFCURVE",
"640.5 28 OFFCURVE",
"653.5 38 CURVE SMOOTH",
"666.5 48 OFFCURVE",
"675.5 61.833 OFFCURVE",
"680.5 79.5 CURVE SMOOTH",
"685.5 97.167 OFFCURVE",
"688 122.667 OFFCURVE",
"688 156 CURVE SMOOTH",
"688 330 LINE SMOOTH",
"688 350.667 OFFCURVE",
"681.5 367.167 OFFCURVE",
"668.5 379.5 CURVE SMOOTH",
"655.5 391.833 OFFCURVE",
"638 398 OFFCURVE",
"616 398 CURVE SMOOTH"
);
}
);
width = 744;
}
);
leftKerningGroup = C;
rightKerningGroup = G;
unicode = 0047;
},
{
glyphname = H;
lastChange = "2017-12-28 15:37:02 +0000";
layers = (
{
layerId = "049F51DC-9351-481A-A5F1-2729E00BCCBB";
paths = (
{
closed = 1;
nodes = (
"594.667 710 OFFCURVE",
"572.833 701.833 OFFCURVE",
"556.5 685.5 CURVE SMOOTH",
"540.167 669.167 OFFCURVE",
"532 647.333 OFFCURVE",
"532 620 CURVE SMOOTH",
"532 431 LINE",
"244 431 LINE",
"244 620 LINE SMOOTH",
"244 647.333 OFFCURVE",
"235.833 669.167 OFFCURVE",
"219.5 685.5 CURVE SMOOTH",
"203.167 701.833 OFFCURVE",
"181.333 710 OFFCURVE",
"154 710 CURVE SMOOTH",
"126.667 710 OFFCURVE",
"104.833 701.833 OFFCURVE",
"88.5 685.5 CURVE SMOOTH",
"72.167 669.167 OFFCURVE",
"64 647.333 OFFCURVE",
"64 620 CURVE SMOOTH",
"64 85 LINE SMOOTH",
"64 57 OFFCURVE",
"72.167 34.833 OFFCURVE",
"88.5 18.5 CURVE SMOOTH",
"104.833 2.167 OFFCURVE",
"126.667 -6 OFFCURVE",
"154 -6 CURVE SMOOTH",
"181.333 -6 OFFCURVE",
"203.167 2.333 OFFCURVE",
"219.5 19 CURVE SMOOTH",
"235.833 35.667 OFFCURVE",
"244 57.667 OFFCURVE",
"244 85 CURVE SMOOTH",
"244 285 LINE",
"532 285 LINE",
"532 85 LINE SMOOTH",
"532 57 OFFCURVE",
"540.167 34.833 OFFCURVE",
"556.5 18.5 CURVE SMOOTH",
"572.833 2.167 OFFCURVE",
"594.667 -6 OFFCURVE",
"622 -6 CURVE SMOOTH",
"649.333 -6 OFFCURVE",
"671.167 2.333 OFFCURVE",
"687.5 19 CURVE SMOOTH",
"703.833 35.667 OFFCURVE",
"712 57.667 OFFCURVE",
"712 85 CURVE SMOOTH",
"712 620 LINE SMOOTH",
"712 647.333 OFFCURVE",
"703.833 669.167 OFFCURVE",
"687.5 685.5 CURVE SMOOTH",
"671.167 701.833 OFFCURVE",
"649.333 710 OFFCURVE",
"622 710 CURVE SMOOTH"
);
}
);
width = 776;
}
);
unicode = 0048;
},
{
glyphname = Hbar;
lastChange = "2017-12-28 15:37:02 +0000";
layers = (
{
layerId = "049F51DC-9351-481A-A5F1-2729E00BCCBB";
paths = (
{
closed = 1;
nodes = (
"747 634 LINE",
"744.333 658.667 OFFCURVE",
"734.667 677.5 OFFCURVE",
"718 690.5 CURVE SMOOTH",
"701.333 703.5 OFFCURVE",
"681.333 710 OFFCURVE",
"658 710 CURVE SMOOTH",
"634.667 710 OFFCURVE",
"614.667 703.5 OFFCURVE",
"598 690.5 CURVE SMOOTH",
"581.333 677.5 OFFCURVE",
"571.667 658.667 OFFCURVE",
"569 634 CURVE",
"279 634 LINE",
"276.333 658.667 OFFCURVE",
"266.667 677.5 OFFCURVE",
"250 690.5 CURVE SMOOTH",
"233.333 703.5 OFFCURVE",
"213.333 710 OFFCURVE",
"190 710 CURVE SMOOTH",
"166.667 710 OFFCURVE",
"146.667 703.5 OFFCURVE",
"130 690.5 CURVE SMOOTH",
"113.333 677.5 OFFCURVE",
"103.667 658.667 OFFCURVE",
"101 634 CURVE",
"82 634 LINE SMOOTH",
"55.333 634 OFFCURVE",
"35 628 OFFCURVE",
"21 616 CURVE SMOOTH",
"7 604 OFFCURVE",
"0 587.667 OFFCURVE",
"0 567 CURVE SMOOTH",
"0 547 OFFCURVE",
"7 531 OFFCURVE",
"21 519 CURVE SMOOTH",
"35 507 OFFCURVE",
"55.333 501 OFFCURVE",
"82 501 CURVE SMOOTH",
"100 501 LINE",
"100 85 LINE SMOOTH",
"100 55.667 OFFCURVE",
"108.5 33.167 OFFCURVE",
"125.5 17.5 CURVE SMOOTH",
"142.5 1.833 OFFCURVE",
"164 -6 OFFCURVE",
"190 -6 CURVE SMOOTH",
"216 -6 OFFCURVE",
"237.5 1.833 OFFCURVE",
"254.5 17.5 CURVE SMOOTH",
"271.5 33.167 OFFCURVE",
"280 55.667 OFFCURVE",
"280 85 CURVE SMOOTH",
"280 285 LINE",
"568 285 LINE",
"568 85 LINE SMOOTH",
"568 55.667 OFFCURVE",
"576.5 33.167 OFFCURVE",
"593.5 17.5 CURVE SMOOTH",
"610.5 1.833 OFFCURVE",
"632 -6 OFFCURVE",
"658 -6 CURVE SMOOTH",
"684 -6 OFFCURVE",
"705.5 1.833 OFFCURVE",
"722.5 17.5 CURVE SMOOTH",
"739.5 33.167 OFFCURVE",
"748 55.667 OFFCURVE",
"748 85 CURVE SMOOTH",
"748 501 LINE",
"766 501 LINE SMOOTH",
"792.667 501 OFFCURVE",
"813 507 OFFCURVE",
"827 519 CURVE SMOOTH",
"841 531 OFFCURVE",
"848 547 OFFCURVE",
"848 567 CURVE SMOOTH",
"848 587.667 OFFCURVE",
"841 604 OFFCURVE",
"827 616 CURVE SMOOTH",
"813 628 OFFCURVE",
"792.667 634 OFFCURVE",
"766 634 CURVE SMOOTH"
);
},
{
closed = 1;
nodes = (
"280 501 LINE",
"568 501 LINE",
"568 431 LINE",
"280 431 LINE"
);
}
);
width = 848;
}
);
unicode = 0126;
},
{
glyphname = I;
lastChange = "2017-12-28 15:37:02 +0000";
layers = (
{
layerId = "049F51DC-9351-481A-A5F1-2729E00BCCBB";
paths = (
{
closed = 1;
nodes = (
"183.667 -6 OFFCURVE",
"206.333 2.167 OFFCURVE",
"223 18.5 CURVE SMOOTH",
"239.667 34.833 OFFCURVE",
"248 57 OFFCURVE",
"248 85 CURVE SMOOTH",
"248 620 LINE SMOOTH",
"248 647.333 OFFCURVE",
"239.667 669.167 OFFCURVE",
"223 685.5 CURVE SMOOTH",
"206.333 701.833 OFFCURVE",
"183.667 710 OFFCURVE",
"155 710 CURVE SMOOTH",
"127 710 OFFCURVE",
"104.833 701.833 OFFCURVE",
"88.5 685.5 CURVE SMOOTH",
"72.167 669.167 OFFCURVE",
"64 647.333 OFFCURVE",
"64 620 CURVE SMOOTH",
"64 85 LINE SMOOTH",
"64 57 OFFCURVE",
"72.167 34.833 OFFCURVE",
"88.5 18.5 CURVE SMOOTH",
"104.833 2.167 OFFCURVE",
"127 -6 OFFCURVE",
"155 -6 CURVE SMOOTH"
);
}
);
width = 312;
}
);
unicode = 0049;
},
{
glyphname = Iogonek;
lastChange = "2017-12-28 15:37:02 +0000";
layers = (
{
layerId = "049F51DC-9351-481A-A5F1-2729E00BCCBB";
paths = (
{
closed = 1;
nodes = (
"242 -105.667 OFFCURVE",
"234 -107.5 OFFCURVE",
"228 -108.5 CURVE SMOOTH",
"222 -109.5 OFFCURVE",
"214 -110 OFFCURVE",
"204 -110 CURVE SMOOTH",
"189.333 -110 OFFCURVE",
"177.667 -105.5 OFFCURVE",
"169 -96.5 CURVE SMOOTH",
"160.333 -87.5 OFFCURVE",
"156 -75.333 OFFCURVE",
"156 -60 CURVE SMOOTH",
"156 -34.667 OFFCURVE",
"173.333 -12 OFFCURVE",
"208 8 CURVE",
"220.667 13.333 OFFCURVE",
"230.5 23 OFFCURVE",
"237.5 37 CURVE SMOOTH",
"244.5 51 OFFCURVE",
"248 67 OFFCURVE",
"248 85 CURVE SMOOTH",
"248 620 LINE SMOOTH",
"248 647.333 OFFCURVE",
"239.667 669.167 OFFCURVE",
"223 685.5 CURVE SMOOTH",
"206.333 701.833 OFFCURVE",
"183.667 710 OFFCURVE",
"155 710 CURVE SMOOTH",
"127 710 OFFCURVE",
"104.833 701.833 OFFCURVE",
"88.5 685.5 CURVE SMOOTH",
"72.167 669.167 OFFCURVE",
"64 647.333 OFFCURVE",
"64 620 CURVE SMOOTH",
"64 85 LINE SMOOTH",
"64 53.667 OFFCURVE",
"74.333 30 OFFCURVE",
"95 14 CURVE",
"62.333 -13.333 OFFCURVE",
"46 -45.667 OFFCURVE",
"46 -83 CURVE SMOOTH",
"46 -117.667 OFFCURVE",
"58 -145.5 OFFCURVE",
"82 -166.5 CURVE SMOOTH",
"106 -187.5 OFFCURVE",
"137.667 -198 OFFCURVE",
"177 -198 CURVE SMOOTH",
"212.333 -198 OFFCURVE",
"243.667 -190 OFFCURVE",
"271 -174 CURVE SMOOTH",
"283 -166.667 OFFCURVE",
"289 -155 OFFCURVE",
"289 -139 CURVE SMOOTH",
"289 -129 OFFCURVE",
"286.333 -120.333 OFFCURVE",
"281 -113 CURVE SMOOTH",
"275.667 -105.667 OFFCURVE",
"268.667 -102 OFFCURVE",
"260 -102 CURVE SMOOTH",
"256.667 -102 OFFCURVE",
"254 -102.333 OFFCURVE",
"252 -103 CURVE"
);
}
);
width = 312;
}
);
unicode = 012E;
},
{
glyphname = J;
lastChange = "2017-12-28 15:37:02 +0000";
layers = (
{
layerId = "049F51DC-9351-481A-A5F1-2729E00BCCBB";
paths = (
{
closed = 1;
nodes = (
"124 -4 LINE SMOOTH",
"193.333 0.667 OFFCURVE",
"245.5 21.5 OFFCURVE",
"280.5 58.5 CURVE SMOOTH",
"315.5 95.5 OFFCURVE",
"333 147.333 OFFCURVE",
"333 214 CURVE SMOOTH",
"333 620 LINE SMOOTH",
"333 647.333 OFFCURVE",
"324.5 669.167 OFFCURVE",
"307.5 685.5 CURVE SMOOTH",
"290.5 701.833 OFFCURVE",
"268.333 710 OFFCURVE",
"241 710 CURVE SMOOTH",
"212.333 710 OFFCURVE",
"189.667 701.833 OFFCURVE",
"173 685.5 CURVE SMOOTH",
"156.333 669.167 OFFCURVE",
"148 647.333 OFFCURVE",
"148 620 CURVE SMOOTH",
"148 211 LINE SMOOTH",
"148 189.667 OFFCURVE",
"142.833 172.833 OFFCURVE",
"132.5 160.5 CURVE SMOOTH",
"122.167 148.167 OFFCURVE",
"107 141.667 OFFCURVE",
"87 141 CURVE SMOOTH",
"53 139 LINE SMOOTH",
"28.333 137.667 OFFCURVE",
"10.333 131.333 OFFCURVE",
"-1 120 CURVE SMOOTH",
"-12.333 108.667 OFFCURVE",
"-18 91.333 OFFCURVE",
"-18 68 CURVE SMOOTH",
"-18 15.333 OFFCURVE",
"18.667 -9.333 OFFCURVE",
"92 -6 CURVE SMOOTH"
);
}
);
width = 397;
}
);
leftKerningGroup = J;
rightKerningGroup = J;
unicode = 004A;
},
{
glyphname = K;
lastChange = "2017-12-28 15:37:02 +0000";
layers = (
{
layerId = "049F51DC-9351-481A-A5F1-2729E00BCCBB";
paths = (
{
closed = 1;
nodes = (
"437 366 LINE",
"642 567 LINE SMOOTH",
"661.333 585.667 OFFCURVE",
"671 606 OFFCURVE",
"671 628 CURVE SMOOTH",
"671 650 OFFCURVE",
"662.667 669.167 OFFCURVE",
"646 685.5 CURVE SMOOTH",
"629.333 701.833 OFFCURVE",
"610 710 OFFCURVE",
"588 710 CURVE SMOOTH",
"566 710 OFFCURVE",
"546.333 701 OFFCURVE",
"529 683 CURVE SMOOTH",
"248 400 LINE",
"248 620 LINE SMOOTH",
"248 647.333 OFFCURVE",
"239.667 669.167 OFFCURVE",
"223 685.5 CURVE SMOOTH",
"206.333 701.833 OFFCURVE",
"183.667 710 OFFCURVE",
"155 710 CURVE SMOOTH",
"127 710 OFFCURVE",
"104.833 701.833 OFFCURVE",
"88.5 685.5 CURVE SMOOTH",
"72.167 669.167 OFFCURVE",
"64 647.333 OFFCURVE",
"64 620 CURVE SMOOTH",
"64 85 LINE SMOOTH",
"64 57 OFFCURVE",
"72.167 34.833 OFFCURVE",
"88.5 18.5 CURVE SMOOTH",
"104.833 2.167 OFFCURVE",
"127 -6 OFFCURVE",
"155 -6 CURVE SMOOTH",
"183.667 -6 OFFCURVE",
"206.333 2.167 OFFCURVE",
"223 18.5 CURVE SMOOTH",
"239.667 34.833 OFFCURVE",
"248 57 OFFCURVE",
"248 85 CURVE SMOOTH",
"248 321 LINE",
"533 29 LINE SMOOTH",
"553.667 7.667 OFFCURVE",
"576.333 -3 OFFCURVE",
"601 -3 CURVE SMOOTH",
"623.667 -3 OFFCURVE",
"643.333 5.333 OFFCURVE",
"660 22 CURVE SMOOTH",
"676.667 38.667 OFFCURVE",
"685 58 OFFCURVE",
"685 80 CURVE SMOOTH",
"685 102 OFFCURVE",
"676.333 121.333 OFFCURVE",
"659 138 CURVE SMOOTH"
);
}
);
width = 698;
}
);
rightKerningGroup = K;
unicode = 004B;
},
{
glyphname = L;
lastChange = "2017-12-28 15:37:02 +0000";
layers = (
{
layerId = "049F51DC-9351-481A-A5F1-2729E00BCCBB";
paths = (
{
closed = 1;
nodes = (
"478 0 LINE SMOOTH",
"507.333 0 OFFCURVE",
"529.167 6 OFFCURVE",
"543.5 18 CURVE SMOOTH",
"557.833 30 OFFCURVE",
"565 48.667 OFFCURVE",
"565 74 CURVE SMOOTH",
"565 124 OFFCURVE",
"536 149 OFFCURVE",
"478 149 CURVE SMOOTH",
"248 149 LINE",
"248 620 LINE SMOOTH",
"248 647.333 OFFCURVE",
"239.667 669.167 OFFCURVE",
"223 685.5 CURVE SMOOTH",
"206.333 701.833 OFFCURVE",
"183.667 710 OFFCURVE",
"155 710 CURVE SMOOTH",
"127 710 OFFCURVE",
"104.833 701.833 OFFCURVE",
"88.5 685.5 CURVE SMOOTH",
"72.167 669.167 OFFCURVE",
"64 647.333 OFFCURVE",
"64 620 CURVE SMOOTH",
"64 86 LINE SMOOTH",
"64 58 OFFCURVE",
"71.333 36.667 OFFCURVE",
"86 22 CURVE SMOOTH",
"100.667 7.333 OFFCURVE",
"121.667 0 OFFCURVE",
"149 0 CURVE SMOOTH"
);
}
);
width = 572;
}
);
rightKerningGroup = L;
unicode = 004C;
},
{
glyphname = LJ;
lastChange = "2017-12-28 15:37:02 +0000";
layers = (
{
layerId = "049F51DC-9351-481A-A5F1-2729E00BCCBB";
paths = (
{
closed = 1;
nodes = (
"448 0 LINE SMOOTH",
"477.333 0 OFFCURVE",
"499.167 6 OFFCURVE",
"513.5 18 CURVE SMOOTH",
"527.833 30 OFFCURVE",
"535 48.667 OFFCURVE",
"535 74 CURVE SMOOTH",
"535 124 OFFCURVE",
"506 149 OFFCURVE",
"448 149 CURVE SMOOTH",
"248 149 LINE",
"248 620 LINE SMOOTH",
"248 647.333 OFFCURVE",
"239.667 669.167 OFFCURVE",
"223 685.5 CURVE SMOOTH",
"206.333 701.833 OFFCURVE",
"183.667 710 OFFCURVE",
"155 710 CURVE SMOOTH",
"127 710 OFFCURVE",
"104.833 701.833 OFFCURVE",
"88.5 685.5 CURVE SMOOTH",
"72.167 669.167 OFFCURVE",
"64 647.333 OFFCURVE",
"64 620 CURVE SMOOTH",
"64 86 LINE SMOOTH",
"64 58 OFFCURVE",
"71.333 36.667 OFFCURVE",
"86 22 CURVE SMOOTH",
"100.667 7.333 OFFCURVE",
"121.667 0 OFFCURVE",
"149 0 CURVE SMOOTH"
);
},
{
closed = 1;
nodes = (
"701 -4 LINE SMOOTH",
"770.333 0 OFFCURVE",
"822.5 20.667 OFFCURVE",
"857.5 58 CURVE SMOOTH",
"892.5 95.333 OFFCURVE",
"910 147.333 OFFCURVE",
"910 214 CURVE SMOOTH",
"910 620 LINE SMOOTH",
"910 647.333 OFFCURVE",
"901.5 669.167 OFFCURVE",
"884.5 685.5 CURVE SMOOTH",
"867.5 701.833 OFFCURVE",
"845 710 OFFCURVE",
"817 710 CURVE SMOOTH",
"789 710 OFFCURVE",
"766.5 701.833 OFFCURVE",
"749.5 685.5 CURVE SMOOTH",
"732.5 669.167 OFFCURVE",
"724 647.333 OFFCURVE",
"724 620 CURVE SMOOTH",
"724 211 LINE SMOOTH",
"724 189.667 OFFCURVE",
"718.833 173 OFFCURVE",
"708.5 161 CURVE SMOOTH",
"698.167 149 OFFCURVE",
"683.333 142.333 OFFCURVE",
"664 141 CURVE SMOOTH",
"630 139 LINE SMOOTH",
"605.333 137.667 OFFCURVE",
"587.333 131.333 OFFCURVE",
"576 120 CURVE SMOOTH",
"564.667 108.667 OFFCURVE",
"559 91.333 OFFCURVE",
"559 68 CURVE SMOOTH",
"559 41.333 OFFCURVE",
"568.333 21.667 OFFCURVE",
"587 9 CURVE SMOOTH",
"605.667 -3.667 OFFCURVE",
"632.667 -8.667 OFFCURVE",
"668 -6 CURVE SMOOTH"
);
}
);
width = 974;
}
);
note = uni01C7;
rightKerningGroup = J;
unicode = 01C7;
},
{
glyphname = Lslash;
lastChange = "2017-12-28 15:37:02 +0000";
layers = (
{
layerId = "049F51DC-9351-481A-A5F1-2729E00BCCBB";
paths = (
{
closed = 1;
nodes = (
"284 149 LINE",
"284 331 LINE",
"435 419 LINE SMOOTH",
"462.333 435 OFFCURVE",
"476 456 OFFCURVE",
"476 482 CURVE SMOOTH",
"476 499.333 OFFCURVE",
"469.667 514.5 OFFCURVE",
"457 527.5 CURVE SMOOTH",
"444.333 540.5 OFFCURVE",
"428.667 547 OFFCURVE",
"410 547 CURVE SMOOTH",
"396.667 547 OFFCURVE",
"383 543 OFFCURVE",
"369 535 CURVE SMOOTH",
"284 486 LINE",
"284 620 LINE SMOOTH",
"284 647.333 OFFCURVE",
"275.667 669.167 OFFCURVE",
"259 685.5 CURVE SMOOTH",
"242.333 701.833 OFFCURVE",
"219.667 710 OFFCURVE",
"191 710 CURVE SMOOTH",
"163.667 710 OFFCURVE",
"141.667 701.833 OFFCURVE",
"125 685.5 CURVE SMOOTH",
"108.333 669.167 OFFCURVE",
"100 647.333 OFFCURVE",
"100 620 CURVE SMOOTH",
"100 380 LINE",
"41 346 LINE SMOOTH",
"27.667 338.667 OFFCURVE",
"17.667 329.333 OFFCURVE",
"11 318 CURVE SMOOTH",
"4.333 306.667 OFFCURVE",
"1 295 OFFCURVE",
"1 283 CURVE SMOOTH",
"1 265.667 OFFCURVE",
"7 250.333 OFFCURVE",
"19 237 CURVE SMOOTH",
"31 223.667 OFFCURVE",
"46.333 217 OFFCURVE",
"65 217 CURVE SMOOTH",
"77.667 217 OFFCURVE",
"89.333 219.667 OFFCURVE",
"100 225 CURVE",
"100 86 LINE SMOOTH",
"100 58 OFFCURVE",
"107.333 36.667 OFFCURVE",
"122 22 CURVE SMOOTH",
"136.667 7.333 OFFCURVE",
"157.667 0 OFFCURVE",
"185 0 CURVE SMOOTH",
"514 0 LINE SMOOTH",
"543.333 0 OFFCURVE",
"565.167 6 OFFCURVE",
"579.5 18 CURVE SMOOTH",
"593.833 30 OFFCURVE",
"601 48.667 OFFCURVE",
"601 74 CURVE SMOOTH",
"601 124 OFFCURVE",
"572 149 OFFCURVE",
"514 149 CURVE SMOOTH"
);
}
);
width = 609;
}
);
rightKerningGroup = L;
unicode = 0141;
},
{
glyphname = M;
lastChange = "2017-12-28 15:37:02 +0000";
layers = (
{
layerId = "049F51DC-9351-481A-A5F1-2729E00BCCBB";
paths = (
{
closed = 1;
nodes = (
"654.667 710 OFFCURVE",
"626.667 690 OFFCURVE",
"606 650 CURVE SMOOTH",
"423 304 LINE",
"239 650 LINE SMOOTH",
"229 669.333 OFFCURVE",
"216.667 684.167 OFFCURVE",
"202 694.5 CURVE SMOOTH",
"187.333 704.833 OFFCURVE",
"171 710 OFFCURVE",
"153 710 CURVE SMOOTH",
"127.667 710 OFFCURVE",
"106.833 701.667 OFFCURVE",
"90.5 685 CURVE SMOOTH",
"74.167 668.333 OFFCURVE",
"66 646.667 OFFCURVE",
"66 620 CURVE SMOOTH",
"66 76 LINE SMOOTH",
"66 50.667 OFFCURVE",
"73.5 30.667 OFFCURVE",
"88.5 16 CURVE SMOOTH",
"103.5 1.333 OFFCURVE",
"122.667 -6 OFFCURVE",
"146 -6 CURVE SMOOTH",
"170 -6 OFFCURVE",
"189.5 1.5 OFFCURVE",
"204.5 16.5 CURVE SMOOTH",
"219.5 31.5 OFFCURVE",
"227 51.333 OFFCURVE",
"227 76 CURVE SMOOTH",
"227 364 LINE",
"340 160 LINE SMOOTH",
"351.333 138.667 OFFCURVE",
"363.333 123.5 OFFCURVE",
"376 114.5 CURVE SMOOTH",
"388.667 105.5 OFFCURVE",
"403.667 101 OFFCURVE",
"421 101 CURVE SMOOTH",
"438.333 101 OFFCURVE",
"453.333 105.5 OFFCURVE",
"466 114.5 CURVE SMOOTH",
"478.667 123.5 OFFCURVE",
"490.667 138.667 OFFCURVE",
"502 160 CURVE SMOOTH",
"616 370 LINE",
"616 76 LINE SMOOTH",
"616 50.667 OFFCURVE",
"623.5 30.667 OFFCURVE",
"638.5 16 CURVE SMOOTH",
"653.5 1.333 OFFCURVE",
"672.667 -6 OFFCURVE",
"696 -6 CURVE SMOOTH",
"720 -6 OFFCURVE",
"739.333 1.333 OFFCURVE",
"754 16 CURVE SMOOTH",
"768.667 30.667 OFFCURVE",
"776 50.667 OFFCURVE",
"776 76 CURVE SMOOTH",
"776 620 LINE SMOOTH",
"776 646.667 OFFCURVE",
"768 668.333 OFFCURVE",
"752 685 CURVE SMOOTH",
"736 701.667 OFFCURVE",
"715.333 710 OFFCURVE",
"690 710 CURVE SMOOTH"
);
}
);
width = 842;
}
);
unicode = 004D;
},
{
glyphname = N;
lastChange = "2017-12-28 15:37:02 +0000";
layers = (
{
layerId = "049F51DC-9351-481A-A5F1-2729E00BCCBB";
paths = (
{
closed = 1;
nodes = (
"580.667 710 OFFCURVE",
"560.167 701.833 OFFCURVE",
"544.5 685.5 CURVE SMOOTH",
"528.833 669.167 OFFCURVE",
"521 647.333 OFFCURVE",
"521 620 CURVE SMOOTH",
"521 302 LINE",
"217 680 LINE SMOOTH",
"201 700 OFFCURVE",
"178.667 710 OFFCURVE",
"150 710 CURVE SMOOTH",
"124.667 710 OFFCURVE",
"104 701.667 OFFCURVE",
"88 685 CURVE SMOOTH",
"72 668.333 OFFCURVE",
"64 646.667 OFFCURVE",
"64 620 CURVE SMOOTH",
"64 85 LINE SMOOTH",
"64 57.667 OFFCURVE",
"72 35.667 OFFCURVE",
"88 19 CURVE SMOOTH",
"104 2.333 OFFCURVE",
"124.667 -6 OFFCURVE",
"150 -6 CURVE SMOOTH",
"176 -6 OFFCURVE",
"196.667 2.333 OFFCURVE",
"212 19 CURVE SMOOTH",
"227.333 35.667 OFFCURVE",
"235 57.667 OFFCURVE",
"235 85 CURVE SMOOTH",
"235 403 LINE",
"539 24 LINE SMOOTH",
"554.333 4 OFFCURVE",
"577 -6 OFFCURVE",
"607 -6 CURVE SMOOTH",
"632.333 -6 OFFCURVE",
"653 2.333 OFFCURVE",
"669 19 CURVE SMOOTH",
"685 35.667 OFFCURVE",
"693 57.667 OFFCURVE",
"693 85 CURVE SMOOTH",
"693 620 LINE SMOOTH",
"693 646.667 OFFCURVE",
"684.833 668.333 OFFCURVE",
"668.5 685 CURVE SMOOTH",
"652.167 701.667 OFFCURVE",
"631.333 710 OFFCURVE",
"606 710 CURVE SMOOTH"
);
}
);
width = 757;
}
);
unicode = 004E;
},
{
glyphname = Eng;
lastChange = "2017-12-28 15:37:02 +0000";
layers = (
{
layerId = "049F51DC-9351-481A-A5F1-2729E00BCCBB";
paths = (
{
closed = 1;
nodes = (
"580.667 710 OFFCURVE",
"560.167 701.833 OFFCURVE",
"544.5 685.5 CURVE SMOOTH",
"528.833 669.167 OFFCURVE",
"521 647.333 OFFCURVE",
"521 620 CURVE SMOOTH",
"521 302 LINE",
"217 680 LINE SMOOTH",
"201 700 OFFCURVE",
"178.667 710 OFFCURVE",
"150 710 CURVE SMOOTH",
"124.667 710 OFFCURVE",
"104 701.667 OFFCURVE",
"88 685 CURVE SMOOTH",
"72 668.333 OFFCURVE",
"64 646.667 OFFCURVE",
"64 620 CURVE SMOOTH",
"64 85 LINE SMOOTH",
"64 57.667 OFFCURVE",
"72 35.667 OFFCURVE",
"88 19 CURVE SMOOTH",
"104 2.333 OFFCURVE",
"124.667 -6 OFFCURVE",
"150 -6 CURVE SMOOTH",
"175.333 -6 OFFCURVE",
"195.833 2.333 OFFCURVE",
"211.5 19 CURVE SMOOTH",
"227.167 35.667 OFFCURVE",
"235 57.667 OFFCURVE",
"235 85 CURVE SMOOTH",
"235 403 LINE",
"519 49 LINE",
"519 24 LINE SMOOTH",
"519 5.333 OFFCURVE",
"512.5 -10.667 OFFCURVE",
"499.5 -24 CURVE SMOOTH",
"486.5 -37.333 OFFCURVE",
"469 -44.667 OFFCURVE",
"447 -46 CURVE SMOOTH",
"413 -48 LINE SMOOTH",
"389 -49.333 OFFCURVE",
"371.167 -55.5 OFFCURVE",
"359.5 -66.5 CURVE SMOOTH",
"347.833 -77.5 OFFCURVE",
"342 -93.667 OFFCURVE",
"342 -115 CURVE SMOOTH",
"342 -139 OFFCURVE",
"351.667 -157 OFFCURVE",
"371 -169 CURVE SMOOTH",
"390.333 -181 OFFCURVE",
"417.333 -186 OFFCURVE",
"452 -184 CURVE SMOOTH",
"484 -182 LINE SMOOTH",
"553.333 -177.333 OFFCURVE",
"605.5 -156.5 OFFCURVE",
"640.5 -119.5 CURVE SMOOTH",
"675.5 -82.5 OFFCURVE",
"693 -30.667 OFFCURVE",
"693 36 CURVE SMOOTH",
"693 620 LINE SMOOTH",
"693 646.667 OFFCURVE",
"684.833 668.333 OFFCURVE",
"668.5 685 CURVE SMOOTH",
"652.167 701.667 OFFCURVE",
"631.333 710 OFFCURVE",
"606 710 CURVE SMOOTH"
);
}
);
width = 757;
}
);
unicode = 014A;
},
{
glyphname = O;
lastChange = "2017-12-28 15:37:02 +0000";
layers = (
{
layerId = "049F51DC-9351-481A-A5F1-2729E00BCCBB";
paths = (
{
closed = 1;
nodes = (
"470.333 -9 OFFCURVE",
"532.5 5.833 OFFCURVE",
"585.5 35.5 CURVE SMOOTH",
"638.5 65.167 OFFCURVE",
"679.333 107.167 OFFCURVE",
"708 161.5 CURVE SMOOTH",
"736.667 215.833 OFFCURVE",
"751 279.667 OFFCURVE",
"751 353 CURVE SMOOTH",
"751 426.333 OFFCURVE",
"736.833 490.167 OFFCURVE",
"708.5 544.5 CURVE SMOOTH",
"680.167 598.833 OFFCURVE",
"639.5 640.667 OFFCURVE",
"586.5 670 CURVE SMOOTH",
"533.5 699.333 OFFCURVE",
"471 714 OFFCURVE",
"399 714 CURVE SMOOTH",
"327 714 OFFCURVE",
"264.5 699.333 OFFCURVE",
"211.5 670 CURVE SMOOTH",
"158.5 640.667 OFFCURVE",
"117.667 598.833 OFFCURVE",
"89 544.5 CURVE SMOOTH",
"60.333 490.167 OFFCURVE",
"46 426.333 OFFCURVE",
"46 353 CURVE SMOOTH",
"46 279.667 OFFCURVE",
"60.333 215.833 OFFCURVE",
"89 161.5 CURVE SMOOTH",
"117.667 107.167 OFFCURVE",
"158.5 65.167 OFFCURVE",
"211.5 35.5 CURVE SMOOTH",
"264.5 5.833 OFFCURVE",
"327 -9 OFFCURVE",
"399 -9 CURVE SMOOTH"
);
},
{
closed = 1;
nodes = (
"345.667 132 OFFCURVE",
"304 150.667 OFFCURVE",
"274 188 CURVE SMOOTH",
"244 225.333 OFFCURVE",
"229 280.333 OFFCURVE",
"229 353 CURVE SMOOTH",
"229 425.667 OFFCURVE",
"244 480.5 OFFCURVE",
"274 517.5 CURVE SMOOTH",
"304 554.5 OFFCURVE",
"345.667 573 OFFCURVE",
"399 573 CURVE SMOOTH",
"451.667 573 OFFCURVE",
"493.167 554.333 OFFCURVE",
"523.5 517 CURVE SMOOTH",
"553.833 479.667 OFFCURVE",
"569 425 OFFCURVE",
"569 353 CURVE SMOOTH",
"569 281 OFFCURVE",
"554 226.167 OFFCURVE",
"524 188.5 CURVE SMOOTH",
"494 150.833 OFFCURVE",
"452.333 132 OFFCURVE",
"399 132 CURVE SMOOTH"
);
}
);
width = 796;
}
);
leftKerningGroup = C;
rightKerningGroup = D;
unicode = 004F;
},
{
glyphname = Ohorn;
lastChange = "2017-12-28 15:37:02 +0000";
layers = (
{
layerId = "049F51DC-9351-481A-A5F1-2729E00BCCBB";
paths = (
{
closed = 1;
nodes = (
"674 638.333 OFFCURVE",
"700.167 657 OFFCURVE",
"720.5 685 CURVE SMOOTH",
"740.833 713 OFFCURVE",
"751 743 OFFCURVE",
"751 775 CURVE SMOOTH",
"751 833 OFFCURVE",
"726.667 862 OFFCURVE",
"678 862 CURVE SMOOTH",
"652.667 862 OFFCURVE",
"632.833 854.5 OFFCURVE",
"618.5 839.5 CURVE SMOOTH",
"604.167 824.5 OFFCURVE",
"595.667 801 OFFCURVE",
"593 769 CURVE SMOOTH",
"591 745.667 OFFCURVE",
"584.5 729.167 OFFCURVE",
"573.5 719.5 CURVE SMOOTH",
"562.5 709.833 OFFCURVE",
"544.667 705 OFFCURVE",
"520 705 CURVE SMOOTH",
"501.333 705 OFFCURVE",
"481.333 706.667 OFFCURVE",
"460 710 CURVE",
"434.667 712.667 OFFCURVE",
"414.667 714 OFFCURVE",
"400 714 CURVE SMOOTH",
"328 714 OFFCURVE",
"265.333 699.333 OFFCURVE",
"212 670 CURVE SMOOTH",
"158.667 640.667 OFFCURVE",
"117.667 598.833 OFFCURVE",
"89 544.5 CURVE SMOOTH",
"60.333 490.167 OFFCURVE",
"46 426.333 OFFCURVE",
"46 353 CURVE SMOOTH",
"46 279.667 OFFCURVE",
"60.333 215.833 OFFCURVE",
"89 161.5 CURVE SMOOTH",
"117.667 107.167 OFFCURVE",
"158.5 65.167 OFFCURVE",
"211.5 35.5 CURVE SMOOTH",
"264.5 5.833 OFFCURVE",
"327 -9 OFFCURVE",
"399 -9 CURVE SMOOTH",
"470.333 -9 OFFCURVE",
"532.5 5.833 OFFCURVE",
"585.5 35.5 CURVE SMOOTH",
"638.5 65.167 OFFCURVE",
"679.333 107.167 OFFCURVE",
"708 161.5 CURVE SMOOTH",
"736.667 215.833 OFFCURVE",
"751 279.667 OFFCURVE",
"751 353 CURVE SMOOTH",
"751 472.333 OFFCURVE",
"714.667 564.333 OFFCURVE",
"642 629 CURVE"
);
},
{
closed = 1;
nodes = (
"345.667 132 OFFCURVE",
"304 150.667 OFFCURVE",
"274 188 CURVE SMOOTH",
"244 225.333 OFFCURVE",
"229 280.333 OFFCURVE",
"229 353 CURVE SMOOTH",
"229 425.667 OFFCURVE",
"244 480.5 OFFCURVE",
"274 517.5 CURVE SMOOTH",
"304 554.5 OFFCURVE",
"345.667 573 OFFCURVE",
"399 573 CURVE SMOOTH",
"451.667 573 OFFCURVE",
"493.167 554.333 OFFCURVE",
"523.5 517 CURVE SMOOTH",
"553.833 479.667 OFFCURVE",
"569 425 OFFCURVE",
"569 353 CURVE SMOOTH",
"569 281 OFFCURVE",
"554 226.167 OFFCURVE",
"524 188.5 CURVE SMOOTH",
"494 150.833 OFFCURVE",
"452.333 132 OFFCURVE",
"399 132 CURVE SMOOTH"
);
}
);
width = 796;
}
);
leftKerningGroup = C;
rightKerningGroup = D;
unicode = 01A0;
},
{
glyphname = Oogonek;
lastChange = "2017-12-28 15:37:02 +0000";
layers = (
{
layerId = "049F51DC-9351-481A-A5F1-2729E00BCCBB";
paths = (
{
closed = 1;
nodes = (
"590.333 27.667 OFFCURVE",
"648.5 69.167 OFFCURVE",
"689.5 129.5 CURVE SMOOTH",
"730.5 189.833 OFFCURVE",
"751 264.333 OFFCURVE",
"751 353 CURVE SMOOTH",
"751 426.333 OFFCURVE",
"736.833 490.167 OFFCURVE",
"708.5 544.5 CURVE SMOOTH",
"680.167 598.833 OFFCURVE",
"639.5 640.667 OFFCURVE",
"586.5 670 CURVE SMOOTH",
"533.5 699.333 OFFCURVE",
"471 714 OFFCURVE",
"399 714 CURVE SMOOTH",
"327 714 OFFCURVE",
"264.5 699.333 OFFCURVE",
"211.5 670 CURVE SMOOTH",
"158.5 640.667 OFFCURVE",
"117.667 598.833 OFFCURVE",
"89 544.5 CURVE SMOOTH",
"60.333 490.167 OFFCURVE",
"46 426.333 OFFCURVE",
"46 353 CURVE SMOOTH",
"46 282.333 OFFCURVE",
"59.333 220.333 OFFCURVE",
"86 167 CURVE SMOOTH",
"112.667 113.667 OFFCURVE",
"150.667 71.833 OFFCURVE",
"200 41.5 CURVE SMOOTH",
"249.333 11.167 OFFCURVE",
"307.667 -5.667 OFFCURVE",
"375 -9 CURVE",
"355.667 -30.333 OFFCURVE",
"346 -56.333 OFFCURVE",
"346 -87 CURVE SMOOTH",
"346 -119 OFFCURVE",
"358.333 -145.5 OFFCURVE",
"383 -166.5 CURVE SMOOTH",
"407.667 -187.5 OFFCURVE",
"439 -198 OFFCURVE",
"477 -198 CURVE SMOOTH",
"512.333 -198 OFFCURVE",
"543.667 -190 OFFCURVE",
"571 -174 CURVE",
"577 -170 OFFCURVE",
"581.667 -164.833 OFFCURVE",
"585 -158.5 CURVE SMOOTH",
"588.333 -152.167 OFFCURVE",
"590 -145.667 OFFCURVE",
"590 -139 CURVE SMOOTH",
"590 -129 OFFCURVE",
"587.333 -120.333 OFFCURVE",
"582 -113 CURVE SMOOTH",
"576.667 -105.667 OFFCURVE",
"569.333 -102 OFFCURVE",
"560 -102 CURVE SMOOTH",
"556.667 -102 OFFCURVE",
"554 -102.333 OFFCURVE",
"552 -103 CURVE",
"531.333 -107.667 OFFCURVE",
"515.333 -110 OFFCURVE",
"504 -110 CURVE SMOOTH",
"490 -110 OFFCURVE",
"478.5 -105.333 OFFCURVE",
"469.5 -96 CURVE SMOOTH",
"460.5 -86.667 OFFCURVE",
"456 -74.667 OFFCURVE",
"456 -60 CURVE SMOOTH",
"456 -44.667 OFFCURVE",
"461 -31.333 OFFCURVE",
"471 -20 CURVE SMOOTH",
"481 -8.667 OFFCURVE",
"495.667 -0.333 OFFCURVE",
"515 5 CURVE SMOOTH"
);
},
{
closed = 1;
nodes = (
"345.667 132 OFFCURVE",
"304 150.667 OFFCURVE",
"274 188 CURVE SMOOTH",
"244 225.333 OFFCURVE",
"229 280.333 OFFCURVE",
"229 353 CURVE SMOOTH",
"229 425.667 OFFCURVE",
"244 480.5 OFFCURVE",
"274 517.5 CURVE SMOOTH",
"304 554.5 OFFCURVE",
"345.667 573 OFFCURVE",
"399 573 CURVE SMOOTH",
"451.667 573 OFFCURVE",
"493.167 554.333 OFFCURVE",
"523.5 517 CURVE SMOOTH",
"553.833 479.667 OFFCURVE",
"569 425 OFFCURVE",
"569 353 CURVE SMOOTH",
"569 281 OFFCURVE",
"554 226.167 OFFCURVE",
"524 188.5 CURVE SMOOTH",
"494 150.833 OFFCURVE",
"452.333 132 OFFCURVE",
"399 132 CURVE SMOOTH"
);
}
);
width = 796;
}
);
leftKerningGroup = C;
note = uni01EA;
rightKerningGroup = D;
unicode = 01EA;
},
{
glyphname = Oslash;
lastChange = "2017-12-28 15:37:02 +0000";
layers = (
{
layerId = "049F51DC-9351-481A-A5F1-2729E00BCCBB";
paths = (
{
closed = 1;
nodes = (
"650 653 LINE SMOOTH",
"660 671 OFFCURVE",
"665 687.667 OFFCURVE",
"665 703 CURVE SMOOTH",
"665 721.667 OFFCURVE",
"658.833 737 OFFCURVE",
"646.5 749 CURVE SMOOTH",
"634.167 761 OFFCURVE",
"619.667 767 OFFCURVE",
"603 767 CURVE SMOOTH",
"590.333 767 OFFCURVE",
"578 763.167 OFFCURVE",
"566 755.5 CURVE SMOOTH",
"554 747.833 OFFCURVE",
"543.333 736 OFFCURVE",
"534 720 CURVE SMOOTH",
"521 697 LINE",
"483 708.333 OFFCURVE",
"442.333 714 OFFCURVE",
"399 714 CURVE SMOOTH",
"327 714 OFFCURVE",
"264.5 699.333 OFFCURVE",
"211.5 670 CURVE SMOOTH",
"158.5 640.667 OFFCURVE",
"117.667 598.833 OFFCURVE",
"89 544.5 CURVE SMOOTH",
"60.333 490.167 OFFCURVE",
"46 426.333 OFFCURVE",
"46 353 CURVE SMOOTH",
"46 293 OFFCURVE",
"55.667 239.333 OFFCURVE",
"75 192 CURVE SMOOTH",
"94.333 144.667 OFFCURVE",
"122 105 OFFCURVE",
"158 73 CURVE",
"146 52 LINE SMOOTH",
"136 34 OFFCURVE",
"131 17.333 OFFCURVE",
"131 2 CURVE SMOOTH",
"131 -16.667 OFFCURVE",
"137.167 -32 OFFCURVE",
"149.5 -44 CURVE SMOOTH",
"161.833 -56 OFFCURVE",
"176.333 -62 OFFCURVE",
"193 -62 CURVE SMOOTH",
"205.667 -62 OFFCURVE",
"218 -58.167 OFFCURVE",
"230 -50.5 CURVE SMOOTH",
"242 -42.833 OFFCURVE",
"252.667 -31 OFFCURVE",
"262 -15 CURVE SMOOTH",
"276 8 LINE",
"314 -3.333 OFFCURVE",
"355 -9 OFFCURVE",
"399 -9 CURVE SMOOTH",
"470.333 -9 OFFCURVE",
"532.5 5.833 OFFCURVE",
"585.5 35.5 CURVE SMOOTH",
"638.5 65.167 OFFCURVE",
"679.333 107.167 OFFCURVE",
"708 161.5 CURVE SMOOTH",
"736.667 215.833 OFFCURVE",
"751 279.667 OFFCURVE",
"751 353 CURVE SMOOTH",
"751 413 OFFCURVE",
"741.333 466.833 OFFCURVE",
"722 514.5 CURVE SMOOTH",
"702.667 562.167 OFFCURVE",
"675 601.667 OFFCURVE",
"639 633 CURVE"
);
},
{
closed = 1;
nodes = (
"229 425.667 OFFCURVE",
"244 480.5 OFFCURVE",
"274 517.5 CURVE SMOOTH",
"304 554.5 OFFCURVE",
"345.667 573 OFFCURVE",
"399 573 CURVE SMOOTH",
"415.667 573 OFFCURVE",
"431 571 OFFCURVE",
"445 567 CURVE",
"250 231 LINE",
"236 263 OFFCURVE",
"229 303.667 OFFCURVE",
"229 353 CURVE SMOOTH"
);
},
{
closed = 1;
nodes = (
"382.333 132 OFFCURVE",
"366.333 134 OFFCURVE",
"351 138 CURVE",
"547 476 LINE",
"561.667 442.667 OFFCURVE",
"569 401.667 OFFCURVE",
"569 353 CURVE SMOOTH",
"569 281 OFFCURVE",
"554 226.167 OFFCURVE",
"524 188.5 CURVE SMOOTH",
"494 150.833 OFFCURVE",
"452.333 132 OFFCURVE",
"399 132 CURVE SMOOTH"
);
}
);
width = 796;
}
);
leftKerningGroup = C;
rightKerningGroup = D;
unicode = 00D8;
},
{
glyphname = OE;
lastChange = "2017-12-28 15:37:02 +0000";
layers = (
{
layerId = "049F51DC-9351-481A-A5F1-2729E00BCCBB";
paths = (
{
closed = 1;
nodes = (
"943 0 LINE SMOOTH",
"971 0 OFFCURVE",
"992.333 6 OFFCURVE",
"1007 18 CURVE SMOOTH",
"1021.667 30 OFFCURVE",
"1029 47.333 OFFCURVE",
"1029 70 CURVE SMOOTH",
"1029 93.333 OFFCURVE",
"1021.5 111.167 OFFCURVE",
"1006.5 123.5 CURVE SMOOTH",
"991.5 135.833 OFFCURVE",
"969.667 142 OFFCURVE",
"941 142 CURVE SMOOTH",
"688 142 LINE",
"688 288 LINE",
"921 288 LINE SMOOTH",
"949.667 288 OFFCURVE",
"971.5 294 OFFCURVE",
"986.5 306 CURVE SMOOTH",
"1001.5 318 OFFCURVE",
"1009 335.333 OFFCURVE",
"1009 358 CURVE SMOOTH",
"1009 405.333 OFFCURVE",
"979.667 429 OFFCURVE",
"921 429 CURVE SMOOTH",
"688 429 LINE",
"688 563 LINE",
"941 563 LINE SMOOTH",
"969.667 563 OFFCURVE",
"991.5 569.167 OFFCURVE",
"1006.5 581.5 CURVE SMOOTH",
"1021.5 593.833 OFFCURVE",
"1029 611.667 OFFCURVE",
"1029 635 CURVE SMOOTH",
"1029 657.667 OFFCURVE",
"1021.833 675 OFFCURVE",
"1007.5 687 CURVE SMOOTH",
"993.167 699 OFFCURVE",
"972 705 OFFCURVE",
"944 705 CURVE SMOOTH",
"422 705 LINE SMOOTH",
"344 705 OFFCURVE",
"276.833 690.833 OFFCURVE",
"220.5 662.5 CURVE SMOOTH",
"164.167 634.167 OFFCURVE",
"121 593.667 OFFCURVE",
"91 541 CURVE SMOOTH",
"61 488.333 OFFCURVE",
"46 425.667 OFFCURVE",
"46 353 CURVE SMOOTH",
"46 279.667 OFFCURVE",
"60.833 216.5 OFFCURVE",
"90.5 163.5 CURVE SMOOTH",
"120.167 110.5 OFFCURVE",
"163.167 70 OFFCURVE",
"219.5 42 CURVE SMOOTH",
"275.833 14 OFFCURVE",
"343.333 0 OFFCURVE",
"422 0 CURVE SMOOTH"
);
},
{
closed = 1;
nodes = (
"297.333 142 OFFCURVE",
"229 212.333 OFFCURVE",
"229 353 CURVE SMOOTH",
"229 423.667 OFFCURVE",
"246.5 476.333 OFFCURVE",
"281.5 511 CURVE SMOOTH",
"316.5 545.667 OFFCURVE",
"367.333 563 OFFCURVE",
"434 563 CURVE SMOOTH",
"509 563 LINE",
"509 142 LINE",
"434 142 LINE SMOOTH"
);
}
);
width = 1044;
}
);
leftKerningGroup = C;
rightKerningGroup = AE;
unicode = 0152;
},
{
glyphname = P;
lastChange = "2017-12-28 15:37:02 +0000";
layers = (
{
layerId = "049F51DC-9351-481A-A5F1-2729E00BCCBB";
paths = (
{
closed = 1;
nodes = (
"183.667 -6 OFFCURVE",
"206.333 2.167 OFFCURVE",
"223 18.5 CURVE SMOOTH",
"239.667 34.833 OFFCURVE",
"248 57 OFFCURVE",
"248 85 CURVE SMOOTH",
"248 255 LINE",
"405 255 LINE SMOOTH",
"482.333 255 OFFCURVE",
"542.833 275 OFFCURVE",
"586.5 315 CURVE SMOOTH",
"630.167 355 OFFCURVE",
"652 410 OFFCURVE",
"652 480 CURVE SMOOTH",
"652 550.667 OFFCURVE",
"630.333 605.833 OFFCURVE",
"587 645.5 CURVE SMOOTH",
"543.667 685.167 OFFCURVE",
"483 705 OFFCURVE",
"405 705 CURVE SMOOTH",
"149 705 LINE SMOOTH",
"121.667 705 OFFCURVE",
"100.667 697.667 OFFCURVE",
"86 683 CURVE SMOOTH",
"71.333 668.333 OFFCURVE",
"64 647.333 OFFCURVE",
"64 620 CURVE SMOOTH",
"64 85 LINE SMOOTH",
"64 57 OFFCURVE",
"72.167 34.833 OFFCURVE",
"88.5 18.5 CURVE SMOOTH",
"104.833 2.167 OFFCURVE",
"127 -6 OFFCURVE",
"155 -6 CURVE SMOOTH"
);
},
{
closed = 1;
nodes = (
"248 566 LINE",
"380 566 LINE SMOOTH",
"446.667 566 OFFCURVE",
"480 537 OFFCURVE",
"480 479 CURVE SMOOTH",
"480 449.667 OFFCURVE",
"471.833 428 OFFCURVE",
"455.5 414 CURVE SMOOTH",
"439.167 400 OFFCURVE",
"414 393 OFFCURVE",
"380 393 CURVE SMOOTH",
"248 393 LINE"
);
}
);
width = 677;
}
);
rightKerningGroup = P;
unicode = 0050;
},
{
glyphname = Thorn;
lastChange = "2017-12-28 15:37:02 +0000";
layers = (
{
layerId = "049F51DC-9351-481A-A5F1-2729E00BCCBB";
paths = (
{
closed = 1;
nodes = (
"244 568 LINE",
"244 620 LINE SMOOTH",
"244 647.333 OFFCURVE",
"235.833 669.167 OFFCURVE",
"219.5 685.5 CURVE SMOOTH",
"203.167 701.833 OFFCURVE",
"181.333 710 OFFCURVE",
"154 710 CURVE SMOOTH",
"126.667 710 OFFCURVE",
"104.833 701.833 OFFCURVE",
"88.5 685.5 CURVE SMOOTH",
"72.167 669.167 OFFCURVE",
"64 647.333 OFFCURVE",
"64 620 CURVE SMOOTH",
"64 85 LINE SMOOTH",
"64 57 OFFCURVE",
"72.167 34.833 OFFCURVE",
"88.5 18.5 CURVE SMOOTH",
"104.833 2.167 OFFCURVE",
"126.667 -6 OFFCURVE",
"154 -6 CURVE SMOOTH",
"181.333 -6 OFFCURVE",
"203.167 2.333 OFFCURVE",
"219.5 19 CURVE SMOOTH",
"235.833 35.667 OFFCURVE",
"244 57.667 OFFCURVE",
"244 85 CURVE SMOOTH",
"244 148 LINE",
"404 148 LINE SMOOTH",
"480.667 148 OFFCURVE",
"541.167 166.833 OFFCURVE",
"585.5 204.5 CURVE SMOOTH",
"629.833 242.167 OFFCURVE",
"652 293.333 OFFCURVE",
"652 358 CURVE SMOOTH",
"652 423.333 OFFCURVE",
"630 474.667 OFFCURVE",
"586 512 CURVE SMOOTH",
"542 549.333 OFFCURVE",
"481.333 568 OFFCURVE",
"404 568 CURVE SMOOTH"
);
},
{
closed = 1;
nodes = (
"244 287 LINE",
"244 429 LINE",
"372 429 LINE SMOOTH",
"409.333 429 OFFCURVE",
"436.667 423.333 OFFCURVE",
"454 412 CURVE SMOOTH",
"471.333 400.667 OFFCURVE",
"480 382.667 OFFCURVE",
"480 358 CURVE SMOOTH",
"480 332.667 OFFCURVE",
"471.5 314.5 OFFCURVE",
"454.5 303.5 CURVE SMOOTH",
"437.5 292.5 OFFCURVE",
"410 287 OFFCURVE",
"372 287 CURVE SMOOTH"
);
}
);
width = 679;
}
);
rightKerningGroup = Thorn;
unicode = 00DE;
},
{
glyphname = Q;
lastChange = "2017-12-28 15:37:02 +0000";
layers = (
{
layerId = "049F51DC-9351-481A-A5F1-2729E00BCCBB";
paths = (
{
closed = 1;
nodes = (
"648 5 OFFCURVE",
"621.333 25.333 OFFCURVE",
"586 36 CURVE",
"639.333 65.333 OFFCURVE",
"680.167 107.333 OFFCURVE",
"708.5 162 CURVE SMOOTH",
"736.833 216.667 OFFCURVE",
"751 280.333 OFFCURVE",
"751 353 CURVE SMOOTH",
"751 426.333 OFFCURVE",
"736.833 490.167 OFFCURVE",
"708.5 544.5 CURVE SMOOTH",
"680.167 598.833 OFFCURVE",
"639.5 640.667 OFFCURVE",
"586.5 670 CURVE SMOOTH",
"533.5 699.333 OFFCURVE",
"471 714 OFFCURVE",
"399 714 CURVE SMOOTH",
"327 714 OFFCURVE",
"264.5 699.333 OFFCURVE",
"211.5 670 CURVE SMOOTH",
"158.5 640.667 OFFCURVE",
"117.667 598.833 OFFCURVE",
"89 544.5 CURVE SMOOTH",
"60.333 490.167 OFFCURVE",
"46 426.333 OFFCURVE",
"46 353 CURVE SMOOTH",
"46 279.667 OFFCURVE",
"60.333 215.833 OFFCURVE",
"89 161.5 CURVE SMOOTH",
"117.667 107.167 OFFCURVE",
"158.5 65.167 OFFCURVE",
"211.5 35.5 CURVE SMOOTH",
"264.5 5.833 OFFCURVE",
"327 -9 OFFCURVE",
"399 -9 CURVE SMOOTH",
"420.333 -9 OFFCURVE",
"436.667 -11.5 OFFCURVE",
"448 -16.5 CURVE SMOOTH",
"459.333 -21.5 OFFCURVE",
"468.333 -29.667 OFFCURVE",
"475 -41 CURVE SMOOTH",
"535 -142 LINE SMOOTH",
"544.333 -156.667 OFFCURVE",
"556 -167.833 OFFCURVE",
"570 -175.5 CURVE SMOOTH",
"584 -183.167 OFFCURVE",
"599 -187 OFFCURVE",
"615 -187 CURVE SMOOTH",
"638.333 -187 OFFCURVE",
"659 -179.833 OFFCURVE",
"677 -165.5 CURVE SMOOTH",
"695 -151.167 OFFCURVE",
"704 -133 OFFCURVE",
"704 -111 CURVE SMOOTH",
"704 -95 OFFCURVE",
"698.333 -78 OFFCURVE",
"687 -60 CURVE SMOOTH",
"666 -25 LINE SMOOTH"
);
},
{
closed = 1;
nodes = (
"345.667 132 OFFCURVE",
"304 150.667 OFFCURVE",
"274 188 CURVE SMOOTH",
"244 225.333 OFFCURVE",
"229 280.333 OFFCURVE",
"229 353 CURVE SMOOTH",
"229 425.667 OFFCURVE",
"244 480.5 OFFCURVE",
"274 517.5 CURVE SMOOTH",
"304 554.5 OFFCURVE",
"345.667 573 OFFCURVE",
"399 573 CURVE SMOOTH",
"451.667 573 OFFCURVE",
"493.167 554.333 OFFCURVE",
"523.5 517 CURVE SMOOTH",
"553.833 479.667 OFFCURVE",
"569 425 OFFCURVE",
"569 353 CURVE SMOOTH",
"569 281 OFFCURVE",
"554 226.167 OFFCURVE",
"524 188.5 CURVE SMOOTH",
"494 150.833 OFFCURVE",
"452.333 132 OFFCURVE",
"399 132 CURVE SMOOTH"
);
}
);
width = 796;
}
);
leftKerningGroup = C;
rightKerningGroup = D;
unicode = 0051;
},
{
glyphname = R;
lastChange = "2017-12-28 15:37:02 +0000";
layers = (
{
layerId = "049F51DC-9351-481A-A5F1-2729E00BCCBB";
paths = (
{
closed = 1;
nodes = (
"595 206 LINE SMOOTH",
"579 228.667 OFFCURVE",
"562.833 245.667 OFFCURVE",
"546.5 257 CURVE SMOOTH",
"530.167 268.333 OFFCURVE",
"511 275.667 OFFCURVE",
"489 279 CURVE",
"542.333 291.667 OFFCURVE",
"583.667 316.5 OFFCURVE",
"613 353.5 CURVE SMOOTH",
"642.333 390.5 OFFCURVE",
"657 435.667 OFFCURVE",
"657 489 CURVE SMOOTH",
"657 559 OFFCURVE",
"635.5 612.5 OFFCURVE",
"592.5 649.5 CURVE SMOOTH",
"549.5 686.5 OFFCURVE",
"485.333 705 OFFCURVE",
"400 705 CURVE SMOOTH",
"149 705 LINE SMOOTH",
"121.667 705 OFFCURVE",
"100.667 697.667 OFFCURVE",
"86 683 CURVE SMOOTH",
"71.333 668.333 OFFCURVE",
"64 647.333 OFFCURVE",
"64 620 CURVE SMOOTH",
"64 85 LINE SMOOTH",
"64 57 OFFCURVE",
"72.167 34.833 OFFCURVE",
"88.5 18.5 CURVE SMOOTH",
"104.833 2.167 OFFCURVE",
"127 -6 OFFCURVE",
"155 -6 CURVE SMOOTH",
"183 -6 OFFCURVE",
"205 2.167 OFFCURVE",
"221 18.5 CURVE SMOOTH",
"237 34.833 OFFCURVE",
"245 57 OFFCURVE",
"245 85 CURVE SMOOTH",
"245 264 LINE",
"310 264 LINE SMOOTH",
"324 264 OFFCURVE",
"336.167 260.833 OFFCURVE",
"346.5 254.5 CURVE SMOOTH",
"356.833 248.167 OFFCURVE",
"366.667 238.333 OFFCURVE",
"376 225 CURVE SMOOTH",
"506 35 LINE SMOOTH",
"516 20.333 OFFCURVE",
"528 9.333 OFFCURVE",
"542 2 CURVE SMOOTH",
"556 -5.333 OFFCURVE",
"571 -9 OFFCURVE",
"587 -9 CURVE SMOOTH",
"610.333 -9 OFFCURVE",
"630.833 -1.833 OFFCURVE",
"648.5 12.5 CURVE SMOOTH",
"666.167 26.833 OFFCURVE",
"675 44.667 OFFCURVE",
"675 66 CURVE SMOOTH",
"675 82 OFFCURVE",
"669 99 OFFCURVE",
"657 117 CURVE SMOOTH"
);
},
{
closed = 1;
nodes = (
"243 402 LINE",
"243 566 LINE",
"371 566 LINE SMOOTH",
"411.667 566 OFFCURVE",
"440.833 559.5 OFFCURVE",
"458.5 546.5 CURVE SMOOTH",
"476.167 533.5 OFFCURVE",
"485 512.333 OFFCURVE",
"485 483 CURVE SMOOTH",
"485 454.333 OFFCURVE",
"476.167 433.667 OFFCURVE",
"458.5 421 CURVE SMOOTH",
"440.833 408.333 OFFCURVE",
"411.667 402 OFFCURVE",
"371 402 CURVE SMOOTH"
);
}
);
width = 707;
}
);
rightKerningGroup = R;
unicode = 0052;
},
{
glyphname = Rstroke;
lastChange = "2017-12-28 16:33:58 +0000";
layers = (
{
layerId = "049F51DC-9351-481A-A5F1-2729E00BCCBB";
paths = (
{
closed = 1;
nodes = (
"361 411 LINE",
"361 575 LINE",
"489 575 LINE",
"530 575 OFFCURVE",
"559 569 OFFCURVE",
"577 556 CURVE",
"594 543 OFFCURVE",
"603 521 OFFCURVE",
"603 492 CURVE",
"603 463 OFFCURVE",
"594 443 OFFCURVE",
"577 430 CURVE",
"559 417 OFFCURVE",
"530 411 OFFCURVE",
"489 411 CURVE"
);
},
{
closed = 1;
nodes = (
"50 304 OFFCURVE",
"81 273 OFFCURVE",
"119 273 CURVE SMOOTH",
"182 273 LINE",
"182 94 LINE SMOOTH",
"182 66 OFFCURVE",
"190 44 OFFCURVE",
"207 28 CURVE",
"223 11 OFFCURVE",
"245 3 OFFCURVE",
"273 3 CURVE SMOOTH",
"301 3 OFFCURVE",
"323 11 OFFCURVE",
"339 28 CURVE SMOOTH",
"355 44 OFFCURVE",
"363 66 OFFCURVE",
"363 94 CURVE SMOOTH",
"363 273 LINE",
"428 273 LINE SMOOTH",
"442 273 OFFCURVE",
"454 270 OFFCURVE",
"465 264 CURVE",
"475 257 OFFCURVE",
"485 247 OFFCURVE",
"494 234 CURVE SMOOTH",
"624 44 LINE SMOOTH",
"634 29 OFFCURVE",
"646 18 OFFCURVE",
"660 11 CURVE SMOOTH",
"674 4 OFFCURVE",
"689 0 OFFCURVE",
"705 0 CURVE SMOOTH",
"728 0 OFFCURVE",
"749 7 OFFCURVE",
"767 22 CURVE SMOOTH",
"784 36 OFFCURVE",
"793 54 OFFCURVE",
"793 75 CURVE SMOOTH",
"793 91 OFFCURVE",
"787 108 OFFCURVE",
"775 126 CURVE SMOOTH",
"713 215 LINE SMOOTH",
"697 238 OFFCURVE",
"681 255 OFFCURVE",
"665 266 CURVE SMOOTH",
"648 277 OFFCURVE",
"629 285 OFFCURVE",
"607 288 CURVE",
"660 301 OFFCURVE",
"702 326 OFFCURVE",
"731 363 CURVE SMOOTH",
"760 400 OFFCURVE",
"775 445 OFFCURVE",
"775 498 CURVE SMOOTH",
"775 568 OFFCURVE",
"754 622 OFFCURVE",
"711 659 CURVE SMOOTH",
"668 696 OFFCURVE",
"603 714 OFFCURVE",
"518 714 CURVE SMOOTH",
"267 714 LINE SMOOTH",
"240 714 OFFCURVE",
"219 707 OFFCURVE",
"204 692 CURVE SMOOTH",
"189 677 OFFCURVE",
"182 656 OFFCURVE",
"182 629 CURVE SMOOTH",
"182 411 LINE",
"119 411 LINE SMOOTH",
"81 411 OFFCURVE",
"50 380 OFFCURVE",
"50 342 CURVE SMOOTH"
);
}
);
width = 825;
}
);
unicode = 024C;
},
{
glyphname = S;
lastChange = "2017-12-28 15:37:02 +0000";
layers = (
{
layerId = "049F51DC-9351-481A-A5F1-2729E00BCCBB";
paths = (
{
closed = 1;
nodes = (
"387.667 -9 OFFCURVE",
"439.167 0.167 OFFCURVE",
"483.5 18.5 CURVE SMOOTH",
"527.833 36.833 OFFCURVE",
"562.333 62.833 OFFCURVE",
"587 96.5 CURVE SMOOTH",
"611.667 130.167 OFFCURVE",
"624 169 OFFCURVE",
"624 213 CURVE SMOOTH",
"624 248.333 OFFCURVE",
"616.333 279 OFFCURVE",
"601 305 CURVE SMOOTH",
"585.667 331 OFFCURVE",
"559.667 353.833 OFFCURVE",
"523 373.5 CURVE SMOOTH",
"486.333 393.167 OFFCURVE",
"436 410 OFFCURVE",
"372 424 CURVE SMOOTH",
"332.667 432 OFFCURVE",
"303 439.833 OFFCURVE",
"283 447.5 CURVE SMOOTH",
"263 455.167 OFFCURVE",
"249.333 463 OFFCURVE",
"242 471 CURVE SMOOTH",
"234.667 479 OFFCURVE",
"231 489.333 OFFCURVE",
"231 502 CURVE SMOOTH",
"231 523.333 OFFCURVE",
"241.333 540.5 OFFCURVE",
"262 553.5 CURVE SMOOTH",
"282.667 566.5 OFFCURVE",
"310 573 OFFCURVE",
"344 573 CURVE SMOOTH",
"368.667 573 OFFCURVE",
"391.5 570.5 OFFCURVE",
"412.5 565.5 CURVE SMOOTH",
"433.5 560.5 OFFCURVE",
"451.833 553.833 OFFCURVE",
"467.5 545.5 CURVE SMOOTH",
"483.167 537.167 OFFCURVE",
"492.667 532 OFFCURVE",
"496 530 CURVE SMOOTH",
"509.333 522 OFFCURVE",
"519.667 516.833 OFFCURVE",
"527 514.5 CURVE SMOOTH",
"534.333 512.167 OFFCURVE",
"542.333 511 OFFCURVE",
"551 511 CURVE SMOOTH",
"567 511 OFFCURVE",
"580.833 518.333 OFFCURVE",
"592.5 533 CURVE SMOOTH",
"604.167 547.667 OFFCURVE",
"610 565 OFFCURVE",
"610 585 CURVE SMOOTH",
"610 599 OFFCURVE",
"607.5 610.833 OFFCURVE",
"602.5 620.5 CURVE SMOOTH",
"597.5 630.167 OFFCURVE",
"589 639.333 OFFCURVE",
"577 648 CURVE SMOOTH",
"545.667 670.667 OFFCURVE",
"511 687.333 OFFCURVE",
"473 698 CURVE SMOOTH",
"435 708.667 OFFCURVE",
"391.667 714 OFFCURVE",
"343 714 CURVE SMOOTH",
"287.667 714 OFFCURVE",
"237.833 704.167 OFFCURVE",
"193.5 684.5 CURVE SMOOTH",
"149.167 664.833 OFFCURVE",
"114.333 637.667 OFFCURVE",
"89 603 CURVE SMOOTH",
"63.667 568.333 OFFCURVE",
"51 529.667 OFFCURVE",
"51 487 CURVE SMOOTH",
"51 449.667 OFFCURVE",
"58.5 417.833 OFFCURVE",
"73.5 391.5 CURVE SMOOTH",
"88.5 365.167 OFFCURVE",
"114.667 342.333 OFFCURVE",
"152 323 CURVE SMOOTH",
"189.333 303.667 OFFCURVE",
"241 287 OFFCURVE",
"307 273 CURVE SMOOTH",
"360.333 262.333 OFFCURVE",
"396.5 251.5 OFFCURVE",
"415.5 240.5 CURVE SMOOTH",
"434.5 229.5 OFFCURVE",
"444 216.333 OFFCURVE",
"444 201 CURVE SMOOTH",
"444 178.333 OFFCURVE",
"433.833 161.167 OFFCURVE",
"413.5 149.5 CURVE SMOOTH",
"393.167 137.833 OFFCURVE",
"363.333 132 OFFCURVE",
"324 132 CURVE SMOOTH",
"290 132 OFFCURVE",
"259.5 135.333 OFFCURVE",
"232.5 142 CURVE SMOOTH",
"205.5 148.667 OFFCURVE",
"178.333 159.667 OFFCURVE",
"151 175 CURVE",
"139 182.333 OFFCURVE",
"129 187.333 OFFCURVE",
"121 190 CURVE SMOOTH",
"113 192.667 OFFCURVE",
"104.667 194 OFFCURVE",
"96 194 CURVE SMOOTH",
"80 194 OFFCURVE",
"66 186.667 OFFCURVE",
"54 172 CURVE SMOOTH",
"42 157.333 OFFCURVE",
"36 140 OFFCURVE",
"36 120 CURVE SMOOTH",
"36 105.333 OFFCURVE",
"38.5 93.333 OFFCURVE",
"43.5 84 CURVE SMOOTH",
"48.5 74.667 OFFCURVE",
"56.667 65.667 OFFCURVE",
"68 57 CURVE",
"97.333 36.333 OFFCURVE",
"134.833 20.167 OFFCURVE",
"180.5 8.5 CURVE SMOOTH",
"226.167 -3.167 OFFCURVE",
"275.667 -9 OFFCURVE",
"329 -9 CURVE SMOOTH"
);
}
);
width = 664;
}
);
leftKerningGroup = S;
rightKerningGroup = S;
unicode = 0053;
},
{
glyphname = Scedilla;
lastChange = "2017-12-28 15:37:02 +0000";
layers = (
{
layerId = "049F51DC-9351-481A-A5F1-2729E00BCCBB";
paths = (
{
closed = 1;
nodes = (
"624 248.333 OFFCURVE",
"616.333 279 OFFCURVE",
"601 305 CURVE SMOOTH",
"585.667 331 OFFCURVE",
"559.667 353.833 OFFCURVE",
"523 373.5 CURVE SMOOTH",
"486.333 393.167 OFFCURVE",
"436 410 OFFCURVE",
"372 424 CURVE SMOOTH",
"332.667 432 OFFCURVE",
"303 439.833 OFFCURVE",
"283 447.5 CURVE SMOOTH",
"263 455.167 OFFCURVE",
"249.333 463 OFFCURVE",
"242 471 CURVE SMOOTH",
"234.667 479 OFFCURVE",
"231 489.333 OFFCURVE",
"231 502 CURVE SMOOTH",
"231 523.333 OFFCURVE",
"241.333 540.5 OFFCURVE",
"262 553.5 CURVE SMOOTH",
"282.667 566.5 OFFCURVE",
"310 573 OFFCURVE",
"344 573 CURVE SMOOTH",
"368.667 573 OFFCURVE",
"391.5 570.5 OFFCURVE",
"412.5 565.5 CURVE SMOOTH",
"433.5 560.5 OFFCURVE",
"451.833 553.833 OFFCURVE",
"467.5 545.5 CURVE SMOOTH",
"483.167 537.167 OFFCURVE",
"492.667 532 OFFCURVE",
"496 530 CURVE SMOOTH",
"509.333 522 OFFCURVE",
"519.667 516.833 OFFCURVE",
"527 514.5 CURVE SMOOTH",
"534.333 512.167 OFFCURVE",
"542.333 511 OFFCURVE",
"551 511 CURVE SMOOTH",
"567 511 OFFCURVE",
"580.833 518.333 OFFCURVE",
"592.5 533 CURVE SMOOTH",
"604.167 547.667 OFFCURVE",
"610 565 OFFCURVE",
"610 585 CURVE SMOOTH",
"610 599 OFFCURVE",
"607.5 610.833 OFFCURVE",
"602.5 620.5 CURVE SMOOTH",
"597.5 630.167 OFFCURVE",
"589 639.333 OFFCURVE",
"577 648 CURVE SMOOTH",
"545.667 670.667 OFFCURVE",
"511 687.333 OFFCURVE",
"473 698 CURVE SMOOTH",
"435 708.667 OFFCURVE",
"391.667 714 OFFCURVE",
"343 714 CURVE SMOOTH",
"287.667 714 OFFCURVE",
"237.833 704.167 OFFCURVE",
"193.5 684.5 CURVE SMOOTH",
"149.167 664.833 OFFCURVE",
"114.333 637.667 OFFCURVE",
"89 603 CURVE SMOOTH",
"63.667 568.333 OFFCURVE",
"51 529.667 OFFCURVE",
"51 487 CURVE SMOOTH",
"51 449.667 OFFCURVE",
"58.5 417.833 OFFCURVE",
"73.5 391.5 CURVE SMOOTH",
"88.5 365.167 OFFCURVE",
"114.667 342.333 OFFCURVE",
"152 323 CURVE SMOOTH",
"189.333 303.667 OFFCURVE",
"241 287 OFFCURVE",
"307 273 CURVE SMOOTH",
"360.333 262.333 OFFCURVE",
"396.5 251.5 OFFCURVE",
"415.5 240.5 CURVE SMOOTH",
"434.5 229.5 OFFCURVE",
"444 216.333 OFFCURVE",
"444 201 CURVE SMOOTH",
"444 178.333 OFFCURVE",
"433.833 161.167 OFFCURVE",
"413.5 149.5 CURVE SMOOTH",
"393.167 137.833 OFFCURVE",
"363.333 132 OFFCURVE",
"324 132 CURVE SMOOTH",
"290 132 OFFCURVE",
"259.5 135.333 OFFCURVE",
"232.5 142 CURVE SMOOTH",
"205.5 148.667 OFFCURVE",
"178.333 159.667 OFFCURVE",
"151 175 CURVE",
"139 182.333 OFFCURVE",
"129 187.333 OFFCURVE",
"121 190 CURVE SMOOTH",
"113 192.667 OFFCURVE",
"104.667 194 OFFCURVE",
"96 194 CURVE SMOOTH",
"80 194 OFFCURVE",
"66 186.667 OFFCURVE",
"54 172 CURVE SMOOTH",
"42 157.333 OFFCURVE",
"36 140 OFFCURVE",
"36 120 CURVE SMOOTH",
"36 105.333 OFFCURVE",
"38.5 93.333 OFFCURVE",
"43.5 84 CURVE SMOOTH",
"48.5 74.667 OFFCURVE",
"56.667 65.667 OFFCURVE",
"68 57 CURVE SMOOTH",
"92 39.667 OFFCURVE",
"121.667 25.5 OFFCURVE",
"157 14.5 CURVE SMOOTH",
"192.333 3.5 OFFCURVE",
"231 -3.667 OFFCURVE",
"273 -7 CURVE",
"264 -76 LINE",
"262.667 -82.667 OFFCURVE",
"264 -87.833 OFFCURVE",
"268 -91.5 CURVE SMOOTH",
"272 -95.167 OFFCURVE",
"277.333 -97 OFFCURVE",
"284 -97 CURVE SMOOTH",
"288.667 -97 OFFCURVE",
"295.333 -96.167 OFFCURVE",
"304 -94.5 CURVE SMOOTH",
"312.667 -92.833 OFFCURVE",
"319.667 -92 OFFCURVE",
"325 -92 CURVE SMOOTH",
"339.667 -92 OFFCURVE",
"347 -97.667 OFFCURVE",
"347 -109 CURVE SMOOTH",
"347 -123.667 OFFCURVE",
"333 -131 OFFCURVE",
"305 -131 CURVE SMOOTH",
"294.333 -131 OFFCURVE",
"275.667 -128.333 OFFCURVE",
"249 -123 CURVE",
"240.333 -120.333 OFFCURVE",
"232.833 -122.833 OFFCURVE",
"226.5 -130.5 CURVE SMOOTH",
"220.167 -138.167 OFFCURVE",
"217 -147 OFFCURVE",
"217 -157 CURVE SMOOTH",
"217 -173.667 OFFCURVE",
"224.333 -184.333 OFFCURVE",
"239 -189 CURVE SMOOTH",
"257 -195 OFFCURVE",
"281 -198 OFFCURVE",
"311 -198 CURVE SMOOTH",
"356.333 -198 OFFCURVE",
"391.167 -189.833 OFFCURVE",
"415.5 -173.5 CURVE SMOOTH",
"439.833 -157.167 OFFCURVE",
"452 -135.667 OFFCURVE",
"452 -109 CURVE SMOOTH",
"452 -88.333 OFFCURVE",
"444.833 -71.667 OFFCURVE",
"430.5 -59 CURVE SMOOTH",
"416.167 -46.333 OFFCURVE",
"398.667 -40 OFFCURVE",
"378 -40 CURVE SMOOTH",
"369.333 -40 OFFCURVE",
"362.333 -40.333 OFFCURVE",
"357 -41 CURVE",
"363 -8 LINE",
"415 -4.667 OFFCURVE",
"460.833 6.667 OFFCURVE",
"500.5 26 CURVE SMOOTH",
"540.167 45.333 OFFCURVE",
"570.667 71.167 OFFCURVE",
"592 103.5 CURVE SMOOTH",
"613.333 135.833 OFFCURVE",
"624 172.333 OFFCURVE",
"624 213 CURVE SMOOTH"
);
}
);
width = 664;
}
);
leftKerningGroup = S;
rightKerningGroup = S;
unicode = 015E;
},
{
glyphname = Germandbls;
lastChange = "2017-12-28 15:37:02 +0000";
layers = (
{
layerId = "049F51DC-9351-481A-A5F1-2729E00BCCBB";
paths = (
{
closed = 1;
nodes = (
"571.667 381.333 OFFCURVE",
"594.167 400.667 OFFCURVE",
"610.5 426 CURVE SMOOTH",
"626.833 451.333 OFFCURVE",
"635 479.667 OFFCURVE",
"635 511 CURVE SMOOTH",
"635 551.667 OFFCURVE",
"624.333 587.167 OFFCURVE",
"603 617.5 CURVE SMOOTH",
"581.667 647.833 OFFCURVE",
"551.333 671.167 OFFCURVE",
"512 687.5 CURVE SMOOTH",
"472.667 703.833 OFFCURVE",
"426.667 712 OFFCURVE",
"374 712 CURVE SMOOTH",
"276.667 712 OFFCURVE",
"200.667 687.667 OFFCURVE",
"146 639 CURVE SMOOTH",
"91.333 590.333 OFFCURVE",
"64 522.667 OFFCURVE",
"64 436 CURVE SMOOTH",
"64 83 LINE SMOOTH",
"64 55.667 OFFCURVE",
"72.167 33.833 OFFCURVE",
"88.5 17.5 CURVE SMOOTH",
"104.833 1.167 OFFCURVE",
"126.667 -7 OFFCURVE",
"154 -7 CURVE SMOOTH",
"181.333 -7 OFFCURVE",
"203.167 1.167 OFFCURVE",
"219.5 17.5 CURVE SMOOTH",
"235.833 33.833 OFFCURVE",
"244 55.667 OFFCURVE",
"244 83 CURVE SMOOTH",
"244 442 LINE SMOOTH",
"244 482.667 OFFCURVE",
"255 514.333 OFFCURVE",
"277 537 CURVE SMOOTH",
"299 559.667 OFFCURVE",
"329.667 571 OFFCURVE",
"369 571 CURVE SMOOTH",
"398.333 571 OFFCURVE",
"421.667 564 OFFCURVE",
"439 550 CURVE SMOOTH",
"456.333 536 OFFCURVE",
"465 517.333 OFFCURVE",
"465 494 CURVE SMOOTH",
"465 449.333 OFFCURVE",
"437.333 427 OFFCURVE",
"382 427 CURVE SMOOTH",
"359 427 LINE SMOOTH",
"336.333 427 OFFCURVE",
"318.667 420 OFFCURVE",
"306 406 CURVE SMOOTH",
"293.333 392 OFFCURVE",
"287 375.667 OFFCURVE",
"287 357 CURVE SMOOTH",
"287 337.667 OFFCURVE",
"293.333 321 OFFCURVE",
"306 307 CURVE SMOOTH",
"318.667 293 OFFCURVE",
"336.333 286 OFFCURVE",
"359 286 CURVE SMOOTH",
"396 286 LINE SMOOTH",
"440.667 286 OFFCURVE",
"472 279.833 OFFCURVE",
"490 267.5 CURVE SMOOTH",
"508 255.167 OFFCURVE",
"517 234.333 OFFCURVE",
"517 205 CURVE SMOOTH",
"517 181.667 OFFCURVE",
"511 163 OFFCURVE",
"499 149 CURVE SMOOTH",
"487 135 OFFCURVE",
"471 128 OFFCURVE",
"451 128 CURVE SMOOTH",
"441 128 OFFCURVE",
"431.833 129.333 OFFCURVE",
"423.5 132 CURVE SMOOTH",
"415.167 134.667 OFFCURVE",
"406.667 138 OFFCURVE",
"398 142 CURVE SMOOTH",
"389.333 146 OFFCURVE",
"382 149 OFFCURVE",
"376 151 CURVE",
"365.333 156.333 OFFCURVE",
"356.5 159.833 OFFCURVE",
"349.5 161.5 CURVE SMOOTH",
"342.5 163.167 OFFCURVE",
"335.333 164 OFFCURVE",
"328 164 CURVE SMOOTH",
"312.667 164 OFFCURVE",
"300.167 157.5 OFFCURVE",
"290.5 144.5 CURVE SMOOTH",
"280.833 131.5 OFFCURVE",
"276 114.667 OFFCURVE",
"276 94 CURVE SMOOTH",
"276 80.667 OFFCURVE",
"278.667 69 OFFCURVE",
"284 59 CURVE SMOOTH",
"289.333 49 OFFCURVE",
"297 41.333 OFFCURVE",
"307 36 CURVE",
"329 21.333 OFFCURVE",
"352.5 10.667 OFFCURVE",
"377.5 4 CURVE SMOOTH",
"402.5 -2.667 OFFCURVE",
"431.333 -6 OFFCURVE",
"464 -6 CURVE SMOOTH",
"506.667 -6 OFFCURVE",
"545.167 2.833 OFFCURVE",
"579.5 20.5 CURVE SMOOTH",
"613.833 38.167 OFFCURVE",
"640.833 62.667 OFFCURVE",
"660.5 94 CURVE SMOOTH",
"680.167 125.333 OFFCURVE",
"690 160 OFFCURVE",
"690 198 CURVE SMOOTH",
"690 242 OFFCURVE",
"677 279 OFFCURVE",
"651 309 CURVE SMOOTH",
"625 339 OFFCURVE",
"589 358.667 OFFCURVE",
"543 368 CURVE"
);
}
);
width = 719;
}
);
note = uni1E9E;
rightKerningGroup = Germandbls;
unicode = 1E9E;
},
{
glyphname = Schwa;
lastChange = "2017-12-28 15:37:02 +0000";
layers = (
{
layerId = "049F51DC-9351-481A-A5F1-2729E00BCCBB";
paths = (
{
closed = 1;
nodes = (
"315.333 714 OFFCURVE",
"269.833 708.167 OFFCURVE",
"227.5 696.5 CURVE SMOOTH",
"185.167 684.833 OFFCURVE",
"150 668.333 OFFCURVE",
"122 647 CURVE",
"110.667 637.667 OFFCURVE",
"102.667 628.5 OFFCURVE",
"98 619.5 CURVE SMOOTH",
"93.333 610.5 OFFCURVE",
"91 599 OFFCURVE",
"91 585 CURVE SMOOTH",
"91 564.333 OFFCURVE",
"96.667 546.833 OFFCURVE",
"108 532.5 CURVE SMOOTH",
"119.333 518.167 OFFCURVE",
"133.333 511 OFFCURVE",
"150 511 CURVE SMOOTH",
"160 511 OFFCURVE",
"168.333 512.333 OFFCURVE",
"175 515 CURVE SMOOTH",
"181.667 517.667 OFFCURVE",
"191.667 522.667 OFFCURVE",
"205 530 CURVE",
"229.667 542 OFFCURVE",
"255 551.5 OFFCURVE",
"281 558.5 CURVE SMOOTH",
"307 565.5 OFFCURVE",
"330.667 569 OFFCURVE",
"352 569 CURVE SMOOTH",
"458.667 569 OFFCURVE",
"522 521.333 OFFCURVE",
"542 426 CURVE",
"115 426 LINE SMOOTH",
"93.667 426 OFFCURVE",
"76.833 419.333 OFFCURVE",
"64.5 406 CURVE SMOOTH",
"52.167 392.667 OFFCURVE",
"46 374.333 OFFCURVE",
"46 351 CURVE SMOOTH",
"46 275 OFFCURVE",
"60 210 OFFCURVE",
"88 156 CURVE SMOOTH",
"116 102 OFFCURVE",
"156 61 OFFCURVE",
"208 33 CURVE SMOOTH",
"260 5 OFFCURVE",
"321.667 -9 OFFCURVE",
"393 -9 CURVE SMOOTH",
"459.667 -9 OFFCURVE",
"518.667 6.5 OFFCURVE",
"570 37.5 CURVE SMOOTH",
"621.333 68.5 OFFCURVE",
"661 111.5 OFFCURVE",
"689 166.5 CURVE SMOOTH",
"717 221.5 OFFCURVE",
"731 283.667 OFFCURVE",
"731 353 CURVE SMOOTH",
"731 425.667 OFFCURVE",
"716 489.167 OFFCURVE",
"686 543.5 CURVE SMOOTH",
"656 597.833 OFFCURVE",
"613.333 639.833 OFFCURVE",
"558 669.5 CURVE SMOOTH",
"502.667 699.167 OFFCURVE",
"438 714 OFFCURVE",
"364 714 CURVE SMOOTH"
);
},
{
closed = 1;
nodes = (
"347 132 OFFCURVE",
"310.167 145 OFFCURVE",
"282.5 171 CURVE SMOOTH",
"254.833 197 OFFCURVE",
"237.667 235.667 OFFCURVE",
"231 287 CURVE",
"545 287 LINE",
"531 183.667 OFFCURVE",
"480.333 132 OFFCURVE",
"393 132 CURVE SMOOTH"
);
}
);
width = 777;
}
);
leftKerningGroup = C;
note = uni018F;
rightKerningGroup = D;
unicode = 018F;
},
{
glyphname = T;
lastChange = "2017-12-28 15:37:02 +0000";
layers = (
{
layerId = "049F51DC-9351-481A-A5F1-2729E00BCCBB";
paths = (
{
closed = 1;
nodes = (
"344 -5 OFFCURVE",
"366.5 3.167 OFFCURVE",
"383.5 19.5 CURVE SMOOTH",
"400.5 35.833 OFFCURVE",
"409 57.667 OFFCURVE",
"409 85 CURVE SMOOTH",
"409 556 LINE",
"550 556 LINE SMOOTH",
"579.333 556 OFFCURVE",
"601.167 562.167 OFFCURVE",
"615.5 574.5 CURVE SMOOTH",
"629.833 586.833 OFFCURVE",
"637 605.667 OFFCURVE",
"637 631 CURVE SMOOTH",
"637 656.333 OFFCURVE",
"629.833 675 OFFCURVE",
"615.5 687 CURVE SMOOTH",
"601.167 699 OFFCURVE",
"579.333 705 OFFCURVE",
"550 705 CURVE SMOOTH",
"82 705 LINE SMOOTH",
"52.667 705 OFFCURVE",
"30.833 699 OFFCURVE",
"16.5 687 CURVE SMOOTH",
"2.167 675 OFFCURVE",
"-5 656.333 OFFCURVE",
"-5 631 CURVE SMOOTH",
"-5 605.667 OFFCURVE",
"2.167 586.833 OFFCURVE",
"16.5 574.5 CURVE SMOOTH",
"30.833 562.167 OFFCURVE",
"52.667 556 OFFCURVE",
"82 556 CURVE SMOOTH",
"223 556 LINE",
"223 85 LINE SMOOTH",
"223 57.667 OFFCURVE",
"231.5 35.833 OFFCURVE",
"248.5 19.5 CURVE SMOOTH",
"265.5 3.167 OFFCURVE",
"288 -5 OFFCURVE",
"316 -5 CURVE SMOOTH"
);
}
);
width = 632;
}
);
leftKerningGroup = T;
rightKerningGroup = T;
unicode = 0054;
},
{
glyphname = Tbar;
lastChange = "2017-12-28 15:37:02 +0000";
layers = (
{
layerId = "049F51DC-9351-481A-A5F1-2729E00BCCBB";
paths = (
{
closed = 1;
nodes = (
"579.333 556 OFFCURVE",
"601.167 562.167 OFFCURVE",
"615.5 574.5 CURVE SMOOTH",
"629.833 586.833 OFFCURVE",
"637 605.667 OFFCURVE",
"637 631 CURVE SMOOTH",
"637 656.333 OFFCURVE",
"629.833 675 OFFCURVE",
"615.5 687 CURVE SMOOTH",
"601.167 699 OFFCURVE",
"579.333 705 OFFCURVE",
"550 705 CURVE SMOOTH",
"82 705 LINE SMOOTH",
"52.667 705 OFFCURVE",
"30.833 699 OFFCURVE",
"16.5 687 CURVE SMOOTH",
"2.167 675 OFFCURVE",
"-5 656.333 OFFCURVE",
"-5 631 CURVE SMOOTH",
"-5 605.667 OFFCURVE",
"2.167 586.833 OFFCURVE",
"16.5 574.5 CURVE SMOOTH",
"30.833 562.167 OFFCURVE",
"52.667 556 OFFCURVE",
"82 556 CURVE SMOOTH",
"223 556 LINE",
"223 425 LINE",
"155 425 LINE SMOOTH",
"128.333 425 OFFCURVE",
"108 419 OFFCURVE",
"94 407 CURVE SMOOTH",
"80 395 OFFCURVE",
"73 378 OFFCURVE",
"73 356 CURVE SMOOTH",
"73 333.333 OFFCURVE",
"80 316 OFFCURVE",
"94 304 CURVE SMOOTH",
"108 292 OFFCURVE",
"128.333 286 OFFCURVE",
"155 286 CURVE SMOOTH",
"223 286 LINE",
"223 85 LINE SMOOTH",
"223 57.667 OFFCURVE",
"231.5 35.833 OFFCURVE",
"248.5 19.5 CURVE SMOOTH",
"265.5 3.167 OFFCURVE",
"288 -5 OFFCURVE",
"316 -5 CURVE SMOOTH",
"344 -5 OFFCURVE",
"366.5 3.167 OFFCURVE",
"383.5 19.5 CURVE SMOOTH",
"400.5 35.833 OFFCURVE",
"409 57.667 OFFCURVE",
"409 85 CURVE SMOOTH",
"409 286 LINE",
"476 286 LINE SMOOTH",
"502.667 286 OFFCURVE",
"523.167 292 OFFCURVE",
"537.5 304 CURVE SMOOTH",
"551.833 316 OFFCURVE",
"559 333.333 OFFCURVE",
"559 356 CURVE SMOOTH",
"559 378 OFFCURVE",
"551.833 395 OFFCURVE",
"537.5 407 CURVE SMOOTH",
"523.167 419 OFFCURVE",
"502.667 425 OFFCURVE",
"476 425 CURVE SMOOTH",
"409 425 LINE",
"409 556 LINE",
"550 556 LINE SMOOTH"
);
}
);
width = 632;
}
);
leftKerningGroup = T;
rightKerningGroup = T;
unicode = 0166;
},
{
glyphname = Tcedilla;
lastChange = "2017-12-28 15:37:02 +0000";
layers = (
{
layerId = "049F51DC-9351-481A-A5F1-2729E00BCCBB";
paths = (
{
closed = 1;
nodes = (
"82 705 LINE SMOOTH",
"52.667 705 OFFCURVE",
"30.833 699 OFFCURVE",
"16.5 687 CURVE SMOOTH",
"2.167 675 OFFCURVE",
"-5 656.333 OFFCURVE",
"-5 631 CURVE SMOOTH",
"-5 605.667 OFFCURVE",
"2.167 586.833 OFFCURVE",
"16.5 574.5 CURVE SMOOTH",
"30.833 562.167 OFFCURVE",
"52.667 556 OFFCURVE",
"82 556 CURVE SMOOTH",
"223 556 LINE",
"223 85 LINE SMOOTH",
"223 68.333 OFFCURVE",
"226.333 53.333 OFFCURVE",
"233 40 CURVE SMOOTH",
"239.667 26.667 OFFCURVE",
"249.333 16.333 OFFCURVE",
"262 9 CURVE",
"251 -76 LINE",
"249.667 -82.667 OFFCURVE",
"251 -87.833 OFFCURVE",
"255 -91.5 CURVE SMOOTH",
"259 -95.167 OFFCURVE",
"264.333 -97 OFFCURVE",
"271 -97 CURVE SMOOTH",
"275.667 -97 OFFCURVE",
"282.333 -96.167 OFFCURVE",
"291 -94.5 CURVE SMOOTH",
"299.667 -92.833 OFFCURVE",
"306.667 -92 OFFCURVE",
"312 -92 CURVE SMOOTH",
"326.667 -92 OFFCURVE",
"334 -97.667 OFFCURVE",
"334 -109 CURVE SMOOTH",
"334 -123.667 OFFCURVE",
"320 -131 OFFCURVE",
"292 -131 CURVE SMOOTH",
"281.333 -131 OFFCURVE",
"262.667 -128.333 OFFCURVE",
"236 -123 CURVE",
"227.333 -120.333 OFFCURVE",
"219.833 -122.833 OFFCURVE",
"213.5 -130.5 CURVE SMOOTH",
"207.167 -138.167 OFFCURVE",
"204 -147 OFFCURVE",
"204 -157 CURVE SMOOTH",
"204 -173.667 OFFCURVE",
"211.333 -184.333 OFFCURVE",
"226 -189 CURVE SMOOTH",
"244 -195 OFFCURVE",
"268 -198 OFFCURVE",
"298 -198 CURVE SMOOTH",
"343.333 -198 OFFCURVE",
"378.167 -189.833 OFFCURVE",
"402.5 -173.5 CURVE SMOOTH",
"426.833 -157.167 OFFCURVE",
"439 -135.667 OFFCURVE",
"439 -109 CURVE SMOOTH",
"439 -88.333 OFFCURVE",
"431.833 -71.667 OFFCURVE",
"417.5 -59 CURVE SMOOTH",
"403.167 -46.333 OFFCURVE",
"385.667 -40 OFFCURVE",
"365 -40 CURVE SMOOTH",
"356.333 -40 OFFCURVE",
"349.333 -40.333 OFFCURVE",
"344 -41 CURVE",
"351 0 LINE",
"369 6 OFFCURVE",
"383.167 16.333 OFFCURVE",
"393.5 31 CURVE SMOOTH",
"403.833 45.667 OFFCURVE",
"409 63.667 OFFCURVE",
"409 85 CURVE SMOOTH",
"409 556 LINE",
"550 556 LINE SMOOTH",
"579.333 556 OFFCURVE",
"601.167 562.167 OFFCURVE",
"615.5 574.5 CURVE SMOOTH",
"629.833 586.833 OFFCURVE",
"637 605.667 OFFCURVE",
"637 631 CURVE SMOOTH",
"637 656.333 OFFCURVE",
"629.833 675 OFFCURVE",
"615.5 687 CURVE SMOOTH",
"601.167 699 OFFCURVE",
"579.333 705 OFFCURVE",
"550 705 CURVE SMOOTH"
);
}
);
width = 632;
}
);
leftKerningGroup = T;
note = uni0162;
rightKerningGroup = T;
unicode = 0162;
},
{
glyphname = U;
lastChange = "2017-12-28 15:37:02 +0000";
layers = (
{
layerId = "049F51DC-9351-481A-A5F1-2729E00BCCBB";
paths = (
{
closed = 1;
nodes = (
"473.333 -9 OFFCURVE",
"550.833 17.167 OFFCURVE",
"604.5 69.5 CURVE SMOOTH",
"658.167 121.833 OFFCURVE",
"685 197.667 OFFCURVE",
"685 297 CURVE SMOOTH",
"685 620 LINE SMOOTH",
"685 647.333 OFFCURVE",
"676.667 669.167 OFFCURVE",
"660 685.5 CURVE SMOOTH",
"643.333 701.833 OFFCURVE",
"621.333 710 OFFCURVE",
"594 710 CURVE SMOOTH",
"566.667 710 OFFCURVE",
"544.833 701.833 OFFCURVE",
"528.5 685.5 CURVE SMOOTH",
"512.167 669.167 OFFCURVE",
"504 647.333 OFFCURVE",
"504 620 CURVE SMOOTH",
"504 290 LINE SMOOTH",
"504 239.333 OFFCURVE",
"492.667 200.333 OFFCURVE",
"470 173 CURVE SMOOTH",
"447.333 145.667 OFFCURVE",
"414.667 132 OFFCURVE",
"372 132 CURVE SMOOTH",
"329.333 132 OFFCURVE",
"296.667 145.667 OFFCURVE",
"274 173 CURVE SMOOTH",
"251.333 200.333 OFFCURVE",
"240 239.333 OFFCURVE",
"240 290 CURVE SMOOTH",
"240 620 LINE SMOOTH",
"240 647.333 OFFCURVE",
"231.833 669.167 OFFCURVE",
"215.5 685.5 CURVE SMOOTH",
"199.167 701.833 OFFCURVE",
"177.333 710 OFFCURVE",
"150 710 CURVE SMOOTH",
"122.667 710 OFFCURVE",
"100.833 701.833 OFFCURVE",
"84.5 685.5 CURVE SMOOTH",
"68.167 669.167 OFFCURVE",
"60 647.333 OFFCURVE",
"60 620 CURVE SMOOTH",
"60 297 LINE SMOOTH",
"60 197 OFFCURVE",
"86.5 121 OFFCURVE",
"139.5 69 CURVE SMOOTH",
"192.5 17 OFFCURVE",
"270 -9 OFFCURVE",
"372 -9 CURVE SMOOTH"
);
}
);
width = 745;
}
);
leftKerningGroup = U;
rightKerningGroup = U;
unicode = 0055;
},
{
glyphname = Uhorn;
lastChange = "2017-12-28 15:37:02 +0000";
layers = (
{
layerId = "049F51DC-9351-481A-A5F1-2729E00BCCBB";
paths = (
{
closed = 1;
nodes = (
"796 834.667 OFFCURVE",
"772 864 OFFCURVE",
"724 864 CURVE SMOOTH",
"672.667 864 OFFCURVE",
"644 832.667 OFFCURVE",
"638 770 CURVE SMOOTH",
"635.333 746.667 OFFCURVE",
"630.333 731.167 OFFCURVE",
"623 723.5 CURVE SMOOTH",
"615.667 715.833 OFFCURVE",
"604 711.667 OFFCURVE",
"588 711 CURVE SMOOTH",
"562.667 710.333 OFFCURVE",
"542.333 701.5 OFFCURVE",
"527 684.5 CURVE SMOOTH",
"511.667 667.5 OFFCURVE",
"504 646 OFFCURVE",
"504 620 CURVE SMOOTH",
"504 290 LINE SMOOTH",
"504 239.333 OFFCURVE",
"492.667 200.333 OFFCURVE",
"470 173 CURVE SMOOTH",
"447.333 145.667 OFFCURVE",
"414.667 132 OFFCURVE",
"372 132 CURVE SMOOTH",
"329.333 132 OFFCURVE",
"296.667 145.667 OFFCURVE",
"274 173 CURVE SMOOTH",
"251.333 200.333 OFFCURVE",
"240 239.333 OFFCURVE",
"240 290 CURVE SMOOTH",
"240 620 LINE SMOOTH",
"240 647.333 OFFCURVE",
"231.833 669.167 OFFCURVE",
"215.5 685.5 CURVE SMOOTH",
"199.167 701.833 OFFCURVE",
"177.333 710 OFFCURVE",
"150 710 CURVE SMOOTH",
"122.667 710 OFFCURVE",
"100.833 701.833 OFFCURVE",
"84.5 685.5 CURVE SMOOTH",
"68.167 669.167 OFFCURVE",
"60 647.333 OFFCURVE",
"60 620 CURVE SMOOTH",
"60 297 LINE SMOOTH",
"60 197 OFFCURVE",
"86.5 121 OFFCURVE",
"139.5 69 CURVE SMOOTH",
"192.5 17 OFFCURVE",
"270 -9 OFFCURVE",
"372 -9 CURVE SMOOTH",
"473.333 -9 OFFCURVE",
"550.833 17.167 OFFCURVE",
"604.5 69.5 CURVE SMOOTH",
"658.167 121.833 OFFCURVE",
"685 197.667 OFFCURVE",
"685 297 CURVE SMOOTH",
"685 628 LINE",
"719 638 OFFCURVE",
"746 656.833 OFFCURVE",
"766 684.5 CURVE SMOOTH",
"786 712.167 OFFCURVE",
"796 742.667 OFFCURVE",
"796 776 CURVE SMOOTH"
);
}
);
width = 745;
}
);
leftKerningGroup = U;
rightKerningGroup = Uhorn;
unicode = 01AF;
},
{
glyphname = Uogonek;
lastChange = "2017-12-28 15:37:02 +0000";
layers = (
{
layerId = "049F51DC-9351-481A-A5F1-2729E00BCCBB";
paths = (
{
closed = 1;
nodes = (
"566.667 710 OFFCURVE",
"544.833 701.833 OFFCURVE",
"528.5 685.5 CURVE SMOOTH",
"512.167 669.167 OFFCURVE",
"504 647.333 OFFCURVE",
"504 620 CURVE SMOOTH",
"504 290 LINE SMOOTH",
"504 239.333 OFFCURVE",
"492.667 200.333 OFFCURVE",
"470 173 CURVE SMOOTH",
"447.333 145.667 OFFCURVE",
"414.667 132 OFFCURVE",
"372 132 CURVE SMOOTH",
"329.333 132 OFFCURVE",
"296.667 145.667 OFFCURVE",
"274 173 CURVE SMOOTH",
"251.333 200.333 OFFCURVE",
"240 239.333 OFFCURVE",
"240 290 CURVE SMOOTH",
"240 620 LINE SMOOTH",
"240 647.333 OFFCURVE",
"231.833 669.167 OFFCURVE",
"215.5 685.5 CURVE SMOOTH",
"199.167 701.833 OFFCURVE",
"177.333 710 OFFCURVE",
"150 710 CURVE SMOOTH",
"122.667 710 OFFCURVE",
"100.833 701.833 OFFCURVE",
"84.5 685.5 CURVE SMOOTH",
"68.167 669.167 OFFCURVE",
"60 647.333 OFFCURVE",
"60 620 CURVE SMOOTH",
"60 297 LINE SMOOTH",
"60 200.333 OFFCURVE",
"84.833 126 OFFCURVE",
"134.5 74 CURVE SMOOTH",
"184.167 22 OFFCURVE",
"257.333 -5.667 OFFCURVE",
"354 -9 CURVE",
"344 -19.667 OFFCURVE",
"336.333 -31.833 OFFCURVE",
"331 -45.5 CURVE SMOOTH",
"325.667 -59.167 OFFCURVE",
"323 -73 OFFCURVE",
"323 -87 CURVE SMOOTH",
"323 -119 OFFCURVE",
"335.333 -145.5 OFFCURVE",
"360 -166.5 CURVE SMOOTH",
"384.667 -187.5 OFFCURVE",
"416 -198 OFFCURVE",
"454 -198 CURVE SMOOTH",
"489.333 -198 OFFCURVE",
"520.333 -190 OFFCURVE",
"547 -174 CURVE",
"560.333 -166.667 OFFCURVE",
"567 -154.667 OFFCURVE",
"567 -138 CURVE SMOOTH",
"567 -128.667 OFFCURVE",
"564.167 -120.333 OFFCURVE",
"558.5 -113 CURVE SMOOTH",
"552.833 -105.667 OFFCURVE",
"545.667 -102 OFFCURVE",
"537 -102 CURVE SMOOTH",
"533.667 -102 OFFCURVE",
"531 -102.333 OFFCURVE",
"529 -103 CURVE SMOOTH",
"513.667 -107.667 OFFCURVE",
"497.667 -110 OFFCURVE",
"481 -110 CURVE SMOOTH",
"466.333 -110 OFFCURVE",
"454.5 -105.333 OFFCURVE",
"445.5 -96 CURVE SMOOTH",
"436.5 -86.667 OFFCURVE",
"432 -74.667 OFFCURVE",
"432 -60 CURVE SMOOTH",
"432 -44 OFFCURVE",
"437 -30.167 OFFCURVE",
"447 -18.5 CURVE SMOOTH",
"457 -6.833 OFFCURVE",
"471 1.333 OFFCURVE",
"489 6 CURVE SMOOTH",
"552.333 22.667 OFFCURVE",
"600.833 56 OFFCURVE",
"634.5 106 CURVE SMOOTH",
"668.167 156 OFFCURVE",
"685 219.667 OFFCURVE",
"685 297 CURVE SMOOTH",
"685 620 LINE SMOOTH",
"685 647.333 OFFCURVE",
"676.667 669.167 OFFCURVE",
"660 685.5 CURVE SMOOTH",
"643.333 701.833 OFFCURVE",
"621.333 710 OFFCURVE",
"594 710 CURVE SMOOTH"
);
}
);
width = 745;
}
);
leftKerningGroup = U;
rightKerningGroup = U;
unicode = 0172;
},
{
glyphname = V;
lastChange = "2017-12-28 15:37:02 +0000";
layers = (
{
layerId = "049F51DC-9351-481A-A5F1-2729E00BCCBB";
paths = (
{
closed = 1;
nodes = (
"374 236 LINE",
"177 662 LINE SMOOTH",
"169.667 678 OFFCURVE",
"159.167 690 OFFCURVE",
"145.5 698 CURVE SMOOTH",
"131.833 706 OFFCURVE",
"117 710 OFFCURVE",
"101 710 CURVE SMOOTH",
"76.333 710 OFFCURVE",
"54 702.167 OFFCURVE",
"34 686.5 CURVE SMOOTH",
"14 670.833 OFFCURVE",
"4 651.667 OFFCURVE",
"4 629 CURVE SMOOTH",
"4 616.333 OFFCURVE",
"6.667 604.667 OFFCURVE",
"12 594 CURVE SMOOTH",
"276 49 LINE SMOOTH",
"284.667 31 OFFCURVE",
"297.667 17.167 OFFCURVE",
"315 7.5 CURVE SMOOTH",
"332.333 -2.167 OFFCURVE",
"351 -7 OFFCURVE",
"371 -7 CURVE SMOOTH",
"391 -7 OFFCURVE",
"409.667 -2.167 OFFCURVE",
"427 7.5 CURVE SMOOTH",
"444.333 17.167 OFFCURVE",
"457.333 31 OFFCURVE",
"466 49 CURVE SMOOTH",
"730 594 LINE SMOOTH",
"736 606 OFFCURVE",
"739 617.667 OFFCURVE",
"739 629 CURVE SMOOTH",
"739 652.333 OFFCURVE",
"729.333 671.667 OFFCURVE",
"710 687 CURVE SMOOTH",
"690.667 702.333 OFFCURVE",
"669 710 OFFCURVE",
"645 710 CURVE SMOOTH",
"629 710 OFFCURVE",
"614.333 706 OFFCURVE",
"601 698 CURVE SMOOTH",
"587.667 690 OFFCURVE",
"577.333 678 OFFCURVE",
"570 662 CURVE SMOOTH"
);
}
);
width = 743;
}
);
leftKerningGroup = V;
rightKerningGroup = V;
unicode = 0056;
},
{
glyphname = W;
lastChange = "2017-12-28 15:37:02 +0000";
layers = (
{
layerId = "049F51DC-9351-481A-A5F1-2729E00BCCBB";
paths = (
{
closed = 1;
nodes = (
"784 251 LINE",
"648 653 LINE SMOOTH",
"641.333 672.333 OFFCURVE",
"630.667 687 OFFCURVE",
"616 697 CURVE SMOOTH",
"601.333 707 OFFCURVE",
"585 712 OFFCURVE",
"567 712 CURVE SMOOTH",
"549 712 OFFCURVE",
"532.5 707 OFFCURVE",
"517.5 697 CURVE SMOOTH",
"502.5 687 OFFCURVE",
"491.667 672.667 OFFCURVE",
"485 654 CURVE SMOOTH",
"340 260 LINE",
"203 654 LINE SMOOTH",
"196.333 673.333 OFFCURVE",
"185.167 687.833 OFFCURVE",
"169.5 697.5 CURVE SMOOTH",
"153.833 707.167 OFFCURVE",
"136.667 712 OFFCURVE",
"118 712 CURVE SMOOTH",
"94.667 712 OFFCURVE",
"74.167 704.833 OFFCURVE",
"56.5 690.5 CURVE SMOOTH",
"38.833 676.167 OFFCURVE",
"30 656.667 OFFCURVE",
"30 632 CURVE SMOOTH",
"30 620 OFFCURVE",
"32.333 607.333 OFFCURVE",
"37 594 CURVE SMOOTH",
"239 50 LINE SMOOTH",
"245.667 31.333 OFFCURVE",
"257.667 16.833 OFFCURVE",
"275 6.5 CURVE SMOOTH",
"292.333 -3.833 OFFCURVE",
"311.667 -9 OFFCURVE",
"333 -9 CURVE SMOOTH",
"353.667 -9 OFFCURVE",
"372.667 -3.833 OFFCURVE",
"390 6.5 CURVE SMOOTH",
"407.333 16.833 OFFCURVE",
"419.667 31.333 OFFCURVE",
"427 50 CURVE SMOOTH",
"563 421 LINE",
"693 50 LINE SMOOTH",
"699.667 31.333 OFFCURVE",
"711.667 16.833 OFFCURVE",
"729 6.5 CURVE SMOOTH",
"746.333 -3.833 OFFCURVE",
"765.667 -9 OFFCURVE",
"787 -9 CURVE SMOOTH",
"808.333 -9 OFFCURVE",
"827.833 -3.833 OFFCURVE",
"845.5 6.5 CURVE SMOOTH",
"863.167 16.833 OFFCURVE",
"875.333 31.333 OFFCURVE",
"882 50 CURVE SMOOTH",
"1083 594 LINE SMOOTH",
"1088.333 610 OFFCURVE",
"1091 623.333 OFFCURVE",
"1091 634 CURVE SMOOTH",
"1091 658 OFFCURVE",
"1082.833 677 OFFCURVE",
"1066.5 691 CURVE SMOOTH",
"1050.167 705 OFFCURVE",
"1031 712 OFFCURVE",
"1009 712 CURVE SMOOTH",
"991 712 OFFCURVE",
"974.5 707 OFFCURVE",
"959.5 697 CURVE SMOOTH",
"944.5 687 OFFCURVE",
"933.667 672.667 OFFCURVE",
"927 654 CURVE SMOOTH"
);
}
);
width = 1121;
}
);
leftKerningGroup = V;
rightKerningGroup = V;
unicode = 0057;
},
{
glyphname = X;
lastChange = "2017-12-28 15:37:02 +0000";
layers = (
{
layerId = "049F51DC-9351-481A-A5F1-2729E00BCCBB";
paths = (
{
closed = 1;
nodes = (
"450 355 LINE",
"637 572 LINE SMOOTH",
"651 588.667 OFFCURVE",
"658 606.667 OFFCURVE",
"658 626 CURVE SMOOTH",
"658 648.667 OFFCURVE",
"649.167 668.5 OFFCURVE",
"631.5 685.5 CURVE SMOOTH",
"613.833 702.5 OFFCURVE",
"593.667 711 OFFCURVE",
"571 711 CURVE SMOOTH",
"547.667 711 OFFCURVE",
"528 701 OFFCURVE",
"512 681 CURVE SMOOTH",
"344 481 LINE",
"175 681 LINE SMOOTH",
"157.667 701 OFFCURVE",
"137.333 711 OFFCURVE",
"114 711 CURVE SMOOTH",
"91.333 711 OFFCURVE",
"71.167 702.5 OFFCURVE",
"53.5 685.5 CURVE SMOOTH",
"35.833 668.5 OFFCURVE",
"27 648.667 OFFCURVE",
"27 626 CURVE SMOOTH",
"27 607.333 OFFCURVE",
"34.333 589.333 OFFCURVE",
"49 572 CURVE SMOOTH",
"236 355 LINE",
"44 133 LINE SMOOTH",
"30 116.333 OFFCURVE",
"23 98.333 OFFCURVE",
"23 79 CURVE SMOOTH",
"23 56.333 OFFCURVE",
"31.833 36.333 OFFCURVE",
"49.5 19 CURVE SMOOTH",
"67.167 1.667 OFFCURVE",
"87 -7 OFFCURVE",
"109 -7 CURVE SMOOTH",
"131.667 -7 OFFCURVE",
"151.667 3 OFFCURVE",
"169 23 CURVE SMOOTH",
"344 229 LINE",
"516 23 LINE SMOOTH",
"533.333 3 OFFCURVE",
"553.667 -7 OFFCURVE",
"577 -7 CURVE SMOOTH",
"599 -7 OFFCURVE",
"618.833 1.5 OFFCURVE",
"636.5 18.5 CURVE SMOOTH",
"654.167 35.5 OFFCURVE",
"663 55.333 OFFCURVE",
"663 78 CURVE SMOOTH",
"663 98 OFFCURVE",
"655.667 116.333 OFFCURVE",
"641 133 CURVE SMOOTH"
);
}
);
width = 686;
}
);
leftKerningGroup = X;
rightKerningGroup = X;
unicode = 0058;
},
{
glyphname = Y;
lastChange = "2017-12-28 15:37:02 +0000";
layers = (
{
layerId = "049F51DC-9351-481A-A5F1-2729E00BCCBB";
paths = (
{
closed = 1;
nodes = (
"325 471 LINE",
"148 681 LINE SMOOTH",
"130.667 701 OFFCURVE",
"110.333 711 OFFCURVE",
"87 711 CURVE SMOOTH",
"65 711 OFFCURVE",
"45.333 702.667 OFFCURVE",
"28 686 CURVE SMOOTH",
"10.667 669.333 OFFCURVE",
"2 650 OFFCURVE",
"2 628 CURVE SMOOTH",
"2 608 OFFCURVE",
"9.667 589.333 OFFCURVE",
"25 572 CURVE SMOOTH",
"233 329 LINE",
"233 85 LINE SMOOTH",
"233 55.667 OFFCURVE",
"241.667 33.167 OFFCURVE",
"259 17.5 CURVE SMOOTH",
"276.333 1.833 OFFCURVE",
"298.667 -6 OFFCURVE",
"326 -6 CURVE SMOOTH",
"352.667 -6 OFFCURVE",
"374.5 1.833 OFFCURVE",
"391.5 17.5 CURVE SMOOTH",
"408.5 33.167 OFFCURVE",
"417 55.667 OFFCURVE",
"417 85 CURVE SMOOTH",
"417 329 LINE",
"627 572 LINE SMOOTH",
"641.667 589.333 OFFCURVE",
"649 607.667 OFFCURVE",
"649 627 CURVE SMOOTH",
"649 649 OFFCURVE",
"640.167 668.5 OFFCURVE",
"622.5 685.5 CURVE SMOOTH",
"604.833 702.5 OFFCURVE",
"585 711 OFFCURVE",
"563 711 CURVE SMOOTH",
"539.667 711 OFFCURVE",
"519.333 701 OFFCURVE",
"502 681 CURVE SMOOTH"
);
}
);
width = 650;
}
);
leftKerningGroup = Y;
rightKerningGroup = Y;
unicode = 0059;
},
{
glyphname = Z;
lastChange = "2017-12-28 15:37:02 +0000";
layers = (
{
layerId = "049F51DC-9351-481A-A5F1-2729E00BCCBB";
paths = (
{
closed = 1;
nodes = (
"255 144 LINE",
"563 563 LINE SMOOTH",
"578.333 584.333 OFFCURVE",
"586 606.333 OFFCURVE",
"586 629 CURVE SMOOTH",
"586 651 OFFCURVE",
"578.833 669.167 OFFCURVE",
"564.5 683.5 CURVE SMOOTH",
"550.167 697.833 OFFCURVE",
"531 705 OFFCURVE",
"507 705 CURVE SMOOTH",
"123 705 LINE SMOOTH",
"93 705 OFFCURVE",
"70.833 699.167 OFFCURVE",
"56.5 687.5 CURVE SMOOTH",
"42.167 675.833 OFFCURVE",
"35 657.333 OFFCURVE",
"35 632 CURVE SMOOTH",
"35 608 OFFCURVE",
"42.167 590.167 OFFCURVE",
"56.5 578.5 CURVE SMOOTH",
"70.833 566.833 OFFCURVE",
"93 561 OFFCURVE",
"123 561 CURVE SMOOTH",
"365 561 LINE",
"57 142 LINE SMOOTH",
"41.667 120.667 OFFCURVE",
"34 99 OFFCURVE",
"34 77 CURVE SMOOTH",
"34 55 OFFCURVE",
"41.167 36.667 OFFCURVE",
"55.5 22 CURVE SMOOTH",
"69.833 7.333 OFFCURVE",
"89.333 0 OFFCURVE",
"114 0 CURVE SMOOTH",
"514 0 LINE SMOOTH",
"544 0 OFFCURVE",
"566 5.833 OFFCURVE",
"580 17.5 CURVE SMOOTH",
"594 29.167 OFFCURVE",
"601 47.667 OFFCURVE",
"601 73 CURVE SMOOTH",
"601 97.667 OFFCURVE",
"593.833 115.667 OFFCURVE",
"579.5 127 CURVE SMOOTH",
"565.167 138.333 OFFCURVE",
"543.333 144 OFFCURVE",
"514 144 CURVE SMOOTH"
);
}
);
width = 617;
}
);
leftKerningGroup = Z;
rightKerningGroup = DZcaron;
unicode = 005A;
},
{
glyphname = a;
lastChange = "2018-01-07 02:02:43 +0000";
layers = (
{
guideLines = (
{
position = "{-199, 505}";
}
);
layerId = "049F51DC-9351-481A-A5F1-2729E00BCCBB";
paths = (
{
closed = 1;
nodes = (
"247 504 OFFCURVE",
"212.333 500.333 OFFCURVE",
"177 493 CURVE SMOOTH",
"141.667 485.667 OFFCURVE",
"112.333 476 OFFCURVE",
"89 464 CURVE SMOOTH",
"75.667 456.667 OFFCURVE",
"66 448.333 OFFCURVE",
"60 439 CURVE SMOOTH",
"54 429.667 OFFCURVE",
"51 417.667 OFFCURVE",
"51 403 CURVE SMOOTH",
"51 383.667 OFFCURVE",
"56 368 OFFCURVE",
"66 356 CURVE SMOOTH",
"76 344 OFFCURVE",
"89.333 338 OFFCURVE",
"106 338 CURVE SMOOTH",
"116.667 338 OFFCURVE",
"129.667 340.667 OFFCURVE",
"145 346 CURVE SMOOTH",
"197.667 364.667 OFFCURVE",
"237.667 374 OFFCURVE",
"265 374 CURVE SMOOTH",
"290.333 374 OFFCURVE",
"308.333 368.833 OFFCURVE",
"319 358.5 CURVE SMOOTH",
"329.667 348.167 OFFCURVE",
"335 331.333 OFFCURVE",
"335 308 CURVE SMOOTH",
"335 296 LINE",
"308 296 LINE SMOOTH",
"240 296 OFFCURVE",
"186 291.333 OFFCURVE",
"146 282 CURVE SMOOTH",
"106 272.667 OFFCURVE",
"76.833 257.5 OFFCURVE",
"58.5 236.5 CURVE SMOOTH",
"40.167 215.5 OFFCURVE",
"31 187.333 OFFCURVE",
"31 152 CURVE SMOOTH",
"31 121.333 OFFCURVE",
"38.833 93.833 OFFCURVE",
"54.5 69.5 CURVE SMOOTH",
"70.167 45.167 OFFCURVE",
"91.667 26.167 OFFCURVE",
"119 12.5 CURVE SMOOTH",
"146.333 -1.167 OFFCURVE",
"177 -8 OFFCURVE",
"211 -8 CURVE SMOOTH",
"241.667 -8 OFFCURVE",
"268 -1.333 OFFCURVE",
"290 12 CURVE SMOOTH",
"312 25.333 OFFCURVE",
"327.667 44 OFFCURVE",
"337 68 CURVE",
"338.333 45.333 OFFCURVE",
"346.5 27.333 OFFCURVE",
"361.5 14 CURVE SMOOTH",
"376.5 0.667 OFFCURVE",
"395.667 -6 OFFCURVE",
"419 -6 CURVE SMOOTH",
"445.667 -6 OFFCURVE",
"466.5 1.167 OFFCURVE",
"481.5 15.5 CURVE SMOOTH",
"496.5 29.833 OFFCURVE",
"504 49.667 OFFCURVE",
"504 75 CURVE SMOOTH",
"504 284 LINE SMOOTH",
"504 358 OFFCURVE",
"485.833 413.167 OFFCURVE",
"449.5 449.5 CURVE SMOOTH",
"413.167 485.833 OFFCURVE",
"357 504 OFFCURVE",
"281 504 CURVE SMOOTH"
);
},
{
closed = 1;
nodes = (
"237.667 111 OFFCURVE",
"225.167 116 OFFCURVE",
"215.5 126 CURVE SMOOTH",
"205.833 136 OFFCURVE",
"201 148.667 OFFCURVE",
"201 164 CURVE SMOOTH",
"201 182 OFFCURVE",
"210 194.833 OFFCURVE",
"228 202.5 CURVE SMOOTH",
"246 210.167 OFFCURVE",
"276.333 214 OFFCURVE",
"319 214 CURVE SMOOTH",
"335 214 LINE",
"335 202 LINE SMOOTH",
"335 175.333 OFFCURVE",
"327.333 153.5 OFFCURVE",
"312 136.5 CURVE SMOOTH",
"296.667 119.5 OFFCURVE",
"277 111 OFFCURVE",
"253 111 CURVE SMOOTH"
);
}
);
width = 552;
}
);
leftKerningGroup = a;
rightKerningGroup = a;
unicode = 0061;
},
{
glyphname = aogonek;
lastChange = "2017-12-28 15:37:02 +0000";
layers = (
{
layerId = "049F51DC-9351-481A-A5F1-2729E00BCCBB";
paths = (
{
closed = 1;
nodes = (
"487.333 -107.667 OFFCURVE",
"471.333 -110 OFFCURVE",
"460 -110 CURVE SMOOTH",
"445.333 -110 OFFCURVE",
"433.5 -105.333 OFFCURVE",
"424.5 -96 CURVE SMOOTH",
"415.5 -86.667 OFFCURVE",
"411 -74.667 OFFCURVE",
"411 -60 CURVE SMOOTH",
"411 -48 OFFCURVE",
"415.167 -37.167 OFFCURVE",
"423.5 -27.5 CURVE SMOOTH",
"431.833 -17.833 OFFCURVE",
"445.333 -7.667 OFFCURVE",
"464 3 CURVE",
"490.667 15.667 OFFCURVE",
"504 39.667 OFFCURVE",
"504 75 CURVE SMOOTH",
"504 284 LINE SMOOTH",
"504 358 OFFCURVE",
"485.833 413.167 OFFCURVE",
"449.5 449.5 CURVE SMOOTH",
"413.167 485.833 OFFCURVE",
"357 504 OFFCURVE",
"281 504 CURVE SMOOTH",
"247 504 OFFCURVE",
"212.333 500.333 OFFCURVE",
"177 493 CURVE SMOOTH",
"141.667 485.667 OFFCURVE",
"112.333 476 OFFCURVE",
"89 464 CURVE SMOOTH",
"75.667 456.667 OFFCURVE",
"66 448.333 OFFCURVE",
"60 439 CURVE SMOOTH",
"54 429.667 OFFCURVE",
"51 417.667 OFFCURVE",
"51 403 CURVE SMOOTH",
"51 383.667 OFFCURVE",
"56 368 OFFCURVE",
"66 356 CURVE SMOOTH",
"76 344 OFFCURVE",
"89.333 338 OFFCURVE",
"106 338 CURVE SMOOTH",
"116.667 338 OFFCURVE",
"129.667 340.667 OFFCURVE",
"145 346 CURVE SMOOTH",
"197.667 364.667 OFFCURVE",
"237.667 374 OFFCURVE",
"265 374 CURVE SMOOTH",
"290.333 374 OFFCURVE",
"308.333 368.833 OFFCURVE",
"319 358.5 CURVE SMOOTH",
"329.667 348.167 OFFCURVE",
"335 331.333 OFFCURVE",
"335 308 CURVE SMOOTH",
"335 296 LINE",
"308 296 LINE SMOOTH",
"240 296 OFFCURVE",
"186 291.167 OFFCURVE",
"146 281.5 CURVE SMOOTH",
"106 271.833 OFFCURVE",
"76.833 256.667 OFFCURVE",
"58.5 236 CURVE SMOOTH",
"40.167 215.333 OFFCURVE",
"31 187.333 OFFCURVE",
"31 152 CURVE SMOOTH",
"31 121.333 OFFCURVE",
"38.833 93.833 OFFCURVE",
"54.5 69.5 CURVE SMOOTH",
"70.167 45.167 OFFCURVE",
"91.833 26.167 OFFCURVE",
"119.5 12.5 CURVE SMOOTH",
"147.167 -1.167 OFFCURVE",
"178.333 -8 OFFCURVE",
"213 -8 CURVE SMOOTH",
"243 -8 OFFCURVE",
"268.833 -1.167 OFFCURVE",
"290.5 12.5 CURVE SMOOTH",
"312.167 26.167 OFFCURVE",
"327.667 44.667 OFFCURVE",
"337 68 CURVE",
"338.333 48.667 OFFCURVE",
"345 32.333 OFFCURVE",
"357 19 CURVE",
"320.333 -8.333 OFFCURVE",
"302 -42.333 OFFCURVE",
"302 -83 CURVE SMOOTH",
"302 -117 OFFCURVE",
"314.167 -144.667 OFFCURVE",
"338.5 -166 CURVE SMOOTH",
"362.833 -187.333 OFFCURVE",
"394.333 -198 OFFCURVE",
"433 -198 CURVE SMOOTH",
"468.333 -198 OFFCURVE",
"499.333 -190 OFFCURVE",
"526 -174 CURVE SMOOTH",
"538.667 -166 OFFCURVE",
"545 -154 OFFCURVE",
"545 -138 CURVE SMOOTH",
"545 -128.667 OFFCURVE",
"542.333 -120.333 OFFCURVE",
"537 -113 CURVE SMOOTH",
"531.667 -105.667 OFFCURVE",
"524.667 -102 OFFCURVE",
"516 -102 CURVE SMOOTH",
"512.667 -102 OFFCURVE",
"510 -102.333 OFFCURVE",
"508 -103 CURVE"
);
},
{
closed = 1;
nodes = (
"237.667 111 OFFCURVE",
"225.167 116 OFFCURVE",
"215.5 126 CURVE SMOOTH",
"205.833 136 OFFCURVE",
"201 148.667 OFFCURVE",
"201 164 CURVE SMOOTH",
"201 181.333 OFFCURVE",
"210.167 194 OFFCURVE",
"228.5 202 CURVE SMOOTH",
"246.833 210 OFFCURVE",
"277 214 OFFCURVE",
"319 214 CURVE SMOOTH",
"335 214 LINE",
"335 202 LINE SMOOTH",
"335 175.333 OFFCURVE",
"327.333 153.5 OFFCURVE",
"312 136.5 CURVE SMOOTH",
"296.667 119.5 OFFCURVE",
"277 111 OFFCURVE",
"253 111 CURVE SMOOTH"
);
}
);
width = 552;
}
);
leftKerningGroup = a;
rightKerningGroup = a;
unicode = 0105;
},
{
glyphname = aringacute;
lastChange = "2017-12-28 15:37:02 +0000";
layers = (
{
layerId = "049F51DC-9351-481A-A5F1-2729E00BCCBB";
paths = (
{
closed = 1;
nodes = (
"327 761 LINE",
"313 767 OFFCURVE",
"297.667 770 OFFCURVE",
"281 770 CURVE SMOOTH",
"249.667 770 OFFCURVE",
"223 759.333 OFFCURVE",
"201 738 CURVE SMOOTH",
"179 716.667 OFFCURVE",
"168 690.667 OFFCURVE",
"168 660 CURVE SMOOTH",
"168 628.667 OFFCURVE",
"179 602.333 OFFCURVE",
"201 581 CURVE SMOOTH",
"223 559.667 OFFCURVE",
"249.667 549 OFFCURVE",
"281 549 CURVE SMOOTH",
"312.333 549 OFFCURVE",
"338.833 559.667 OFFCURVE",
"360.5 581 CURVE SMOOTH",
"382.167 602.333 OFFCURVE",
"393 628.667 OFFCURVE",
"393 660 CURVE SMOOTH",
"393 674 OFFCURVE",
"390.333 688 OFFCURVE",
"385 702 CURVE",
"478 740 LINE",
"494 747.333 OFFCURVE",
"505.667 756.167 OFFCURVE",
"513 766.5 CURVE SMOOTH",
"520.333 776.833 OFFCURVE",
"524 788 OFFCURVE",
"524 800 CURVE SMOOTH",
"524 816 OFFCURVE",
"518 830 OFFCURVE",
"506 842 CURVE SMOOTH",
"494 854 OFFCURVE",
"479.667 860 OFFCURVE",
"463 860 CURVE SMOOTH",
"443 860 OFFCURVE",
"424.667 851.667 OFFCURVE",
"408 835 CURVE"
);
},
{
closed = 1;
nodes = (
"268.333 616 OFFCURVE",
"258.167 620.167 OFFCURVE",
"250.5 628.5 CURVE SMOOTH",
"242.833 636.833 OFFCURVE",
"239 647.333 OFFCURVE",
"239 660 CURVE SMOOTH",
"239 672 OFFCURVE",
"243 682.167 OFFCURVE",
"251 690.5 CURVE SMOOTH",
"259 698.833 OFFCURVE",
"269 703 OFFCURVE",
"281 703 CURVE SMOOTH",
"293 703 OFFCURVE",
"302.833 698.833 OFFCURVE",
"310.5 690.5 CURVE SMOOTH",
"318.167 682.167 OFFCURVE",
"322 672 OFFCURVE",
"322 660 CURVE SMOOTH",
"322 647.333 OFFCURVE",
"318.167 636.833 OFFCURVE",
"310.5 628.5 CURVE SMOOTH",
"302.833 620.167 OFFCURVE",
"293 616 OFFCURVE",
"281 616 CURVE SMOOTH"
);
},
{
closed = 1;
nodes = (
"247 504 OFFCURVE",
"212.333 500.333 OFFCURVE",
"177 493 CURVE SMOOTH",
"141.667 485.667 OFFCURVE",
"112.333 476 OFFCURVE",
"89 464 CURVE SMOOTH",
"75.667 456.667 OFFCURVE",
"66 448.333 OFFCURVE",
"60 439 CURVE SMOOTH",
"54 429.667 OFFCURVE",
"51 417.667 OFFCURVE",
"51 403 CURVE SMOOTH",
"51 383.667 OFFCURVE",
"56 368 OFFCURVE",
"66 356 CURVE SMOOTH",
"76 344 OFFCURVE",
"89.333 338 OFFCURVE",
"106 338 CURVE SMOOTH",
"116.667 338 OFFCURVE",
"129.667 340.667 OFFCURVE",
"145 346 CURVE SMOOTH",
"197.667 364.667 OFFCURVE",
"237.667 374 OFFCURVE",
"265 374 CURVE SMOOTH",
"290.333 374 OFFCURVE",
"308.333 368.833 OFFCURVE",
"319 358.5 CURVE SMOOTH",
"329.667 348.167 OFFCURVE",
"335 331.333 OFFCURVE",
"335 308 CURVE SMOOTH",
"335 296 LINE",
"308 296 LINE SMOOTH",
"240 296 OFFCURVE",
"186 291.333 OFFCURVE",
"146 282 CURVE SMOOTH",
"106 272.667 OFFCURVE",
"76.833 257.5 OFFCURVE",
"58.5 236.5 CURVE SMOOTH",
"40.167 215.5 OFFCURVE",
"31 187.333 OFFCURVE",
"31 152 CURVE SMOOTH",
"31 121.333 OFFCURVE",
"38.833 93.833 OFFCURVE",
"54.5 69.5 CURVE SMOOTH",
"70.167 45.167 OFFCURVE",
"91.667 26.167 OFFCURVE",
"119 12.5 CURVE SMOOTH",
"146.333 -1.167 OFFCURVE",
"177 -8 OFFCURVE",
"211 -8 CURVE SMOOTH",
"241.667 -8 OFFCURVE",
"268 -1.333 OFFCURVE",
"290 12 CURVE SMOOTH",
"312 25.333 OFFCURVE",
"327.667 44 OFFCURVE",
"337 68 CURVE",
"338.333 45.333 OFFCURVE",
"346.5 27.333 OFFCURVE",
"361.5 14 CURVE SMOOTH",
"376.5 0.667 OFFCURVE",
"395.667 -6 OFFCURVE",
"419 -6 CURVE SMOOTH",
"445.667 -6 OFFCURVE",
"466.5 1.167 OFFCURVE",
"481.5 15.5 CURVE SMOOTH",
"496.5 29.833 OFFCURVE",
"504 49.667 OFFCURVE",
"504 75 CURVE SMOOTH",
"504 284 LINE SMOOTH",
"504 358 OFFCURVE",
"485.833 413.167 OFFCURVE",
"449.5 449.5 CURVE SMOOTH",
"413.167 485.833 OFFCURVE",
"357 504 OFFCURVE",
"281 504 CURVE SMOOTH"
);
},
{
closed = 1;
nodes = (
"237.667 111 OFFCURVE",
"225.167 116 OFFCURVE",
"215.5 126 CURVE SMOOTH",
"205.833 136 OFFCURVE",
"201 148.667 OFFCURVE",
"201 164 CURVE SMOOTH",
"201 182 OFFCURVE",
"210 194.833 OFFCURVE",
"228 202.5 CURVE SMOOTH",
"246 210.167 OFFCURVE",
"276.333 214 OFFCURVE",
"319 214 CURVE SMOOTH",
"335 214 LINE",
"335 202 LINE SMOOTH",
"335 175.333 OFFCURVE",
"327.333 153.5 OFFCURVE",
"312 136.5 CURVE SMOOTH",
"296.667 119.5 OFFCURVE",
"277 111 OFFCURVE",
"253 111 CURVE SMOOTH"
);
}
);
width = 552;
}
);
leftKerningGroup = a;
rightKerningGroup = a;
unicode = 01FB;
},
{
glyphname = ae;
lastChange = "2017-12-28 15:37:02 +0000";
layers = (
{
layerId = "049F51DC-9351-481A-A5F1-2729E00BCCBB";
paths = (
{
closed = 1;
nodes = (
"740 158 OFFCURVE",
"731.167 156.5 OFFCURVE",
"721.5 153.5 CURVE SMOOTH",
"711.833 150.5 OFFCURVE",
"702 147 OFFCURVE",
"692 143 CURVE SMOOTH",
"674.667 136.333 OFFCURVE",
"659.167 131.167 OFFCURVE",
"645.5 127.5 CURVE SMOOTH",
"631.833 123.833 OFFCURVE",
"617.333 122 OFFCURVE",
"602 122 CURVE SMOOTH",
"572.667 122 OFFCURVE",
"550.167 129.167 OFFCURVE",
"534.5 143.5 CURVE SMOOTH",
"518.833 157.833 OFFCURVE",
"508.667 180.667 OFFCURVE",
"504 212 CURVE",
"761 212 LINE SMOOTH",
"788.333 212 OFFCURVE",
"802 228 OFFCURVE",
"802 260 CURVE SMOOTH",
"802 308 OFFCURVE",
"793 350.5 OFFCURVE",
"775 387.5 CURVE SMOOTH",
"757 424.5 OFFCURVE",
"731.667 453.167 OFFCURVE",
"699 473.5 CURVE SMOOTH",
"666.333 493.833 OFFCURVE",
"629 504 OFFCURVE",
"587 504 CURVE SMOOTH",
"525.667 504 OFFCURVE",
"474.667 485.333 OFFCURVE",
"434 448 CURVE",
"400.667 485.333 OFFCURVE",
"347.667 504 OFFCURVE",
"275 504 CURVE SMOOTH",
"240.333 504 OFFCURVE",
"206.5 500.5 OFFCURVE",
"173.5 493.5 CURVE SMOOTH",
"140.5 486.5 OFFCURVE",
"112.333 476.667 OFFCURVE",
"89 464 CURVE SMOOTH",
"63.667 450 OFFCURVE",
"51 429.667 OFFCURVE",
"51 403 CURVE SMOOTH",
"51 383.667 OFFCURVE",
"55.667 368 OFFCURVE",
"65 356 CURVE SMOOTH",
"74.333 344 OFFCURVE",
"86.667 338 OFFCURVE",
"102 338 CURVE SMOOTH",
"116 338 OFFCURVE",
"134 342.667 OFFCURVE",
"156 352 CURVE",
"175.333 359.333 OFFCURVE",
"192.667 364.833 OFFCURVE",
"208 368.5 CURVE SMOOTH",
"223.333 372.167 OFFCURVE",
"241.667 374 OFFCURVE",
"263 374 CURVE SMOOTH",
"287 374 OFFCURVE",
"304.5 368.833 OFFCURVE",
"315.5 358.5 CURVE SMOOTH",
"326.5 348.167 OFFCURVE",
"332 331.667 OFFCURVE",
"332 309 CURVE SMOOTH",
"332 296 LINE",
"305 296 LINE SMOOTH",
"237.667 296 OFFCURVE",
"184.167 291.333 OFFCURVE",
"144.5 282 CURVE SMOOTH",
"104.833 272.667 OFFCURVE",
"76 257.5 OFFCURVE",
"58 236.5 CURVE SMOOTH",
"40 215.5 OFFCURVE",
"31 187.333 OFFCURVE",
"31 152 CURVE SMOOTH",
"31 121.333 OFFCURVE",
"39.667 93.833 OFFCURVE",
"57 69.5 CURVE SMOOTH",
"74.333 45.167 OFFCURVE",
"98.333 26.167 OFFCURVE",
"129 12.5 CURVE SMOOTH",
"159.667 -1.167 OFFCURVE",
"194.333 -8 OFFCURVE",
"233 -8 CURVE SMOOTH",
"270.333 -8 OFFCURVE",
"303.333 -0.333 OFFCURVE",
"332 15 CURVE SMOOTH",
"360.667 30.333 OFFCURVE",
"383 52.333 OFFCURVE",
"399 81 CURVE",
"441 21.667 OFFCURVE",
"507.333 -8 OFFCURVE",
"598 -8 CURVE SMOOTH",
"622.667 -8 OFFCURVE",
"650.5 -4.167 OFFCURVE",
"681.5 3.5 CURVE SMOOTH",
"712.5 11.167 OFFCURVE",
"739 20.667 OFFCURVE",
"761 32 CURVE SMOOTH",
"773 38.667 OFFCURVE",
"782.5 47.333 OFFCURVE",
"789.5 58 CURVE SMOOTH",
"796.5 68.667 OFFCURVE",
"800 80.333 OFFCURVE",
"800 93 CURVE SMOOTH",
"800 112.333 OFFCURVE",
"795.167 128 OFFCURVE",
"785.5 140 CURVE SMOOTH",
"775.833 152 OFFCURVE",
"763.333 158 OFFCURVE",
"748 158 CURVE SMOOTH"
);
},
{
closed = 1;
nodes = (
"604.667 384 OFFCURVE",
"620.833 376.5 OFFCURVE",
"632.5 361.5 CURVE SMOOTH",
"644.167 346.5 OFFCURVE",
"651 324.667 OFFCURVE",
"653 296 CURVE",
"502 296 LINE",
"508 354.667 OFFCURVE",
"535.333 384 OFFCURVE",
"584 384 CURVE SMOOTH"
);
},
{
closed = 1;
nodes = (
"240.667 111 OFFCURVE",
"226.833 115.833 OFFCURVE",
"216.5 125.5 CURVE SMOOTH",
"206.167 135.167 OFFCURVE",
"201 148 OFFCURVE",
"201 164 CURVE SMOOTH",
"201 182 OFFCURVE",
"209.833 194.833 OFFCURVE",
"227.5 202.5 CURVE SMOOTH",
"245.167 210.167 OFFCURVE",
"274.333 214 OFFCURVE",
"315 214 CURVE SMOOTH",
"332 214 LINE",
"332 201 LINE SMOOTH",
"332 176.333 OFFCURVE",
"324.833 155.167 OFFCURVE",
"310.5 137.5 CURVE SMOOTH",
"296.167 119.833 OFFCURVE",
"278.667 111 OFFCURVE",
"258 111 CURVE SMOOTH"
);
}
);
width = 831;
}
);
leftKerningGroup = a;
rightKerningGroup = ae;
unicode = 00E6;
},
{
glyphname = b;
lastChange = "2017-12-28 15:37:02 +0000";
layers = (
{
layerId = "049F51DC-9351-481A-A5F1-2729E00BCCBB";
paths = (
{
closed = 1;
nodes = (
"346.667 504 OFFCURVE",
"317.833 497.667 OFFCURVE",
"291.5 485 CURVE SMOOTH",
"265.167 472.333 OFFCURVE",
"244.667 455.333 OFFCURVE",
"230 434 CURVE",
"230 633 LINE SMOOTH",
"230 656.333 OFFCURVE",
"222 675 OFFCURVE",
"206 689 CURVE SMOOTH",
"190 703 OFFCURVE",
"169 710 OFFCURVE",
"143 710 CURVE SMOOTH",
"115.667 710 OFFCURVE",
"93.667 702.5 OFFCURVE",
"77 687.5 CURVE SMOOTH",
"60.333 672.5 OFFCURVE",
"52 653.333 OFFCURVE",
"52 630 CURVE SMOOTH",
"52 76 LINE SMOOTH",
"52 51.333 OFFCURVE",
"59.833 31.5 OFFCURVE",
"75.5 16.5 CURVE SMOOTH",
"91.167 1.5 OFFCURVE",
"112.333 -6 OFFCURVE",
"139 -6 CURVE SMOOTH",
"164.333 -6 OFFCURVE",
"184.833 0.5 OFFCURVE",
"200.5 13.5 CURVE SMOOTH",
"216.167 26.5 OFFCURVE",
"225 44.333 OFFCURVE",
"227 67 CURVE",
"241 43.667 OFFCURVE",
"261.5 25.333 OFFCURVE",
"288.5 12 CURVE SMOOTH",
"315.5 -1.333 OFFCURVE",
"345.333 -8 OFFCURVE",
"378 -8 CURVE SMOOTH",
"420 -8 OFFCURVE",
"457.5 2.833 OFFCURVE",
"490.5 24.5 CURVE SMOOTH",
"523.5 46.167 OFFCURVE",
"549.167 76.667 OFFCURVE",
"567.5 116 CURVE SMOOTH",
"585.833 155.333 OFFCURVE",
"595 200.333 OFFCURVE",
"595 251 CURVE SMOOTH",
"595 301.667 OFFCURVE",
"585.833 346.167 OFFCURVE",
"567.5 384.5 CURVE SMOOTH",
"549.167 422.833 OFFCURVE",
"523.667 452.333 OFFCURVE",
"491 473 CURVE SMOOTH",
"458.333 493.667 OFFCURVE",
"420.667 504 OFFCURVE",
"378 504 CURVE SMOOTH"
);
},
{
closed = 1;
nodes = (
"292.333 125 OFFCURVE",
"268.667 135.667 OFFCURVE",
"252 157 CURVE SMOOTH",
"235.333 178.333 OFFCURVE",
"227 209 OFFCURVE",
"227 249 CURVE SMOOTH",
"227 288.333 OFFCURVE",
"235.333 318.5 OFFCURVE",
"252 339.5 CURVE SMOOTH",
"268.667 360.5 OFFCURVE",
"292.667 371 OFFCURVE",
"324 371 CURVE SMOOTH",
"354.667 371 OFFCURVE",
"378.167 360.667 OFFCURVE",
"394.5 340 CURVE SMOOTH",
"410.833 319.333 OFFCURVE",
"419 289.667 OFFCURVE",
"419 251 CURVE SMOOTH",
"419 210.333 OFFCURVE",
"410.667 179.167 OFFCURVE",
"394 157.5 CURVE SMOOTH",
"377.333 135.833 OFFCURVE",
"353.667 125 OFFCURVE",
"323 125 CURVE SMOOTH"
);
}
);
width = 625;
}
);
leftKerningGroup = b;
rightKerningGroup = b;
unicode = 0062;
},
{
glyphname = bhook;
lastChange = "2017-12-28 16:21:57 +0000";
layers = (
{
layerId = "049F51DC-9351-481A-A5F1-2729E00BCCBB";
paths = (
{
closed = 1;
nodes = (
"230 442 LINE",
"245 463 OFFCURVE",
"265 480 OFFCURVE",
"292 493 CURVE",
"318 506 OFFCURVE",
"347 512 OFFCURVE",
"378 512 CURVE",
"421 512 OFFCURVE",
"458 502 OFFCURVE",
"491 481 CURVE",
"524 460 OFFCURVE",
"549 431 OFFCURVE",
"568 393 CURVE",
"586 354 OFFCURVE",
"595 310 OFFCURVE",
"595 259 CURVE",
"595 208 OFFCURVE",
"586 163 OFFCURVE",
"568 124 CURVE",
"549 85 OFFCURVE",
"524 54 OFFCURVE",
"491 33 CURVE",
"458 11 OFFCURVE",
"420 0 OFFCURVE",
"378 0 CURVE",
"345 0 OFFCURVE",
"316 7 OFFCURVE",
"289 20 CURVE",
"262 33 OFFCURVE",
"241 52 OFFCURVE",
"227 75 CURVE",
"225 52 OFFCURVE",
"216 35 OFFCURVE",
"201 22 CURVE",
"185 9 OFFCURVE",
"164 2 OFFCURVE",
"139 2 CURVE",
"112 2 OFFCURVE",
"91 10 OFFCURVE",
"76 25 CURVE",
"60 40 OFFCURVE",
"52 59 OFFCURVE",
"52 84 CURVE",
"52 638 LINE",
"52 711 OFFCURVE",
"52 800 OFFCURVE",
"53 812 CURVE",
"56 839 OFFCURVE",
"65 859 OFFCURVE",
"80 879 CURVE",
"95 898 OFFCURVE",
"113 914 OFFCURVE",
"134 925 CURVE",
"155 936 OFFCURVE",
"192 947 OFFCURVE",
"236 947 CURVE",
"280 947 OFFCURVE",
"332 940 OFFCURVE",
"349 924 CURVE",
"366 907 OFFCURVE",
"366 890 OFFCURVE",
"366 871 CURVE",
"366 851 OFFCURVE",
"360 825 OFFCURVE",
"348 810 CURVE",
"335 795 OFFCURVE",
"315 786 OFFCURVE",
"286 783 CURVE",
"264 780 OFFCURVE",
"243 767 OFFCURVE",
"235 748 CURVE",
"229 735 OFFCURVE",
"230 696 OFFCURVE",
"230 628 CURVE"
);
},
{
closed = 1;
nodes = (
"354 133 OFFCURVE",
"377 144 OFFCURVE",
"394 166 CURVE",
"411 187 OFFCURVE",
"419 218 OFFCURVE",
"419 259 CURVE",
"419 298 OFFCURVE",
"411 327 OFFCURVE",
"395 348 CURVE",
"378 369 OFFCURVE",
"355 379 OFFCURVE",
"324 379 CURVE",
"293 379 OFFCURVE",
"269 369 OFFCURVE",
"252 348 CURVE",
"235 327 OFFCURVE",
"227 296 OFFCURVE",
"227 257 CURVE",
"227 217 OFFCURVE",
"235 186 OFFCURVE",
"252 165 CURVE",
"269 144 OFFCURVE",
"292 133 OFFCURVE",
"323 133 CURVE"
);
}
);
width = 625;
}
);
unicode = 0253;
},
{
glyphname = c;
lastChange = "2017-12-28 15:37:02 +0000";
layers = (
{
layerId = "049F51DC-9351-481A-A5F1-2729E00BCCBB";
paths = (
{
closed = 1;
nodes = (
"355 -8 OFFCURVE",
"411 6 OFFCURVE",
"457 34 CURVE SMOOTH",
"466.333 39.333 OFFCURVE",
"473.667 47.167 OFFCURVE",
"479 57.5 CURVE SMOOTH",
"484.333 67.833 OFFCURVE",
"487 79.333 OFFCURVE",
"487 92 CURVE SMOOTH",
"487 112.667 OFFCURVE",
"482.167 129.5 OFFCURVE",
"472.5 142.5 CURVE SMOOTH",
"462.833 155.5 OFFCURVE",
"450.333 162 OFFCURVE",
"435 162 CURVE SMOOTH",
"425 162 OFFCURVE",
"415.833 160.5 OFFCURVE",
"407.5 157.5 CURVE SMOOTH",
"399.167 154.5 OFFCURVE",
"388.333 150 OFFCURVE",
"375 144 CURVE",
"363 138 OFFCURVE",
"352.167 133.5 OFFCURVE",
"342.5 130.5 CURVE SMOOTH",
"332.833 127.5 OFFCURVE",
"322.333 126 OFFCURVE",
"311 126 CURVE SMOOTH",
"279 126 OFFCURVE",
"254.5 136.5 OFFCURVE",
"237.5 157.5 CURVE SMOOTH",
"220.5 178.5 OFFCURVE",
"212 209 OFFCURVE",
"212 249 CURVE SMOOTH",
"212 329.667 OFFCURVE",
"245 370 OFFCURVE",
"311 370 CURVE SMOOTH",
"322.333 370 OFFCURVE",
"332.667 368.5 OFFCURVE",
"342 365.5 CURVE SMOOTH",
"351.333 362.5 OFFCURVE",
"362.667 358 OFFCURVE",
"376 352 CURVE",
"387.333 346 OFFCURVE",
"397.667 341.5 OFFCURVE",
"407 338.5 CURVE SMOOTH",
"416.333 335.5 OFFCURVE",
"426 334 OFFCURVE",
"436 334 CURVE SMOOTH",
"451.333 334 OFFCURVE",
"463.833 340.5 OFFCURVE",
"473.5 353.5 CURVE SMOOTH",
"483.167 366.5 OFFCURVE",
"488 383.333 OFFCURVE",
"488 404 CURVE SMOOTH",
"488 430 OFFCURVE",
"477.667 449.333 OFFCURVE",
"457 462 CURVE SMOOTH",
"435.667 475.333 OFFCURVE",
"411 485.667 OFFCURVE",
"383 493 CURVE SMOOTH",
"355 500.333 OFFCURVE",
"327 504 OFFCURVE",
"299 504 CURVE SMOOTH",
"246.333 504 OFFCURVE",
"199.5 493.333 OFFCURVE",
"158.5 472 CURVE SMOOTH",
"117.5 450.667 OFFCURVE",
"85.667 420.333 OFFCURVE",
"63 381 CURVE SMOOTH",
"40.333 341.667 OFFCURVE",
"29 296.333 OFFCURVE",
"29 245 CURVE SMOOTH",
"29 167 OFFCURVE",
"52.333 105.333 OFFCURVE",
"99 60 CURVE SMOOTH",
"145.667 14.667 OFFCURVE",
"209 -8 OFFCURVE",
"289 -8 CURVE SMOOTH"
);
}
);
width = 500;
}
);
leftKerningGroup = c;
rightKerningGroup = c;
unicode = 0063;
},
{
glyphname = ccedilla;
lastChange = "2017-12-28 15:37:02 +0000";
layers = (
{
layerId = "049F51DC-9351-481A-A5F1-2729E00BCCBB";
paths = (
{
closed = 1;
nodes = (
"425 162 OFFCURVE",
"415.833 160.5 OFFCURVE",
"407.5 157.5 CURVE SMOOTH",
"399.167 154.5 OFFCURVE",
"388.333 150 OFFCURVE",
"375 144 CURVE",
"363 138 OFFCURVE",
"352.167 133.5 OFFCURVE",
"342.5 130.5 CURVE SMOOTH",
"332.833 127.5 OFFCURVE",
"322.333 126 OFFCURVE",
"311 126 CURVE SMOOTH",
"279 126 OFFCURVE",
"254.5 136.5 OFFCURVE",
"237.5 157.5 CURVE SMOOTH",
"220.5 178.5 OFFCURVE",
"212 209 OFFCURVE",
"212 249 CURVE SMOOTH",
"212 329.667 OFFCURVE",
"245 370 OFFCURVE",
"311 370 CURVE SMOOTH",
"322.333 370 OFFCURVE",
"332.667 368.5 OFFCURVE",
"342 365.5 CURVE SMOOTH",
"351.333 362.5 OFFCURVE",
"362.667 358 OFFCURVE",
"376 352 CURVE",
"387.333 346 OFFCURVE",
"397.667 341.5 OFFCURVE",
"407 338.5 CURVE SMOOTH",
"416.333 335.5 OFFCURVE",
"426 334 OFFCURVE",
"436 334 CURVE SMOOTH",
"451.333 334 OFFCURVE",
"463.833 340.5 OFFCURVE",
"473.5 353.5 CURVE SMOOTH",
"483.167 366.5 OFFCURVE",
"488 383.333 OFFCURVE",
"488 404 CURVE SMOOTH",
"488 430 OFFCURVE",
"477.667 449.333 OFFCURVE",
"457 462 CURVE SMOOTH",
"435.667 475.333 OFFCURVE",
"411 485.667 OFFCURVE",
"383 493 CURVE SMOOTH",
"355 500.333 OFFCURVE",
"327 504 OFFCURVE",
"299 504 CURVE SMOOTH",
"246.333 504 OFFCURVE",
"199.5 493.333 OFFCURVE",
"158.5 472 CURVE SMOOTH",
"117.5 450.667 OFFCURVE",
"85.667 420.333 OFFCURVE",
"63 381 CURVE SMOOTH",
"40.333 341.667 OFFCURVE",
"29 296.333 OFFCURVE",
"29 245 CURVE SMOOTH",
"29 177 OFFCURVE",
"47 121.167 OFFCURVE",
"83 77.5 CURVE SMOOTH",
"119 33.833 OFFCURVE",
"169 6.667 OFFCURVE",
"233 -4 CURVE",
"224 -76 LINE",
"222.667 -82.667 OFFCURVE",
"224 -87.833 OFFCURVE",
"228 -91.5 CURVE SMOOTH",
"232 -95.167 OFFCURVE",
"237.333 -97 OFFCURVE",
"244 -97 CURVE SMOOTH",
"248.667 -97 OFFCURVE",
"255.333 -96.167 OFFCURVE",
"264 -94.5 CURVE SMOOTH",
"272.667 -92.833 OFFCURVE",
"279.667 -92 OFFCURVE",
"285 -92 CURVE SMOOTH",
"299.667 -92 OFFCURVE",
"307 -97.667 OFFCURVE",
"307 -109 CURVE SMOOTH",
"307 -123.667 OFFCURVE",
"293 -131 OFFCURVE",
"265 -131 CURVE SMOOTH",
"254.333 -131 OFFCURVE",
"235.667 -128.333 OFFCURVE",
"209 -123 CURVE",
"200.333 -120.333 OFFCURVE",
"192.833 -122.833 OFFCURVE",
"186.5 -130.5 CURVE SMOOTH",
"180.167 -138.167 OFFCURVE",
"177 -147 OFFCURVE",
"177 -157 CURVE SMOOTH",
"177 -173.667 OFFCURVE",
"184.333 -184.333 OFFCURVE",
"199 -189 CURVE SMOOTH",
"217 -195 OFFCURVE",
"241 -198 OFFCURVE",
"271 -198 CURVE SMOOTH",
"316.333 -198 OFFCURVE",
"351.167 -189.833 OFFCURVE",
"375.5 -173.5 CURVE SMOOTH",
"399.833 -157.167 OFFCURVE",
"412 -135.667 OFFCURVE",
"412 -109 CURVE SMOOTH",
"412 -88.333 OFFCURVE",
"404.833 -71.667 OFFCURVE",
"390.5 -59 CURVE SMOOTH",
"376.167 -46.333 OFFCURVE",
"358.667 -40 OFFCURVE",
"338 -40 CURVE SMOOTH",
"329.333 -40 OFFCURVE",
"322.333 -40.333 OFFCURVE",
"317 -41 CURVE",
"323 -7 LINE",
"375.667 -1.667 OFFCURVE",
"420.333 12 OFFCURVE",
"457 34 CURVE SMOOTH",
"466.333 39.333 OFFCURVE",
"473.667 47.167 OFFCURVE",
"479 57.5 CURVE SMOOTH",
"484.333 67.833 OFFCURVE",
"487 79.333 OFFCURVE",
"487 92 CURVE SMOOTH",
"487 112.667 OFFCURVE",
"482.167 129.5 OFFCURVE",
"472.5 142.5 CURVE SMOOTH",
"462.833 155.5 OFFCURVE",
"450.333 162 OFFCURVE",
"435 162 CURVE SMOOTH"
);
}
);
width = 500;
}
);
leftKerningGroup = c;
rightKerningGroup = c;
unicode = 00E7;
},
{
glyphname = ccedillaacute;
lastChange = "2017-12-28 15:37:02 +0000";
layers = (
{
layerId = "049F51DC-9351-481A-A5F1-2729E00BCCBB";
paths = (
{
closed = 1;
nodes = (
"446 635 LINE SMOOTH",
"470.667 651.667 OFFCURVE",
"483 671.667 OFFCURVE",
"483 695 CURVE SMOOTH",
"483 713.667 OFFCURVE",
"475.667 729.833 OFFCURVE",
"461 743.5 CURVE SMOOTH",
"446.333 757.167 OFFCURVE",
"429.333 764 OFFCURVE",
"410 764 CURVE SMOOTH",
"398 764 OFFCURVE",
"386.167 760.833 OFFCURVE",
"374.5 754.5 CURVE SMOOTH",
"362.833 748.167 OFFCURVE",
"352.333 738.667 OFFCURVE",
"343 726 CURVE SMOOTH",
"269 624 LINE",
"261.667 614.667 OFFCURVE",
"258 604.667 OFFCURVE",
"258 594 CURVE SMOOTH",
"258 582.667 OFFCURVE",
"262.333 572.667 OFFCURVE",
"271 564 CURVE SMOOTH",
"279.667 555.333 OFFCURVE",
"290.333 551 OFFCURVE",
"303 551 CURVE SMOOTH",
"313.667 551 OFFCURVE",
"323.667 554.333 OFFCURVE",
"333 561 CURVE"
);
},
{
closed = 1;
nodes = (
"425 162 OFFCURVE",
"415.833 160.5 OFFCURVE",
"407.5 157.5 CURVE SMOOTH",
"399.167 154.5 OFFCURVE",
"388.333 150 OFFCURVE",
"375 144 CURVE",
"363 138 OFFCURVE",
"352.167 133.5 OFFCURVE",
"342.5 130.5 CURVE SMOOTH",
"332.833 127.5 OFFCURVE",
"322.333 126 OFFCURVE",
"311 126 CURVE SMOOTH",
"279 126 OFFCURVE",
"254.5 136.5 OFFCURVE",
"237.5 157.5 CURVE SMOOTH",
"220.5 178.5 OFFCURVE",
"212 209 OFFCURVE",
"212 249 CURVE SMOOTH",
"212 329.667 OFFCURVE",
"245 370 OFFCURVE",
"311 370 CURVE SMOOTH",
"322.333 370 OFFCURVE",
"332.667 368.5 OFFCURVE",
"342 365.5 CURVE SMOOTH",
"351.333 362.5 OFFCURVE",
"362.667 358 OFFCURVE",
"376 352 CURVE",
"387.333 346 OFFCURVE",
"397.667 341.5 OFFCURVE",
"407 338.5 CURVE SMOOTH",
"416.333 335.5 OFFCURVE",
"426 334 OFFCURVE",
"436 334 CURVE SMOOTH",
"451.333 334 OFFCURVE",
"463.833 340.5 OFFCURVE",
"473.5 353.5 CURVE SMOOTH",
"483.167 366.5 OFFCURVE",
"488 383.333 OFFCURVE",
"488 404 CURVE SMOOTH",
"488 430 OFFCURVE",
"477.667 449.333 OFFCURVE",
"457 462 CURVE SMOOTH",
"435.667 475.333 OFFCURVE",
"411 485.667 OFFCURVE",
"383 493 CURVE SMOOTH",
"355 500.333 OFFCURVE",
"327 504 OFFCURVE",
"299 504 CURVE SMOOTH",
"246.333 504 OFFCURVE",
"199.5 493.333 OFFCURVE",
"158.5 472 CURVE SMOOTH",
"117.5 450.667 OFFCURVE",
"85.667 420.333 OFFCURVE",
"63 381 CURVE SMOOTH",
"40.333 341.667 OFFCURVE",
"29 296.333 OFFCURVE",
"29 245 CURVE SMOOTH",
"29 177 OFFCURVE",
"47 121.167 OFFCURVE",
"83 77.5 CURVE SMOOTH",
"119 33.833 OFFCURVE",
"169 6.667 OFFCURVE",
"233 -4 CURVE",
"224 -76 LINE",
"222.667 -82.667 OFFCURVE",
"224 -87.833 OFFCURVE",
"228 -91.5 CURVE SMOOTH",
"232 -95.167 OFFCURVE",
"237.333 -97 OFFCURVE",
"244 -97 CURVE SMOOTH",
"248.667 -97 OFFCURVE",
"255.333 -96.167 OFFCURVE",
"264 -94.5 CURVE SMOOTH",
"272.667 -92.833 OFFCURVE",
"279.667 -92 OFFCURVE",
"285 -92 CURVE SMOOTH",
"299.667 -92 OFFCURVE",
"307 -97.667 OFFCURVE",
"307 -109 CURVE SMOOTH",
"307 -123.667 OFFCURVE",
"293 -131 OFFCURVE",
"265 -131 CURVE SMOOTH",
"254.333 -131 OFFCURVE",
"235.667 -128.333 OFFCURVE",
"209 -123 CURVE",
"200.333 -120.333 OFFCURVE",
"192.833 -122.833 OFFCURVE",
"186.5 -130.5 CURVE SMOOTH",
"180.167 -138.167 OFFCURVE",
"177 -147 OFFCURVE",
"177 -157 CURVE SMOOTH",
"177 -173.667 OFFCURVE",
"184.333 -184.333 OFFCURVE",
"199 -189 CURVE SMOOTH",
"217 -195 OFFCURVE",
"241 -198 OFFCURVE",
"271 -198 CURVE SMOOTH",
"316.333 -198 OFFCURVE",
"351.167 -189.833 OFFCURVE",
"375.5 -173.5 CURVE SMOOTH",
"399.833 -157.167 OFFCURVE",
"412 -135.667 OFFCURVE",
"412 -109 CURVE SMOOTH",
"412 -88.333 OFFCURVE",
"404.833 -71.667 OFFCURVE",
"390.5 -59 CURVE SMOOTH",
"376.167 -46.333 OFFCURVE",
"358.667 -40 OFFCURVE",
"338 -40 CURVE SMOOTH",
"329.333 -40 OFFCURVE",
"322.333 -40.333 OFFCURVE",
"317 -41 CURVE",
"323 -7 LINE",
"375.667 -1.667 OFFCURVE",
"420.333 12 OFFCURVE",
"457 34 CURVE SMOOTH",
"466.333 39.333 OFFCURVE",
"473.667 47.167 OFFCURVE",
"479 57.5 CURVE SMOOTH",
"484.333 67.833 OFFCURVE",
"487 79.333 OFFCURVE",
"487 92 CURVE SMOOTH",
"487 112.667 OFFCURVE",
"482.167 129.5 OFFCURVE",
"472.5 142.5 CURVE SMOOTH",
"462.833 155.5 OFFCURVE",
"450.333 162 OFFCURVE",
"435 162 CURVE SMOOTH"
);
}
);
width = 500;
}
);
leftKerningGroup = c;
note = uni1E09;
rightKerningGroup = c;
unicode = 1E09;
},
{
glyphname = d;
lastChange = "2017-12-28 15:37:02 +0000";
layers = (
{
layerId = "049F51DC-9351-481A-A5F1-2729E00BCCBB";
paths = (
{
closed = 1;
nodes = (
"455.333 710 OFFCURVE",
"434.167 703 OFFCURVE",
"418.5 689 CURVE SMOOTH",
"402.833 675 OFFCURVE",
"395 656.333 OFFCURVE",
"395 633 CURVE SMOOTH",
"395 434 LINE",
"380.333 455.333 OFFCURVE",
"359.833 472.333 OFFCURVE",
"333.5 485 CURVE SMOOTH",
"307.167 497.667 OFFCURVE",
"278.333 504 OFFCURVE",
"247 504 CURVE SMOOTH",
"204.333 504 OFFCURVE",
"166.5 493.667 OFFCURVE",
"133.5 473 CURVE SMOOTH",
"100.5 452.333 OFFCURVE",
"74.833 422.833 OFFCURVE",
"56.5 384.5 CURVE SMOOTH",
"38.167 346.167 OFFCURVE",
"29 301.667 OFFCURVE",
"29 251 CURVE SMOOTH",
"29 200.333 OFFCURVE",
"38.333 155.333 OFFCURVE",
"57 116 CURVE SMOOTH",
"75.667 76.667 OFFCURVE",
"101.5 46.167 OFFCURVE",
"134.5 24.5 CURVE SMOOTH",
"167.5 2.833 OFFCURVE",
"205 -8 OFFCURVE",
"247 -8 CURVE SMOOTH",
"279.667 -8 OFFCURVE",
"309.5 -1.333 OFFCURVE",
"336.5 12 CURVE SMOOTH",
"363.5 25.333 OFFCURVE",
"384 43.667 OFFCURVE",
"398 67 CURVE",
"400 44.333 OFFCURVE",
"408.833 26.5 OFFCURVE",
"424.5 13.5 CURVE SMOOTH",
"440.167 0.5 OFFCURVE",
"460.333 -6 OFFCURVE",
"485 -6 CURVE SMOOTH",
"511.667 -6 OFFCURVE",
"533 1.333 OFFCURVE",
"549 16 CURVE SMOOTH",
"565 30.667 OFFCURVE",
"573 50.667 OFFCURVE",
"573 76 CURVE SMOOTH",
"573 630 LINE SMOOTH",
"573 653.333 OFFCURVE",
"564.5 672.5 OFFCURVE",
"547.5 687.5 CURVE SMOOTH",
"530.5 702.5 OFFCURVE",
"508.667 710 OFFCURVE",
"482 710 CURVE SMOOTH"
);
},
{
closed = 1;
nodes = (
"271 125 OFFCURVE",
"247.5 136 OFFCURVE",
"230.5 158 CURVE SMOOTH",
"213.5 180 OFFCURVE",
"205 211 OFFCURVE",
"205 251 CURVE SMOOTH",
"205 289.667 OFFCURVE",
"213.333 319.333 OFFCURVE",
"230 340 CURVE SMOOTH",
"246.667 360.667 OFFCURVE",
"270.333 371 OFFCURVE",
"301 371 CURVE SMOOTH",
"332.333 371 OFFCURVE",
"356.333 360.5 OFFCURVE",
"373 339.5 CURVE SMOOTH",
"389.667 318.5 OFFCURVE",
"398 288.333 OFFCURVE",
"398 249 CURVE SMOOTH",
"398 209 OFFCURVE",
"389.667 178.333 OFFCURVE",
"373 157 CURVE SMOOTH",
"356.333 135.667 OFFCURVE",
"332.333 125 OFFCURVE",
"301 125 CURVE SMOOTH"
);
}
);
width = 625;
}
);
leftKerningGroup = c;
unicode = 0064;
},
{
glyphname = eth;
lastChange = "2017-12-28 15:37:02 +0000";
layers = (
{
layerId = "049F51DC-9351-481A-A5F1-2729E00BCCBB";
paths = (
{
closed = 1;
nodes = (
"532 547 LINE SMOOTH",
"545.333 550.333 OFFCURVE",
"555.5 556.5 OFFCURVE",
"562.5 565.5 CURVE SMOOTH",
"569.5 574.5 OFFCURVE",
"573 584 OFFCURVE",
"573 594 CURVE SMOOTH",
"573 605.333 OFFCURVE",
"568.833 615.333 OFFCURVE",
"560.5 624 CURVE SMOOTH",
"552.167 632.667 OFFCURVE",
"541.333 637 OFFCURVE",
"528 637 CURVE SMOOTH",
"525.333 637 OFFCURVE",
"520 636.333 OFFCURVE",
"512 635 CURVE",
"412 611 LINE",
"360.667 655 OFFCURVE",
"307.333 686.667 OFFCURVE",
"252 706 CURVE SMOOTH",
"240 710.667 OFFCURVE",
"228 713 OFFCURVE",
"216 713 CURVE SMOOTH",
"195.333 713 OFFCURVE",
"178.167 706.5 OFFCURVE",
"164.5 693.5 CURVE SMOOTH",
"150.833 680.5 OFFCURVE",
"144 665.333 OFFCURVE",
"144 648 CURVE SMOOTH",
"144 636.667 OFFCURVE",
"147.5 625.667 OFFCURVE",
"154.5 615 CURVE SMOOTH",
"161.5 604.333 OFFCURVE",
"172 596 OFFCURVE",
"186 590 CURVE",
"201.333 582.667 OFFCURVE",
"216.333 575 OFFCURVE",
"231 567 CURVE",
"183 555 LINE SMOOTH",
"170.333 551.667 OFFCURVE",
"160.5 545.667 OFFCURVE",
"153.5 537 CURVE SMOOTH",
"146.5 528.333 OFFCURVE",
"143 519 OFFCURVE",
"143 509 CURVE SMOOTH",
"143 497.667 OFFCURVE",
"147.167 487.667 OFFCURVE",
"155.5 479 CURVE SMOOTH",
"163.833 470.333 OFFCURVE",
"174.667 466 OFFCURVE",
"188 466 CURVE SMOOTH",
"194.667 466 OFFCURVE",
"200 466.667 OFFCURVE",
"204 468 CURVE",
"329 498 LINE",
"355 473.333 OFFCURVE",
"374.333 450 OFFCURVE",
"387 428 CURVE",
"357 446 OFFCURVE",
"319.667 455 OFFCURVE",
"275 455 CURVE SMOOTH",
"227.667 455 OFFCURVE",
"185.333 445.167 OFFCURVE",
"148 425.5 CURVE SMOOTH",
"110.667 405.833 OFFCURVE",
"81.5 378.5 OFFCURVE",
"60.5 343.5 CURVE SMOOTH",
"39.5 308.5 OFFCURVE",
"29 269 OFFCURVE",
"29 225 CURVE SMOOTH",
"29 179 OFFCURVE",
"40.167 138.5 OFFCURVE",
"62.5 103.5 CURVE SMOOTH",
"84.833 68.5 OFFCURVE",
"116 41.167 OFFCURVE",
"156 21.5 CURVE SMOOTH",
"196 1.833 OFFCURVE",
"241.667 -8 OFFCURVE",
"293 -8 CURVE SMOOTH",
"383 -8 OFFCURVE",
"453.167 18.333 OFFCURVE",
"503.5 71 CURVE SMOOTH",
"553.833 123.667 OFFCURVE",
"579 197 OFFCURVE",
"579 291 CURVE SMOOTH",
"579 332.333 OFFCURVE",
"570.667 374 OFFCURVE",
"554 416 CURVE SMOOTH",
"537.333 458 OFFCURVE",
"514 497.667 OFFCURVE",
"484 535 CURVE"
);
},
{
closed = 1;
nodes = (
"236.667 125 OFFCURVE",
"205 158.333 OFFCURVE",
"205 225 CURVE SMOOTH",
"205 292.333 OFFCURVE",
"236.667 326 OFFCURVE",
"300 326 CURVE SMOOTH",
"363.333 326 OFFCURVE",
"395 292.333 OFFCURVE",
"395 225 CURVE SMOOTH",
"395 192.333 OFFCURVE",
"386.833 167.5 OFFCURVE",
"370.5 150.5 CURVE SMOOTH",
"354.167 133.5 OFFCURVE",
"330.667 125 OFFCURVE",
"300 125 CURVE SMOOTH"
);
}
);
width = 608;
}
);
leftKerningGroup = c;
rightKerningGroup = b;
unicode = 00F0;
},
{
glyphname = dcaron;
lastChange = "2017-12-28 15:37:02 +0000";
layers = (
{
layerId = "049F51DC-9351-481A-A5F1-2729E00BCCBB";
paths = (
{
closed = 1;
nodes = (
"596 525 LINE SMOOTH",
"596 513.667 OFFCURVE",
"598.833 504.833 OFFCURVE",
"604.5 498.5 CURVE SMOOTH",
"610.167 492.167 OFFCURVE",
"617 489 OFFCURVE",
"625 489 CURVE SMOOTH",
"631.667 489 OFFCURVE",
"637.833 491.667 OFFCURVE",
"643.5 497 CURVE SMOOTH",
"649.167 502.333 OFFCURVE",
"652.667 510 OFFCURVE",
"654 520 CURVE SMOOTH",
"677 663 LINE",
"678 672 LINE",
"678 684 OFFCURVE",
"674 693.5 OFFCURVE",
"666 700.5 CURVE SMOOTH",
"658 707.5 OFFCURVE",
"648.667 711 OFFCURVE",
"638 711 CURVE SMOOTH",
"626.667 711 OFFCURVE",
"616.833 707 OFFCURVE",
"608.5 699 CURVE SMOOTH",
"600.167 691 OFFCURVE",
"596 679.667 OFFCURVE",
"596 665 CURVE SMOOTH"
);
},
{
closed = 1;
nodes = (
"455.333 710 OFFCURVE",
"434.167 703 OFFCURVE",
"418.5 689 CURVE SMOOTH",
"402.833 675 OFFCURVE",
"395 656.333 OFFCURVE",
"395 633 CURVE SMOOTH",
"395 434 LINE",
"380.333 455.333 OFFCURVE",
"359.833 472.333 OFFCURVE",
"333.5 485 CURVE SMOOTH",
"307.167 497.667 OFFCURVE",
"278.333 504 OFFCURVE",
"247 504 CURVE SMOOTH",
"204.333 504 OFFCURVE",
"166.5 493.667 OFFCURVE",
"133.5 473 CURVE SMOOTH",
"100.5 452.333 OFFCURVE",
"74.833 422.833 OFFCURVE",
"56.5 384.5 CURVE SMOOTH",
"38.167 346.167 OFFCURVE",
"29 301.667 OFFCURVE",
"29 251 CURVE SMOOTH",
"29 200.333 OFFCURVE",
"38.333 155.333 OFFCURVE",
"57 116 CURVE SMOOTH",
"75.667 76.667 OFFCURVE",
"101.5 46.167 OFFCURVE",
"134.5 24.5 CURVE SMOOTH",
"167.5 2.833 OFFCURVE",
"205 -8 OFFCURVE",
"247 -8 CURVE SMOOTH",
"279.667 -8 OFFCURVE",
"309.5 -1.333 OFFCURVE",
"336.5 12 CURVE SMOOTH",
"363.5 25.333 OFFCURVE",
"384 43.667 OFFCURVE",
"398 67 CURVE",
"400 44.333 OFFCURVE",
"408.833 26.5 OFFCURVE",
"424.5 13.5 CURVE SMOOTH",
"440.167 0.5 OFFCURVE",
"460.333 -6 OFFCURVE",
"485 -6 CURVE SMOOTH",
"511.667 -6 OFFCURVE",
"533 1.333 OFFCURVE",
"549 16 CURVE SMOOTH",
"565 30.667 OFFCURVE",
"573 50.667 OFFCURVE",
"573 76 CURVE SMOOTH",
"573 630 LINE SMOOTH",
"573 653.333 OFFCURVE",
"564.5 672.5 OFFCURVE",
"547.5 687.5 CURVE SMOOTH",
"530.5 702.5 OFFCURVE",
"508.667 710 OFFCURVE",
"482 710 CURVE SMOOTH"
);
},
{
closed = 1;
nodes = (
"271 125 OFFCURVE",
"247.5 136 OFFCURVE",
"230.5 158 CURVE SMOOTH",
"213.5 180 OFFCURVE",
"205 211 OFFCURVE",
"205 251 CURVE SMOOTH",
"205 289.667 OFFCURVE",
"213.333 319.333 OFFCURVE",
"230 340 CURVE SMOOTH",
"246.667 360.667 OFFCURVE",
"270.333 371 OFFCURVE",
"301 371 CURVE SMOOTH",
"332.333 371 OFFCURVE",
"356.333 360.5 OFFCURVE",
"373 339.5 CURVE SMOOTH",
"389.667 318.5 OFFCURVE",
"398 288.333 OFFCURVE",
"398 249 CURVE SMOOTH",
"398 209 OFFCURVE",
"389.667 178.333 OFFCURVE",
"373 157 CURVE SMOOTH",
"356.333 135.667 OFFCURVE",
"332.333 125 OFFCURVE",
"301 125 CURVE SMOOTH"
);
}
);
width = 625;
}
);
leftKerningGroup = c;
rightKerningGroup = dcaron;
unicode = 010F;
},
{
glyphname = dcroat;
lastChange = "2017-12-28 15:37:02 +0000";
layers = (
{
layerId = "049F51DC-9351-481A-A5F1-2729E00BCCBB";
paths = (
{
closed = 1;
nodes = (
"571 646 LINE",
"567.667 665.333 OFFCURVE",
"558 680.833 OFFCURVE",
"542 692.5 CURVE SMOOTH",
"526 704.167 OFFCURVE",
"506 710 OFFCURVE",
"482 710 CURVE SMOOTH",
"458 710 OFFCURVE",
"438.5 704.167 OFFCURVE",
"423.5 692.5 CURVE SMOOTH",
"408.5 680.833 OFFCURVE",
"399.333 665.333 OFFCURVE",
"396 646 CURVE",
"269 646 LINE SMOOTH",
"245 646 OFFCURVE",
"226.667 640.5 OFFCURVE",
"214 629.5 CURVE SMOOTH",
"201.333 618.5 OFFCURVE",
"195 603.667 OFFCURVE",
"195 585 CURVE SMOOTH",
"195 566.333 OFFCURVE",
"201.333 551.5 OFFCURVE",
"214 540.5 CURVE SMOOTH",
"226.667 529.5 OFFCURVE",
"245 524 OFFCURVE",
"269 524 CURVE SMOOTH",
"395 524 LINE",
"395 434 LINE",
"380.333 455.333 OFFCURVE",
"359.833 472.333 OFFCURVE",
"333.5 485 CURVE SMOOTH",
"307.167 497.667 OFFCURVE",
"278.333 504 OFFCURVE",
"247 504 CURVE SMOOTH",
"204.333 504 OFFCURVE",
"166.5 493.667 OFFCURVE",
"133.5 473 CURVE SMOOTH",
"100.5 452.333 OFFCURVE",
"74.833 422.833 OFFCURVE",
"56.5 384.5 CURVE SMOOTH",
"38.167 346.167 OFFCURVE",
"29 301.667 OFFCURVE",
"29 251 CURVE SMOOTH",
"29 200.333 OFFCURVE",
"38.333 155.333 OFFCURVE",
"57 116 CURVE SMOOTH",
"75.667 76.667 OFFCURVE",
"101.5 46.167 OFFCURVE",
"134.5 24.5 CURVE SMOOTH",
"167.5 2.833 OFFCURVE",
"205 -8 OFFCURVE",
"247 -8 CURVE SMOOTH",
"279.667 -8 OFFCURVE",
"309.5 -1.333 OFFCURVE",
"336.5 12 CURVE SMOOTH",
"363.5 25.333 OFFCURVE",
"384 43.667 OFFCURVE",
"398 67 CURVE",
"400 44.333 OFFCURVE",
"408.833 26.5 OFFCURVE",
"424.5 13.5 CURVE SMOOTH",
"440.167 0.5 OFFCURVE",
"460.333 -6 OFFCURVE",
"485 -6 CURVE SMOOTH",
"511.667 -6 OFFCURVE",
"533 1.333 OFFCURVE",
"549 16 CURVE SMOOTH",
"565 30.667 OFFCURVE",
"573 50.667 OFFCURVE",
"573 76 CURVE SMOOTH",
"573 524 LINE",
"599 524 LINE SMOOTH",
"623 524 OFFCURVE",
"641.333 529.5 OFFCURVE",
"654 540.5 CURVE SMOOTH",
"666.667 551.5 OFFCURVE",
"673 566.333 OFFCURVE",
"673 585 CURVE SMOOTH",
"673 603.667 OFFCURVE",
"666.667 618.5 OFFCURVE",
"654 629.5 CURVE SMOOTH",
"641.333 640.5 OFFCURVE",
"623 646 OFFCURVE",
"599 646 CURVE SMOOTH"
);
},
{
closed = 1;
nodes = (
"271 125 OFFCURVE",
"247.5 136 OFFCURVE",
"230.5 158 CURVE SMOOTH",
"213.5 180 OFFCURVE",
"205 211 OFFCURVE",
"205 251 CURVE SMOOTH",
"205 289.667 OFFCURVE",
"213.333 319.333 OFFCURVE",
"230 340 CURVE SMOOTH",
"246.667 360.667 OFFCURVE",
"270.333 371 OFFCURVE",
"301 371 CURVE SMOOTH",
"332.333 371 OFFCURVE",
"356.333 360.5 OFFCURVE",
"373 339.5 CURVE SMOOTH",
"389.667 318.5 OFFCURVE",
"398 288.333 OFFCURVE",
"398 249 CURVE SMOOTH",
"398 209 OFFCURVE",
"389.667 178.333 OFFCURVE",
"373 157 CURVE SMOOTH",
"356.333 135.667 OFFCURVE",
"332.333 125 OFFCURVE",
"301 125 CURVE SMOOTH"
);
}
);
width = 625;
}
);
leftKerningGroup = c;
unicode = 0111;
},
{
glyphname = e;
lastChange = "2017-12-28 15:37:02 +0000";
layers = (
{
layerId = "049F51DC-9351-481A-A5F1-2729E00BCCBB";
paths = (
{
closed = 1;
nodes = (
"444 158 OFFCURVE",
"435.167 156.5 OFFCURVE",
"425.5 153.5 CURVE SMOOTH",
"415.833 150.5 OFFCURVE",
"406 147 OFFCURVE",
"396 143 CURVE SMOOTH",
"378.667 136.333 OFFCURVE",
"363 131.167 OFFCURVE",
"349 127.5 CURVE SMOOTH",
"335 123.833 OFFCURVE",
"319.667 122 OFFCURVE",
"303 122 CURVE SMOOTH",
"271.667 122 OFFCURVE",
"248 129 OFFCURVE",
"232 143 CURVE SMOOTH",
"216 157 OFFCURVE",
"205.667 180 OFFCURVE",
"201 212 CURVE",
"465 212 LINE SMOOTH",
"478.333 212 OFFCURVE",
"488.5 216.167 OFFCURVE",
"495.5 224.5 CURVE SMOOTH",
"502.5 232.833 OFFCURVE",
"506 244.667 OFFCURVE",
"506 260 CURVE SMOOTH",
"506 309.333 OFFCURVE",
"496.5 352.333 OFFCURVE",
"477.5 389 CURVE SMOOTH",
"458.5 425.667 OFFCURVE",
"431.667 454 OFFCURVE",
"397 474 CURVE SMOOTH",
"362.333 494 OFFCURVE",
"322 504 OFFCURVE",
"276 504 CURVE SMOOTH",
"228.667 504 OFFCURVE",
"186.167 493.167 OFFCURVE",
"148.5 471.5 CURVE SMOOTH",
"110.833 449.833 OFFCURVE",
"81.5 419.5 OFFCURVE",
"60.5 380.5 CURVE SMOOTH",
"39.5 341.5 OFFCURVE",
"29 297.333 OFFCURVE",
"29 248 CURVE SMOOTH",
"29 196 OFFCURVE",
"40 150.667 OFFCURVE",
"62 112 CURVE SMOOTH",
"84 73.333 OFFCURVE",
"115.333 43.667 OFFCURVE",
"156 23 CURVE SMOOTH",
"196.667 2.333 OFFCURVE",
"244.333 -8 OFFCURVE",
"299 -8 CURVE SMOOTH",
"325 -8 OFFCURVE",
"353.5 -4.167 OFFCURVE",
"384.5 3.5 CURVE SMOOTH",
"415.5 11.167 OFFCURVE",
"442.333 20.667 OFFCURVE",
"465 32 CURVE SMOOTH",
"491 46 OFFCURVE",
"504 66.333 OFFCURVE",
"504 93 CURVE SMOOTH",
"504 112.333 OFFCURVE",
"499.167 128 OFFCURVE",
"489.5 140 CURVE SMOOTH",
"479.833 152 OFFCURVE",
"467.333 158 OFFCURVE",
"452 158 CURVE SMOOTH"
);
},
{
closed = 1;
nodes = (
"327.667 384 OFFCURVE",
"353 354.667 OFFCURVE",
"357 296 CURVE",
"200 296 LINE",
"202.667 324.667 OFFCURVE",
"211 346.5 OFFCURVE",
"225 361.5 CURVE SMOOTH",
"239 376.5 OFFCURVE",
"257.667 384 OFFCURVE",
"281 384 CURVE SMOOTH"
);
}
);
width = 535;
}
);
leftKerningGroup = c;
rightKerningGroup = ae;
unicode = 0065;
},
{
glyphname = ecedillabreve;
lastChange = "2017-12-28 15:37:02 +0000";
layers = (
{
layerId = "049F51DC-9351-481A-A5F1-2729E00BCCBB";
paths = (
{
closed = 1;
nodes = (
"316.667 570 OFFCURVE",
"353.833 581 OFFCURVE",
"387.5 603 CURVE SMOOTH",
"421.167 625 OFFCURVE",
"444 652.667 OFFCURVE",
"456 686 CURVE",
"458 693.333 OFFCURVE",
"459 699.667 OFFCURVE",
"459 705 CURVE SMOOTH",
"459 718.333 OFFCURVE",
"454.333 729.333 OFFCURVE",
"445 738 CURVE SMOOTH",
"435.667 746.667 OFFCURVE",
"424.667 751 OFFCURVE",
"412 751 CURVE SMOOTH",
"395.333 751 OFFCURVE",
"381.667 743.333 OFFCURVE",
"371 728 CURVE SMOOTH",
"348.333 696.667 OFFCURVE",
"316.667 681 OFFCURVE",
"276 681 CURVE SMOOTH",
"235.333 681 OFFCURVE",
"203.667 696.667 OFFCURVE",
"181 728 CURVE SMOOTH",
"170.333 743.333 OFFCURVE",
"156.667 751 OFFCURVE",
"140 751 CURVE SMOOTH",
"127.333 751 OFFCURVE",
"116.333 746.667 OFFCURVE",
"107 738 CURVE SMOOTH",
"97.667 729.333 OFFCURVE",
"93 718.333 OFFCURVE",
"93 705 CURVE SMOOTH",
"93 699.667 OFFCURVE",
"94 693.333 OFFCURVE",
"96 686 CURVE",
"108 652.667 OFFCURVE",
"130.833 625 OFFCURVE",
"164.5 603 CURVE SMOOTH",
"198.167 581 OFFCURVE",
"235.333 570 OFFCURVE",
"276 570 CURVE SMOOTH"
);
},
{
closed = 1;
nodes = (
"444 158 OFFCURVE",
"435.167 156.5 OFFCURVE",
"425.5 153.5 CURVE SMOOTH",
"415.833 150.5 OFFCURVE",
"406 147 OFFCURVE",
"396 143 CURVE SMOOTH",
"378.667 136.333 OFFCURVE",
"363 131.167 OFFCURVE",
"349 127.5 CURVE SMOOTH",
"335 123.833 OFFCURVE",
"319.667 122 OFFCURVE",
"303 122 CURVE SMOOTH",
"271.667 122 OFFCURVE",
"248 129 OFFCURVE",
"232 143 CURVE SMOOTH",
"216 157 OFFCURVE",
"205.667 180 OFFCURVE",
"201 212 CURVE",
"465 212 LINE SMOOTH",
"478.333 212 OFFCURVE",
"488.5 216.167 OFFCURVE",
"495.5 224.5 CURVE SMOOTH",
"502.5 232.833 OFFCURVE",
"506 244.667 OFFCURVE",
"506 260 CURVE SMOOTH",
"506 309.333 OFFCURVE",
"496.5 352.333 OFFCURVE",
"477.5 389 CURVE SMOOTH",
"458.5 425.667 OFFCURVE",
"431.667 454 OFFCURVE",
"397 474 CURVE SMOOTH",
"362.333 494 OFFCURVE",
"322 504 OFFCURVE",
"276 504 CURVE SMOOTH",
"228.667 504 OFFCURVE",
"186.167 493.167 OFFCURVE",
"148.5 471.5 CURVE SMOOTH",
"110.833 449.833 OFFCURVE",
"81.5 419.5 OFFCURVE",
"60.5 380.5 CURVE SMOOTH",
"39.5 341.5 OFFCURVE",
"29 297.333 OFFCURVE",
"29 248 CURVE SMOOTH",
"29 179.333 OFFCURVE",
"48.167 122.667 OFFCURVE",
"86.5 78 CURVE SMOOTH",
"124.833 33.333 OFFCURVE",
"177 6 OFFCURVE",
"243 -4 CURVE",
"234 -76 LINE",
"232.667 -82.667 OFFCURVE",
"234 -87.833 OFFCURVE",
"238 -91.5 CURVE SMOOTH",
"242 -95.167 OFFCURVE",
"247.333 -97 OFFCURVE",
"254 -97 CURVE SMOOTH",
"258.667 -97 OFFCURVE",
"265.333 -96.167 OFFCURVE",
"274 -94.5 CURVE SMOOTH",
"282.667 -92.833 OFFCURVE",
"289.667 -92 OFFCURVE",
"295 -92 CURVE SMOOTH",
"309.667 -92 OFFCURVE",
"317 -97.667 OFFCURVE",
"317 -109 CURVE SMOOTH",
"317 -123.667 OFFCURVE",
"303 -131 OFFCURVE",
"275 -131 CURVE SMOOTH",
"264.333 -131 OFFCURVE",
"245.667 -128.333 OFFCURVE",
"219 -123 CURVE",
"210.333 -120.333 OFFCURVE",
"202.833 -122.833 OFFCURVE",
"196.5 -130.5 CURVE SMOOTH",
"190.167 -138.167 OFFCURVE",
"187 -147 OFFCURVE",
"187 -157 CURVE SMOOTH",
"187 -173.667 OFFCURVE",
"194.333 -184.333 OFFCURVE",
"209 -189 CURVE SMOOTH",
"227 -195 OFFCURVE",
"251 -198 OFFCURVE",
"281 -198 CURVE SMOOTH",
"326.333 -198 OFFCURVE",
"361.167 -189.833 OFFCURVE",
"385.5 -173.5 CURVE SMOOTH",
"409.833 -157.167 OFFCURVE",
"422 -135.667 OFFCURVE",
"422 -109 CURVE SMOOTH",
"422 -88.333 OFFCURVE",
"414.833 -71.667 OFFCURVE",
"400.5 -59 CURVE SMOOTH",
"386.167 -46.333 OFFCURVE",
"368.667 -40 OFFCURVE",
"348 -40 CURVE SMOOTH",
"339.333 -40 OFFCURVE",
"332.333 -40.333 OFFCURVE",
"327 -41 CURVE",
"333 -6 LINE",
"355.667 -3.333 OFFCURVE",
"378.833 1.333 OFFCURVE",
"402.5 8 CURVE SMOOTH",
"426.167 14.667 OFFCURVE",
"447 22.667 OFFCURVE",
"465 32 CURVE SMOOTH",
"491 46 OFFCURVE",
"504 66.333 OFFCURVE",
"504 93 CURVE SMOOTH",
"504 112.333 OFFCURVE",
"499.167 128 OFFCURVE",
"489.5 140 CURVE SMOOTH",
"479.833 152 OFFCURVE",
"467.333 158 OFFCURVE",
"452 158 CURVE SMOOTH"
);
},
{
closed = 1;
nodes = (
"327.667 384 OFFCURVE",
"353 354.667 OFFCURVE",
"357 296 CURVE",
"200 296 LINE",
"202.667 324.667 OFFCURVE",
"211 346.5 OFFCURVE",
"225 361.5 CURVE SMOOTH",
"239 376.5 OFFCURVE",
"257.667 384 OFFCURVE",
"281 384 CURVE SMOOTH"
);
}
);
width = 535;
}
);
leftKerningGroup = c;
note = uni1E1D;
rightKerningGroup = ae;
unicode = 1E1D;
},
{
glyphname = eogonek;
lastChange = "2017-12-28 15:37:02 +0000";
layers = (
{
layerId = "049F51DC-9351-481A-A5F1-2729E00BCCBB";
paths = (
{
closed = 1;
nodes = (
"456 -105.667 OFFCURVE",
"448 -107.5 OFFCURVE",
"442 -108.5 CURVE SMOOTH",
"436 -109.5 OFFCURVE",
"428 -110 OFFCURVE",
"418 -110 CURVE SMOOTH",
"403.333 -110 OFFCURVE",
"391.667 -105.5 OFFCURVE",
"383 -96.5 CURVE SMOOTH",
"374.333 -87.5 OFFCURVE",
"370 -75.333 OFFCURVE",
"370 -60 CURVE SMOOTH",
"370 -44 OFFCURVE",
"376.333 -29.5 OFFCURVE",
"389 -16.5 CURVE SMOOTH",
"401.667 -3.5 OFFCURVE",
"423.667 11 OFFCURVE",
"455 27 CURVE SMOOTH",
"487.667 44.333 OFFCURVE",
"504 66.333 OFFCURVE",
"504 93 CURVE SMOOTH",
"504 112.333 OFFCURVE",
"499.167 128 OFFCURVE",
"489.5 140 CURVE SMOOTH",
"479.833 152 OFFCURVE",
"467.333 158 OFFCURVE",
"452 158 CURVE SMOOTH",
"444 158 OFFCURVE",
"435.167 156.5 OFFCURVE",
"425.5 153.5 CURVE SMOOTH",
"415.833 150.5 OFFCURVE",
"406 147 OFFCURVE",
"396 143 CURVE SMOOTH",
"378.667 136.333 OFFCURVE",
"363 131.167 OFFCURVE",
"349 127.5 CURVE SMOOTH",
"335 123.833 OFFCURVE",
"319.667 122 OFFCURVE",
"303 122 CURVE SMOOTH",
"271.667 122 OFFCURVE",
"248 129 OFFCURVE",
"232 143 CURVE SMOOTH",
"216 157 OFFCURVE",
"205.667 180 OFFCURVE",
"201 212 CURVE",
"465 212 LINE SMOOTH",
"478.333 212 OFFCURVE",
"488.5 216.167 OFFCURVE",
"495.5 224.5 CURVE SMOOTH",
"502.5 232.833 OFFCURVE",
"506 244.667 OFFCURVE",
"506 260 CURVE SMOOTH",
"506 309.333 OFFCURVE",
"496.5 352.333 OFFCURVE",
"477.5 389 CURVE SMOOTH",
"458.5 425.667 OFFCURVE",
"431.667 454 OFFCURVE",
"397 474 CURVE SMOOTH",
"362.333 494 OFFCURVE",
"322 504 OFFCURVE",
"276 504 CURVE SMOOTH",
"228.667 504 OFFCURVE",
"186.167 493.167 OFFCURVE",
"148.5 471.5 CURVE SMOOTH",
"110.833 449.833 OFFCURVE",
"81.5 419.5 OFFCURVE",
"60.5 380.5 CURVE SMOOTH",
"39.5 341.5 OFFCURVE",
"29 297.333 OFFCURVE",
"29 248 CURVE SMOOTH",
"29 170 OFFCURVE",
"52.5 108.333 OFFCURVE",
"99.5 63 CURVE SMOOTH",
"146.5 17.667 OFFCURVE",
"211 -6 OFFCURVE",
"293 -8 CURVE",
"271 -29.333 OFFCURVE",
"260 -55.667 OFFCURVE",
"260 -87 CURVE SMOOTH",
"260 -119.667 OFFCURVE",
"272.333 -146.333 OFFCURVE",
"297 -167 CURVE SMOOTH",
"321.667 -187.667 OFFCURVE",
"353 -198 OFFCURVE",
"391 -198 CURVE SMOOTH",
"426.333 -198 OFFCURVE",
"457.667 -190 OFFCURVE",
"485 -174 CURVE SMOOTH",
"497.667 -166 OFFCURVE",
"504 -154.333 OFFCURVE",
"504 -139 CURVE SMOOTH",
"504 -129 OFFCURVE",
"501.167 -120.333 OFFCURVE",
"495.5 -113 CURVE SMOOTH",
"489.833 -105.667 OFFCURVE",
"482.667 -102 OFFCURVE",
"474 -102 CURVE SMOOTH",
"470.667 -102 OFFCURVE",
"468 -102.333 OFFCURVE",
"466 -103 CURVE"
);
},
{
closed = 1;
nodes = (
"327.667 384 OFFCURVE",
"353 354.667 OFFCURVE",
"357 296 CURVE",
"200 296 LINE",
"202.667 324.667 OFFCURVE",
"211 346.5 OFFCURVE",
"225 361.5 CURVE SMOOTH",
"239 376.5 OFFCURVE",
"257.667 384 OFFCURVE",
"281 384 CURVE SMOOTH"
);
}
);
width = 535;
}
);
leftKerningGroup = c;
rightKerningGroup = ae;
unicode = 0119;
},
{
glyphname = schwa;
lastChange = "2017-12-28 15:37:02 +0000";
layers = (
{
layerId = "049F51DC-9351-481A-A5F1-2729E00BCCBB";
paths = (
{
closed = 1;
nodes = (
"214.667 504 OFFCURVE",
"185.667 500.167 OFFCURVE",
"155 492.5 CURVE SMOOTH",
"124.333 484.833 OFFCURVE",
"97.333 475.333 OFFCURVE",
"74 464 CURVE SMOOTH",
"48 450.667 OFFCURVE",
"35 430.333 OFFCURVE",
"35 403 CURVE SMOOTH",
"35 383.667 OFFCURVE",
"39.833 368 OFFCURVE",
"49.5 356 CURVE SMOOTH",
"59.167 344 OFFCURVE",
"71.667 338 OFFCURVE",
"87 338 CURVE SMOOTH",
"95 338 OFFCURVE",
"103.833 339.5 OFFCURVE",
"113.5 342.5 CURVE SMOOTH",
"123.167 345.5 OFFCURVE",
"133 349 OFFCURVE",
"143 353 CURVE SMOOTH",
"160.333 359.667 OFFCURVE",
"175.833 364.833 OFFCURVE",
"189.5 368.5 CURVE SMOOTH",
"203.167 372.167 OFFCURVE",
"217.667 374 OFFCURVE",
"233 374 CURVE SMOOTH",
"264.333 374 OFFCURVE",
"288.167 367 OFFCURVE",
"304.5 353 CURVE SMOOTH",
"320.833 339 OFFCURVE",
"331.333 316 OFFCURVE",
"336 284 CURVE",
"70 284 LINE SMOOTH",
"42.667 284 OFFCURVE",
"29 268 OFFCURVE",
"29 236 CURVE SMOOTH",
"29 159.333 OFFCURVE",
"50.167 99.5 OFFCURVE",
"92.5 56.5 CURVE SMOOTH",
"134.833 13.5 OFFCURVE",
"193.333 -8 OFFCURVE",
"268 -8 CURVE SMOOTH",
"312.667 -8 OFFCURVE",
"353 3.167 OFFCURVE",
"389 25.5 CURVE SMOOTH",
"425 47.833 OFFCURVE",
"453.333 78.5 OFFCURVE",
"474 117.5 CURVE SMOOTH",
"494.667 156.5 OFFCURVE",
"505 200 OFFCURVE",
"505 248 CURVE SMOOTH",
"505 299.333 OFFCURVE",
"494.167 344.333 OFFCURVE",
"472.5 383 CURVE SMOOTH",
"450.833 421.667 OFFCURVE",
"420.167 451.5 OFFCURVE",
"380.5 472.5 CURVE SMOOTH",
"340.833 493.5 OFFCURVE",
"294.667 504 OFFCURVE",
"242 504 CURVE SMOOTH"
);
},
{
closed = 1;
nodes = (
"211.667 112 OFFCURVE",
"186 141.333 OFFCURVE",
"182 200 CURVE",
"338 200 LINE",
"335.333 171.333 OFFCURVE",
"327.167 149.5 OFFCURVE",
"313.5 134.5 CURVE SMOOTH",
"299.833 119.5 OFFCURVE",
"281.667 112 OFFCURVE",
"259 112 CURVE SMOOTH"
);
}
);
width = 535;
}
);
leftKerningGroup = c;
note = uni0259;
rightKerningGroup = b;
unicode = 0259;
},
{
glyphname = f;
lastChange = "2017-12-28 15:37:02 +0000";
layers = (
{
layerId = "049F51DC-9351-481A-A5F1-2729E00BCCBB";
paths = (
{
closed = 1;
nodes = (
"364 580 LINE SMOOTH",
"384.667 581.333 OFFCURVE",
"401 587.5 OFFCURVE",
"413 598.5 CURVE SMOOTH",
"425 609.5 OFFCURVE",
"431 625 OFFCURVE",
"431 645 CURVE SMOOTH",
"431 665 OFFCURVE",
"424.667 680.333 OFFCURVE",
"412 691 CURVE SMOOTH",
"399.333 701.667 OFFCURVE",
"378.667 707 OFFCURVE",
"350 707 CURVE SMOOTH",
"341.333 707 OFFCURVE",
"334.333 706.667 OFFCURVE",
"329 706 CURVE",
"303 704 LINE SMOOTH",
"239.667 699.333 OFFCURVE",
"189.5 678.833 OFFCURVE",
"152.5 642.5 CURVE SMOOTH",
"115.5 606.167 OFFCURVE",
"96.333 556 OFFCURVE",
"95 492 CURVE",
"66 492 LINE SMOOTH",
"12.667 492 OFFCURVE",
"-14 470.333 OFFCURVE",
"-14 427 CURVE SMOOTH",
"-14 383 OFFCURVE",
"12.667 361 OFFCURVE",
"66 361 CURVE SMOOTH",
"95 361 LINE",
"95 78 LINE SMOOTH",
"95 50.667 OFFCURVE",
"103.5 30 OFFCURVE",
"120.5 16 CURVE SMOOTH",
"137.5 2 OFFCURVE",
"158.667 -5 OFFCURVE",
"184 -5 CURVE SMOOTH",
"209.333 -5 OFFCURVE",
"230.5 2 OFFCURVE",
"247.5 16 CURVE SMOOTH",
"264.5 30 OFFCURVE",
"273 50.667 OFFCURVE",
"273 78 CURVE SMOOTH",
"273 361 LINE",
"328 361 LINE SMOOTH",
"381.333 361 OFFCURVE",
"408 383 OFFCURVE",
"408 427 CURVE SMOOTH",
"408 470.333 OFFCURVE",
"381.333 492 OFFCURVE",
"328 492 CURVE SMOOTH",
"273 492 LINE",
"273 504 LINE SMOOTH",
"273 525.333 OFFCURVE",
"277.833 542.5 OFFCURVE",
"287.5 555.5 CURVE SMOOTH",
"297.167 568.5 OFFCURVE",
"314 576 OFFCURVE",
"338 578 CURVE SMOOTH"
);
}
);
width = 394;
}
);
leftKerningGroup = f;
rightKerningGroup = f;
unicode = 0066;
},
{
glyphname = g;
lastChange = "2017-12-28 15:37:02 +0000";
layers = (
{
layerId = "049F51DC-9351-481A-A5F1-2729E00BCCBB";
paths = (
{
closed = 1;
nodes = (
"463.667 502 OFFCURVE",
"443.167 495.5 OFFCURVE",
"427.5 482.5 CURVE SMOOTH",
"411.833 469.5 OFFCURVE",
"403.333 451.667 OFFCURVE",
"402 429 CURVE",
"387.333 452.333 OFFCURVE",
"366.333 470.667 OFFCURVE",
"339 484 CURVE SMOOTH",
"311.667 497.333 OFFCURVE",
"281.667 504 OFFCURVE",
"249 504 CURVE SMOOTH",
"206.333 504 OFFCURVE",
"168.333 493.833 OFFCURVE",
"135 473.5 CURVE SMOOTH",
"101.667 453.167 OFFCURVE",
"75.667 424.333 OFFCURVE",
"57 387 CURVE SMOOTH",
"38.333 349.667 OFFCURVE",
"29 306.667 OFFCURVE",
"29 258 CURVE SMOOTH",
"29 209.333 OFFCURVE",
"38.333 166.5 OFFCURVE",
"57 129.5 CURVE SMOOTH",
"75.667 92.5 OFFCURVE",
"101.667 64 OFFCURVE",
"135 44 CURVE SMOOTH",
"168.333 24 OFFCURVE",
"206.333 14 OFFCURVE",
"249 14 CURVE SMOOTH",
"281 14 OFFCURVE",
"310.667 20.5 OFFCURVE",
"338 33.5 CURVE SMOOTH",
"365.333 46.5 OFFCURVE",
"386.333 64 OFFCURVE",
"401 86 CURVE",
"401 48 LINE SMOOTH",
"401 11.333 OFFCURVE",
"391.5 -15.5 OFFCURVE",
"372.5 -32.5 CURVE SMOOTH",
"353.5 -49.5 OFFCURVE",
"323.667 -58 OFFCURVE",
"283 -58 CURVE SMOOTH",
"266.333 -58 OFFCURVE",
"250 -56.167 OFFCURVE",
"234 -52.5 CURVE SMOOTH",
"218 -48.833 OFFCURVE",
"199.667 -43.667 OFFCURVE",
"179 -37 CURVE SMOOTH",
"147.667 -27 OFFCURVE",
"126 -22 OFFCURVE",
"114 -22 CURVE SMOOTH",
"98.667 -22 OFFCURVE",
"86.167 -28 OFFCURVE",
"76.5 -40 CURVE SMOOTH",
"66.833 -52 OFFCURVE",
"62 -67.667 OFFCURVE",
"62 -87 CURVE SMOOTH",
"62 -100.333 OFFCURVE",
"65.5 -112.333 OFFCURVE",
"72.5 -123 CURVE SMOOTH",
"79.5 -133.667 OFFCURVE",
"89 -142.333 OFFCURVE",
"101 -149 CURVE SMOOTH",
"123.667 -161.667 OFFCURVE",
"151.333 -171.333 OFFCURVE",
"184 -178 CURVE SMOOTH",
"216.667 -184.667 OFFCURVE",
"251.333 -188 OFFCURVE",
"288 -188 CURVE SMOOTH",
"382.667 -188 OFFCURVE",
"454.5 -167 OFFCURVE",
"503.5 -125 CURVE SMOOTH",
"552.5 -83 OFFCURVE",
"577 -21.333 OFFCURVE",
"577 60 CURVE SMOOTH",
"577 420 LINE SMOOTH",
"577 444.667 OFFCURVE",
"569 464.5 OFFCURVE",
"553 479.5 CURVE SMOOTH",
"537 494.5 OFFCURVE",
"515.667 502 OFFCURVE",
"489 502 CURVE SMOOTH"
);
},
{
closed = 1;
nodes = (
"273 147 OFFCURVE",
"249.167 156.833 OFFCURVE",
"231.5 176.5 CURVE SMOOTH",
"213.833 196.167 OFFCURVE",
"205 223.333 OFFCURVE",
"205 258 CURVE SMOOTH",
"205 294 OFFCURVE",
"213.667 321.833 OFFCURVE",
"231 341.5 CURVE SMOOTH",
"248.333 361.167 OFFCURVE",
"272.333 371 OFFCURVE",
"303 371 CURVE SMOOTH",
"334.333 371 OFFCURVE",
"358.667 361 OFFCURVE",
"376 341 CURVE SMOOTH",
"393.333 321 OFFCURVE",
"402 293.333 OFFCURVE",
"402 258 CURVE SMOOTH",
"402 222.667 OFFCURVE",
"393.333 195.333 OFFCURVE",
"376 176 CURVE SMOOTH",
"358.667 156.667 OFFCURVE",
"334.333 147 OFFCURVE",
"303 147 CURVE SMOOTH"
);
}
);
width = 629;
}
);
leftKerningGroup = c;
rightKerningGroup = g;
unicode = 0067;
},
{
glyphname = h;
lastChange = "2017-12-28 15:37:02 +0000";
layers = (
{
layerId = "049F51DC-9351-481A-A5F1-2729E00BCCBB";
paths = (
{
closed = 1;
nodes = (
"353.667 504 OFFCURVE",
"323.667 498 OFFCURVE",
"297 486 CURVE SMOOTH",
"270.333 474 OFFCURVE",
"248 456.333 OFFCURVE",
"230 433 CURVE",
"230 633 LINE SMOOTH",
"230 656.333 OFFCURVE",
"222 675 OFFCURVE",
"206 689 CURVE SMOOTH",
"190 703 OFFCURVE",
"169 710 OFFCURVE",
"143 710 CURVE SMOOTH",
"115.667 710 OFFCURVE",
"93.667 702.5 OFFCURVE",
"77 687.5 CURVE SMOOTH",
"60.333 672.5 OFFCURVE",
"52 653.333 OFFCURVE",
"52 630 CURVE SMOOTH",
"52 76 LINE SMOOTH",
"52 50.667 OFFCURVE",
"60 30.667 OFFCURVE",
"76 16 CURVE SMOOTH",
"92 1.333 OFFCURVE",
"113.667 -6 OFFCURVE",
"141 -6 CURVE SMOOTH",
"168.333 -6 OFFCURVE",
"190 1.333 OFFCURVE",
"206 16 CURVE SMOOTH",
"222 30.667 OFFCURVE",
"230 50.667 OFFCURVE",
"230 76 CURVE SMOOTH",
"230 274 LINE SMOOTH",
"230 302.667 OFFCURVE",
"237.833 325.5 OFFCURVE",
"253.5 342.5 CURVE SMOOTH",
"269.167 359.5 OFFCURVE",
"290.333 368 OFFCURVE",
"317 368 CURVE SMOOTH",
"358.333 368 OFFCURVE",
"379 344 OFFCURVE",
"379 296 CURVE SMOOTH",
"379 76 LINE SMOOTH",
"379 50.667 OFFCURVE",
"387 30.667 OFFCURVE",
"403 16 CURVE SMOOTH",
"419 1.333 OFFCURVE",
"440.667 -6 OFFCURVE",
"468 -6 CURVE SMOOTH",
"495.333 -6 OFFCURVE",
"517 1.333 OFFCURVE",
"533 16 CURVE SMOOTH",
"549 30.667 OFFCURVE",
"557 50.667 OFFCURVE",
"557 76 CURVE SMOOTH",
"557 292 LINE SMOOTH",
"557 363.333 OFFCURVE",
"543 416.5 OFFCURVE",
"515 451.5 CURVE SMOOTH",
"487 486.5 OFFCURVE",
"444.333 504 OFFCURVE",
"387 504 CURVE SMOOTH"
);
}
);
width = 605;
}
);
leftKerningGroup = b;
rightKerningGroup = a;
unicode = 0068;
},
{
glyphname = hbar;
lastChange = "2017-12-28 15:37:02 +0000";
layers = (
{
layerId = "049F51DC-9351-481A-A5F1-2729E00BCCBB";
paths = (
{
closed = 1;
nodes = (
"353.667 504 OFFCURVE",
"323.667 498 OFFCURVE",
"297 486 CURVE SMOOTH",
"270.333 474 OFFCURVE",
"248 456.333 OFFCURVE",
"230 433 CURVE",
"230 524 LINE",
"356 524 LINE SMOOTH",
"380 524 OFFCURVE",
"398.333 529.5 OFFCURVE",
"411 540.5 CURVE SMOOTH",
"423.667 551.5 OFFCURVE",
"430 566.333 OFFCURVE",
"430 585 CURVE SMOOTH",
"430 603.667 OFFCURVE",
"423.667 618.5 OFFCURVE",
"411 629.5 CURVE SMOOTH",
"398.333 640.5 OFFCURVE",
"380 646 OFFCURVE",
"356 646 CURVE SMOOTH",
"229 646 LINE",
"225.667 665.333 OFFCURVE",
"216.333 680.833 OFFCURVE",
"201 692.5 CURVE SMOOTH",
"185.667 704.167 OFFCURVE",
"166.333 710 OFFCURVE",
"143 710 CURVE SMOOTH",
"119 710 OFFCURVE",
"99 704.167 OFFCURVE",
"83 692.5 CURVE SMOOTH",
"67 680.833 OFFCURVE",
"57 665.333 OFFCURVE",
"53 646 CURVE",
"26 646 LINE SMOOTH",
"1.333 646 OFFCURVE",
"-17.167 640.667 OFFCURVE",
"-29.5 630 CURVE SMOOTH",
"-41.833 619.333 OFFCURVE",
"-48 604.333 OFFCURVE",
"-48 585 CURVE SMOOTH",
"-48 565.667 OFFCURVE",
"-41.833 550.667 OFFCURVE",
"-29.5 540 CURVE SMOOTH",
"-17.167 529.333 OFFCURVE",
"1.333 524 OFFCURVE",
"26 524 CURVE SMOOTH",
"52 524 LINE",
"52 76 LINE SMOOTH",
"52 50.667 OFFCURVE",
"60 30.667 OFFCURVE",
"76 16 CURVE SMOOTH",
"92 1.333 OFFCURVE",
"113.667 -6 OFFCURVE",
"141 -6 CURVE SMOOTH",
"168.333 -6 OFFCURVE",
"190 1.333 OFFCURVE",
"206 16 CURVE SMOOTH",
"222 30.667 OFFCURVE",
"230 50.667 OFFCURVE",
"230 76 CURVE SMOOTH",
"230 274 LINE SMOOTH",
"230 302.667 OFFCURVE",
"237.833 325.5 OFFCURVE",
"253.5 342.5 CURVE SMOOTH",
"269.167 359.5 OFFCURVE",
"290.333 368 OFFCURVE",
"317 368 CURVE SMOOTH",
"358.333 368 OFFCURVE",
"379 344 OFFCURVE",
"379 296 CURVE SMOOTH",
"379 76 LINE SMOOTH",
"379 50.667 OFFCURVE",
"387 30.667 OFFCURVE",
"403 16 CURVE SMOOTH",
"419 1.333 OFFCURVE",
"440.667 -6 OFFCURVE",
"468 -6 CURVE SMOOTH",
"495.333 -6 OFFCURVE",
"517 1.333 OFFCURVE",
"533 16 CURVE SMOOTH",
"549 30.667 OFFCURVE",
"557 50.667 OFFCURVE",
"557 76 CURVE SMOOTH",
"557 292 LINE SMOOTH",
"557 363.333 OFFCURVE",
"543 416.5 OFFCURVE",
"515 451.5 CURVE SMOOTH",
"487 486.5 OFFCURVE",
"444.333 504 OFFCURVE",
"387 504 CURVE SMOOTH"
);
}
);
width = 605;
}
);
leftKerningGroup = b;
rightKerningGroup = a;
unicode = 0127;
},
{
glyphname = idotless;
lastChange = "2017-12-28 15:37:02 +0000";
layers = (
{
layerId = "049F51DC-9351-481A-A5F1-2729E00BCCBB";
paths = (
{
closed = 1;
nodes = (
"166.333 -6 OFFCURVE",
"187.5 0.833 OFFCURVE",
"204.5 14.5 CURVE SMOOTH",
"221.5 28.167 OFFCURVE",
"230 48.667 OFFCURVE",
"230 76 CURVE SMOOTH",
"230 420 LINE SMOOTH",
"230 447.333 OFFCURVE",
"221.5 467.833 OFFCURVE",
"204.5 481.5 CURVE SMOOTH",
"187.5 495.167 OFFCURVE",
"166.333 502 OFFCURVE",
"141 502 CURVE SMOOTH",
"115.667 502 OFFCURVE",
"94.5 495.167 OFFCURVE",
"77.5 481.5 CURVE SMOOTH",
"60.5 467.833 OFFCURVE",
"52 447.333 OFFCURVE",
"52 420 CURVE SMOOTH",
"52 76 LINE SMOOTH",
"52 48.667 OFFCURVE",
"60.5 28.167 OFFCURVE",
"77.5 14.5 CURVE SMOOTH",
"94.5 0.833 OFFCURVE",
"115.667 -6 OFFCURVE",
"141 -6 CURVE SMOOTH"
);
}
);
width = 281;
}
);
leftKerningGroup = idotless;
note = dotlessi;
rightKerningGroup = g;
unicode = 0131;
},
{
glyphname = iogonek;
lastChange = "2017-12-28 15:37:02 +0000";
layers = (
{
layerId = "049F51DC-9351-481A-A5F1-2729E00BCCBB";
paths = (
{
closed = 1;
nodes = (
"171 572 OFFCURVE",
"194.833 579.833 OFFCURVE",
"212.5 595.5 CURVE SMOOTH",
"230.167 611.167 OFFCURVE",
"239 632 OFFCURVE",
"239 658 CURVE SMOOTH",
"239 684 OFFCURVE",
"230 704.667 OFFCURVE",
"212 720 CURVE SMOOTH",
"194 735.333 OFFCURVE",
"170.333 743 OFFCURVE",
"141 743 CURVE SMOOTH",
"110.333 743 OFFCURVE",
"86.333 735.333 OFFCURVE",
"69 720 CURVE SMOOTH",
"51.667 704.667 OFFCURVE",
"43 684 OFFCURVE",
"43 658 CURVE SMOOTH",
"43 632 OFFCURVE",
"51.833 611.167 OFFCURVE",
"69.5 595.5 CURVE SMOOTH",
"87.167 579.833 OFFCURVE",
"111 572 OFFCURVE",
"141 572 CURVE SMOOTH"
);
},
{
closed = 1;
nodes = (
"223.333 -106.333 OFFCURVE",
"214.5 -108.333 OFFCURVE",
"207.5 -109 CURVE SMOOTH",
"200.5 -109.667 OFFCURVE",
"193.333 -110 OFFCURVE",
"186 -110 CURVE SMOOTH",
"172 -110 OFFCURVE",
"160.333 -105.667 OFFCURVE",
"151 -97 CURVE SMOOTH",
"141.667 -88.333 OFFCURVE",
"137 -76 OFFCURVE",
"137 -60 CURVE SMOOTH",
"137 -48.667 OFFCURVE",
"140 -38.667 OFFCURVE",
"146 -30 CURVE SMOOTH",
"152 -21.333 OFFCURVE",
"160.333 -13.667 OFFCURVE",
"171 -7 CURVE SMOOTH",
"181.667 -0.333 OFFCURVE",
"188 3.667 OFFCURVE",
"190 5 CURVE",
"216.667 18.333 OFFCURVE",
"230 42 OFFCURVE",
"230 76 CURVE SMOOTH",
"230 420 LINE SMOOTH",
"230 447.333 OFFCURVE",
"221.5 467.833 OFFCURVE",
"204.5 481.5 CURVE SMOOTH",
"187.5 495.167 OFFCURVE",
"166.333 502 OFFCURVE",
"141 502 CURVE SMOOTH",
"115.667 502 OFFCURVE",
"94.5 495.167 OFFCURVE",
"77.5 481.5 CURVE SMOOTH",
"60.5 467.833 OFFCURVE",
"52 447.333 OFFCURVE",
"52 420 CURVE SMOOTH",
"52 76 LINE SMOOTH",
"52 51.333 OFFCURVE",
"60.333 30.667 OFFCURVE",
"77 14 CURVE",
"44.333 -12 OFFCURVE",
"28 -44.333 OFFCURVE",
"28 -83 CURVE SMOOTH",
"28 -118.333 OFFCURVE",
"40.5 -146.333 OFFCURVE",
"65.5 -167 CURVE SMOOTH",
"90.5 -187.667 OFFCURVE",
"121.667 -198 OFFCURVE",
"159 -198 CURVE SMOOTH",
"194.333 -198 OFFCURVE",
"225.333 -190 OFFCURVE",
"252 -174 CURVE",
"258 -170 OFFCURVE",
"262.667 -164.833 OFFCURVE",
"266 -158.5 CURVE SMOOTH",
"269.333 -152.167 OFFCURVE",
"271 -145.667 OFFCURVE",
"271 -139 CURVE SMOOTH",
"271 -129 OFFCURVE",
"268.333 -120.333 OFFCURVE",
"263 -113 CURVE SMOOTH",
"257.667 -105.667 OFFCURVE",
"250.667 -102 OFFCURVE",
"242 -102 CURVE SMOOTH",
"238.667 -102 OFFCURVE",
"236 -102.333 OFFCURVE",
"234 -103 CURVE SMOOTH"
);
}
);
width = 281;
}
);
leftKerningGroup = b;
unicode = 012F;
},
{
glyphname = jdotless;
lastChange = "2017-12-28 15:37:02 +0000";
layers = (
{
layerId = "049F51DC-9351-481A-A5F1-2729E00BCCBB";
paths = (
{
closed = 1;
nodes = (
"47 -180 LINE SMOOTH",
"108.333 -175.333 OFFCURVE",
"154.167 -157 OFFCURVE",
"184.5 -125 CURVE SMOOTH",
"214.833 -93 OFFCURVE",
"230 -49 OFFCURVE",
"230 7 CURVE SMOOTH",
"230 420 LINE SMOOTH",
"230 447.333 OFFCURVE",
"221.5 467.833 OFFCURVE",
"204.5 481.5 CURVE SMOOTH",
"187.5 495.167 OFFCURVE",
"166.333 502 OFFCURVE",
"141 502 CURVE SMOOTH",
"115.667 502 OFFCURVE",
"94.5 495.167 OFFCURVE",
"77.5 481.5 CURVE SMOOTH",
"60.5 467.833 OFFCURVE",
"52 447.333 OFFCURVE",
"52 420 CURVE SMOOTH",
"52 -7 LINE SMOOTH",
"52 -20.333 OFFCURVE",
"48.167 -31.333 OFFCURVE",
"40.5 -40 CURVE SMOOTH",
"32.833 -48.667 OFFCURVE",
"22.667 -53.333 OFFCURVE",
"10 -54 CURVE SMOOTH",
"-18 -56 LINE SMOOTH",
"-40.667 -57.333 OFFCURVE",
"-57.5 -62.833 OFFCURVE",
"-68.5 -72.5 CURVE SMOOTH",
"-79.5 -82.167 OFFCURVE",
"-85 -96.667 OFFCURVE",
"-85 -116 CURVE SMOOTH",
"-85 -140 OFFCURVE",
"-75.667 -157.5 OFFCURVE",
"-57 -168.5 CURVE SMOOTH",
"-38.333 -179.5 OFFCURVE",
"-13 -184 OFFCURVE",
"19 -182 CURVE SMOOTH"
);
}
);
width = 281;
}
);
leftKerningGroup = idotless;
note = uni0237;
unicode = 0237;
},
{
glyphname = k;
lastChange = "2017-12-28 15:37:02 +0000";
layers = (
{
layerId = "049F51DC-9351-481A-A5F1-2729E00BCCBB";
paths = (
{
closed = 1;
nodes = (
"419 257 LINE",
"528 365 LINE SMOOTH",
"545.333 382.333 OFFCURVE",
"554 401.333 OFFCURVE",
"554 422 CURVE SMOOTH",
"554 442.667 OFFCURVE",
"545.833 461.167 OFFCURVE",
"529.5 477.5 CURVE SMOOTH",
"513.167 493.833 OFFCURVE",
"494.333 502 OFFCURVE",
"473 502 CURVE SMOOTH",
"451 502 OFFCURVE",
"431.667 493.333 OFFCURVE",
"415 476 CURVE SMOOTH",
"230 288 LINE",
"230 627 LINE SMOOTH",
"230 654.333 OFFCURVE",
"221.5 675 OFFCURVE",
"204.5 689 CURVE SMOOTH",
"187.5 703 OFFCURVE",
"166.333 710 OFFCURVE",
"141 710 CURVE SMOOTH",
"115.667 710 OFFCURVE",
"94.5 703 OFFCURVE",
"77.5 689 CURVE SMOOTH",
"60.5 675 OFFCURVE",
"52 654.333 OFFCURVE",
"52 627 CURVE SMOOTH",
"52 78 LINE SMOOTH",
"52 50.667 OFFCURVE",
"60.5 30 OFFCURVE",
"77.5 16 CURVE SMOOTH",
"94.5 2 OFFCURVE",
"115.667 -5 OFFCURVE",
"141 -5 CURVE SMOOTH",
"166.333 -5 OFFCURVE",
"187.5 2 OFFCURVE",
"204.5 16 CURVE SMOOTH",
"221.5 30 OFFCURVE",
"230 50.667 OFFCURVE",
"230 78 CURVE SMOOTH",
"230 213 LINE",
"433 20 LINE SMOOTH",
"451.667 3.333 OFFCURVE",
"470.333 -5 OFFCURVE",
"489 -5 CURVE SMOOTH",
"511 -5 OFFCURVE",
"529.833 3.667 OFFCURVE",
"545.5 21 CURVE SMOOTH",
"561.167 38.333 OFFCURVE",
"569 58 OFFCURVE",
"569 80 CURVE SMOOTH",
"569 102 OFFCURVE",
"560.333 121.333 OFFCURVE",
"543 138 CURVE SMOOTH"
);
}
);
width = 580;
}
);
leftKerningGroup = b;
rightKerningGroup = k;
unicode = 006B;
},
{
glyphname = kgreenlandic;
lastChange = "2017-12-28 15:37:02 +0000";
layers = (
{
layerId = "049F51DC-9351-481A-A5F1-2729E00BCCBB";
paths = (
{
closed = 1;
nodes = (
"419 257 LINE",
"528 365 LINE SMOOTH",
"545.333 382.333 OFFCURVE",
"554 401.333 OFFCURVE",
"554 422 CURVE SMOOTH",
"554 442.667 OFFCURVE",
"545.833 461.167 OFFCURVE",
"529.5 477.5 CURVE SMOOTH",
"513.167 493.833 OFFCURVE",
"494.333 502 OFFCURVE",
"473 502 CURVE SMOOTH",
"451 502 OFFCURVE",
"431.667 493.333 OFFCURVE",
"415 476 CURVE SMOOTH",
"230 288 LINE",
"230 420 LINE SMOOTH",
"230 447.333 OFFCURVE",
"221.5 467.833 OFFCURVE",
"204.5 481.5 CURVE SMOOTH",
"187.5 495.167 OFFCURVE",
"166.333 502 OFFCURVE",
"141 502 CURVE SMOOTH",
"115.667 502 OFFCURVE",
"94.5 495.167 OFFCURVE",
"77.5 481.5 CURVE SMOOTH",
"60.5 467.833 OFFCURVE",
"52 447.333 OFFCURVE",
"52 420 CURVE SMOOTH",
"52 78 LINE SMOOTH",
"52 50.667 OFFCURVE",
"60.5 30 OFFCURVE",
"77.5 16 CURVE SMOOTH",
"94.5 2 OFFCURVE",
"115.667 -5 OFFCURVE",
"141 -5 CURVE SMOOTH",
"166.333 -5 OFFCURVE",
"187.5 2 OFFCURVE",
"204.5 16 CURVE SMOOTH",
"221.5 30 OFFCURVE",
"230 50.667 OFFCURVE",
"230 78 CURVE SMOOTH",
"230 213 LINE",
"433 20 LINE SMOOTH",
"451.667 3.333 OFFCURVE",
"470.333 -5 OFFCURVE",
"489 -5 CURVE SMOOTH",
"511 -5 OFFCURVE",
"529.833 3.667 OFFCURVE",
"545.5 21 CURVE SMOOTH",
"561.167 38.333 OFFCURVE",
"569 58 OFFCURVE",
"569 80 CURVE SMOOTH",
"569 102 OFFCURVE",
"560.333 121.333 OFFCURVE",
"543 138 CURVE SMOOTH"
);
}
);
width = 580;
}
);
leftKerningGroup = idotless;
rightKerningGroup = k;
unicode = 0138;
},
{
glyphname = l;
lastChange = "2017-12-28 15:37:02 +0000";
layers = (
{
layerId = "049F51DC-9351-481A-A5F1-2729E00BCCBB";
paths = (
{
closed = 1;
nodes = (
"166.333 -6 OFFCURVE",
"187.5 0.833 OFFCURVE",
"204.5 14.5 CURVE SMOOTH",
"221.5 28.167 OFFCURVE",
"230 48.667 OFFCURVE",
"230 76 CURVE SMOOTH",
"230 627 LINE SMOOTH",
"230 654.333 OFFCURVE",
"221.5 675 OFFCURVE",
"204.5 689 CURVE SMOOTH",
"187.5 703 OFFCURVE",
"166.333 710 OFFCURVE",
"141 710 CURVE SMOOTH",
"115.667 710 OFFCURVE",
"94.5 703 OFFCURVE",
"77.5 689 CURVE SMOOTH",
"60.5 675 OFFCURVE",
"52 654.333 OFFCURVE",
"52 627 CURVE SMOOTH",
"52 76 LINE SMOOTH",
"52 48.667 OFFCURVE",
"60.5 28.167 OFFCURVE",
"77.5 14.5 CURVE SMOOTH",
"94.5 0.833 OFFCURVE",
"115.667 -6 OFFCURVE",
"141 -6 CURVE SMOOTH"
);
}
);
width = 281;
}
);
leftKerningGroup = b;
unicode = 006C;
},
{
glyphname = lcaron;
lastChange = "2017-12-28 15:37:02 +0000";
layers = (
{
layerId = "049F51DC-9351-481A-A5F1-2729E00BCCBB";
paths = (
{
closed = 1;
nodes = (
"333 663 LINE",
"334 672 LINE",
"334 684 OFFCURVE",
"330 693.5 OFFCURVE",
"322 700.5 CURVE SMOOTH",
"314 707.5 OFFCURVE",
"304.667 711 OFFCURVE",
"294 711 CURVE SMOOTH",
"282.667 711 OFFCURVE",
"272.833 707 OFFCURVE",
"264.5 699 CURVE SMOOTH",
"256.167 691 OFFCURVE",
"252 679.667 OFFCURVE",
"252 665 CURVE SMOOTH",
"252 525 LINE SMOOTH",
"252 513.667 OFFCURVE",
"254.833 504.833 OFFCURVE",
"260.5 498.5 CURVE SMOOTH",
"266.167 492.167 OFFCURVE",
"273 489 OFFCURVE",
"281 489 CURVE SMOOTH",
"287.667 489 OFFCURVE",
"293.833 491.667 OFFCURVE",
"299.5 497 CURVE SMOOTH",
"305.167 502.333 OFFCURVE",
"308.667 510 OFFCURVE",
"310 520 CURVE SMOOTH"
);
},
{
closed = 1;
nodes = (
"166.333 -6 OFFCURVE",
"187.5 0.833 OFFCURVE",
"204.5 14.5 CURVE SMOOTH",
"221.5 28.167 OFFCURVE",
"230 48.667 OFFCURVE",
"230 76 CURVE SMOOTH",
"230 627 LINE SMOOTH",
"230 654.333 OFFCURVE",
"221.5 675 OFFCURVE",
"204.5 689 CURVE SMOOTH",
"187.5 703 OFFCURVE",
"166.333 710 OFFCURVE",
"141 710 CURVE SMOOTH",
"115.667 710 OFFCURVE",
"94.5 703 OFFCURVE",
"77.5 689 CURVE SMOOTH",
"60.5 675 OFFCURVE",
"52 654.333 OFFCURVE",
"52 627 CURVE SMOOTH",
"52 76 LINE SMOOTH",
"52 48.667 OFFCURVE",
"60.5 28.167 OFFCURVE",
"77.5 14.5 CURVE SMOOTH",
"94.5 0.833 OFFCURVE",
"115.667 -6 OFFCURVE",
"141 -6 CURVE SMOOTH"
);
}
);
width = 281;
}
);
leftKerningGroup = b;
rightKerningGroup = dcaron;
unicode = 013E;
},
{
glyphname = lslash;
lastChange = "2017-12-28 15:37:02 +0000";
layers = (
{
layerId = "049F51DC-9351-481A-A5F1-2729E00BCCBB";
paths = (
{
closed = 1;
nodes = (
"278 627 LINE SMOOTH",
"278 654.333 OFFCURVE",
"269.5 675 OFFCURVE",
"252.5 689 CURVE SMOOTH",
"235.5 703 OFFCURVE",
"214.333 710 OFFCURVE",
"189 710 CURVE SMOOTH",
"163.667 710 OFFCURVE",
"142.5 703 OFFCURVE",
"125.5 689 CURVE SMOOTH",
"108.5 675 OFFCURVE",
"100 654.333 OFFCURVE",
"100 627 CURVE SMOOTH",
"100 380 LINE",
"41 346 LINE SMOOTH",
"27 338 OFFCURVE",
"16.667 328.5 OFFCURVE",
"10 317.5 CURVE SMOOTH",
"3.333 306.5 OFFCURVE",
"0 295 OFFCURVE",
"0 283 CURVE SMOOTH",
"0 265 OFFCURVE",
"6.167 249.5 OFFCURVE",
"18.5 236.5 CURVE SMOOTH",
"30.833 223.5 OFFCURVE",
"46.333 217 OFFCURVE",
"65 217 CURVE SMOOTH",
"77.667 217 OFFCURVE",
"89.333 219.667 OFFCURVE",
"100 225 CURVE",
"100 76 LINE SMOOTH",
"100 48.667 OFFCURVE",
"108.5 28.167 OFFCURVE",
"125.5 14.5 CURVE SMOOTH",
"142.5 0.833 OFFCURVE",
"163.667 -6 OFFCURVE",
"189 -6 CURVE SMOOTH",
"214.333 -6 OFFCURVE",
"235.5 0.833 OFFCURVE",
"252.5 14.5 CURVE SMOOTH",
"269.5 28.167 OFFCURVE",
"278 48.667 OFFCURVE",
"278 76 CURVE SMOOTH",
"278 328 LINE",
"337 362 LINE SMOOTH",
"350.333 369.333 OFFCURVE",
"360.333 378.667 OFFCURVE",
"367 390 CURVE SMOOTH",
"373.667 401.333 OFFCURVE",
"377 413 OFFCURVE",
"377 425 CURVE SMOOTH",
"377 442.333 OFFCURVE",
"370.833 457.5 OFFCURVE",
"358.5 470.5 CURVE SMOOTH",
"346.167 483.5 OFFCURVE",
"331 490 OFFCURVE",
"313 490 CURVE SMOOTH",
"300.333 490 OFFCURVE",
"288.667 487.333 OFFCURVE",
"278 482 CURVE"
);
}
);
width = 378;
}
);
unicode = 0142;
},
{
glyphname = m;
lastChange = "2017-12-28 15:37:02 +0000";
layers = (
{
layerId = "049F51DC-9351-481A-A5F1-2729E00BCCBB";
paths = (
{
closed = 1;
nodes = (
"644.667 504 OFFCURVE",
"613 496.167 OFFCURVE",
"585 480.5 CURVE SMOOTH",
"557 464.833 OFFCURVE",
"534.667 443.667 OFFCURVE",
"518 417 CURVE",
"494 475 OFFCURVE",
"446.333 504 OFFCURVE",
"375 504 CURVE SMOOTH",
"307.667 504 OFFCURVE",
"257.667 479.333 OFFCURVE",
"225 430 CURVE",
"224.333 453.333 OFFCURVE",
"216.167 471.167 OFFCURVE",
"200.5 483.5 CURVE SMOOTH",
"184.833 495.833 OFFCURVE",
"165.333 502 OFFCURVE",
"142 502 CURVE SMOOTH",
"117.333 502 OFFCURVE",
"96.167 495.167 OFFCURVE",
"78.5 481.5 CURVE SMOOTH",
"60.833 467.833 OFFCURVE",
"52 448 OFFCURVE",
"52 422 CURVE SMOOTH",
"52 76 LINE SMOOTH",
"52 48.667 OFFCURVE",
"60.5 28.167 OFFCURVE",
"77.5 14.5 CURVE SMOOTH",
"94.5 0.833 OFFCURVE",
"115.667 -6 OFFCURVE",
"141 -6 CURVE SMOOTH",
"166.333 -6 OFFCURVE",
"187.5 0.833 OFFCURVE",
"204.5 14.5 CURVE SMOOTH",
"221.5 28.167 OFFCURVE",
"230 48.667 OFFCURVE",
"230 76 CURVE SMOOTH",
"230 274 LINE SMOOTH",
"230 303.333 OFFCURVE",
"236.833 326.333 OFFCURVE",
"250.5 343 CURVE SMOOTH",
"264.167 359.667 OFFCURVE",
"282.667 368 OFFCURVE",
"306 368 CURVE SMOOTH",
"324 368 OFFCURVE",
"337.667 362.667 OFFCURVE",
"347 352 CURVE SMOOTH",
"356.333 341.333 OFFCURVE",
"361 322.667 OFFCURVE",
"361 296 CURVE SMOOTH",
"361 76 LINE SMOOTH",
"361 48.667 OFFCURVE",
"369.5 28.167 OFFCURVE",
"386.5 14.5 CURVE SMOOTH",
"403.5 0.833 OFFCURVE",
"424.667 -6 OFFCURVE",
"450 -6 CURVE SMOOTH",
"476 -6 OFFCURVE",
"497.333 0.833 OFFCURVE",
"514 14.5 CURVE SMOOTH",
"530.667 28.167 OFFCURVE",
"539 48.667 OFFCURVE",
"539 76 CURVE SMOOTH",
"539 274 LINE SMOOTH",
"539 303.333 OFFCURVE",
"546 326.333 OFFCURVE",
"560 343 CURVE SMOOTH",
"574 359.667 OFFCURVE",
"592.667 368 OFFCURVE",
"616 368 CURVE SMOOTH",
"634 368 OFFCURVE",
"647.667 362.667 OFFCURVE",
"657 352 CURVE SMOOTH",
"666.333 341.333 OFFCURVE",
"671 322.667 OFFCURVE",
"671 296 CURVE SMOOTH",
"671 76 LINE SMOOTH",
"671 48.667 OFFCURVE",
"679.5 28.167 OFFCURVE",
"696.5 14.5 CURVE SMOOTH",
"713.5 0.833 OFFCURVE",
"734.667 -6 OFFCURVE",
"760 -6 CURVE SMOOTH",
"785.333 -6 OFFCURVE",
"806.5 0.833 OFFCURVE",
"823.5 14.5 CURVE SMOOTH",
"840.5 28.167 OFFCURVE",
"849 48.667 OFFCURVE",
"849 76 CURVE SMOOTH",
"849 292 LINE SMOOTH",
"849 368.667 OFFCURVE",
"834.333 423.167 OFFCURVE",
"805 455.5 CURVE SMOOTH",
"775.667 487.833 OFFCURVE",
"734 504 OFFCURVE",
"680 504 CURVE SMOOTH"
);
}
);
width = 897;
}
);
leftKerningGroup = idotless;
rightKerningGroup = a;
unicode = 006D;
},
{
glyphname = n;
lastChange = "2017-12-28 15:37:02 +0000";
layers = (
{
layerId = "049F51DC-9351-481A-A5F1-2729E00BCCBB";
paths = (
{
closed = 1;
nodes = (
"349.667 504 OFFCURVE",
"319.333 497.333 OFFCURVE",
"292 484 CURVE SMOOTH",
"264.667 470.667 OFFCURVE",
"242.333 451.333 OFFCURVE",
"225 426 CURVE",
"225 448.667 OFFCURVE",
"217.5 467 OFFCURVE",
"202.5 481 CURVE SMOOTH",
"187.5 495 OFFCURVE",
"167.333 502 OFFCURVE",
"142 502 CURVE SMOOTH",
"115.333 502 OFFCURVE",
"93.667 494.5 OFFCURVE",
"77 479.5 CURVE SMOOTH",
"60.333 464.5 OFFCURVE",
"52 445.333 OFFCURVE",
"52 422 CURVE SMOOTH",
"52 76 LINE SMOOTH",
"52 50.667 OFFCURVE",
"60 30.667 OFFCURVE",
"76 16 CURVE SMOOTH",
"92 1.333 OFFCURVE",
"113.667 -6 OFFCURVE",
"141 -6 CURVE SMOOTH",
"168.333 -6 OFFCURVE",
"190 1.333 OFFCURVE",
"206 16 CURVE SMOOTH",
"222 30.667 OFFCURVE",
"230 50.667 OFFCURVE",
"230 76 CURVE SMOOTH",
"230 274 LINE SMOOTH",
"230 302.667 OFFCURVE",
"237.833 325.5 OFFCURVE",
"253.5 342.5 CURVE SMOOTH",
"269.167 359.5 OFFCURVE",
"290.333 368 OFFCURVE",
"317 368 CURVE SMOOTH",
"337.667 368 OFFCURVE",
"353.167 361.333 OFFCURVE",
"363.5 348 CURVE SMOOTH",
"373.833 334.667 OFFCURVE",
"379 313.333 OFFCURVE",
"379 284 CURVE SMOOTH",
"379 76 LINE SMOOTH",
"379 50.667 OFFCURVE",
"387 30.667 OFFCURVE",
"403 16 CURVE SMOOTH",
"419 1.333 OFFCURVE",
"440.667 -6 OFFCURVE",
"468 -6 CURVE SMOOTH",
"495.333 -6 OFFCURVE",
"517 1.333 OFFCURVE",
"533 16 CURVE SMOOTH",
"549 30.667 OFFCURVE",
"557 50.667 OFFCURVE",
"557 76 CURVE SMOOTH",
"557 292 LINE SMOOTH",
"557 363.333 OFFCURVE",
"542.667 416.5 OFFCURVE",
"514 451.5 CURVE SMOOTH",
"485.333 486.5 OFFCURVE",
"441.667 504 OFFCURVE",
"383 504 CURVE SMOOTH"
);
}
);
width = 605;
}
);
leftKerningGroup = idotless;
rightKerningGroup = a;
unicode = 006E;
},
{
glyphname = eng;
lastChange = "2017-12-28 15:37:02 +0000";
layers = (
{
layerId = "049F51DC-9351-481A-A5F1-2729E00BCCBB";
paths = (
{
closed = 1;
nodes = (
"350.333 504 OFFCURVE",
"320.5 497.167 OFFCURVE",
"293.5 483.5 CURVE SMOOTH",
"266.5 469.833 OFFCURVE",
"243.667 450.333 OFFCURVE",
"225 425 CURVE",
"225 426 LINE SMOOTH",
"225 448.667 OFFCURVE",
"217.5 467 OFFCURVE",
"202.5 481 CURVE SMOOTH",
"187.5 495 OFFCURVE",
"167.333 502 OFFCURVE",
"142 502 CURVE SMOOTH",
"115.333 502 OFFCURVE",
"93.667 494.5 OFFCURVE",
"77 479.5 CURVE SMOOTH",
"60.333 464.5 OFFCURVE",
"52 445.333 OFFCURVE",
"52 422 CURVE SMOOTH",
"52 76 LINE SMOOTH",
"52 50.667 OFFCURVE",
"60 30.667 OFFCURVE",
"76 16 CURVE SMOOTH",
"92 1.333 OFFCURVE",
"113.667 -6 OFFCURVE",
"141 -6 CURVE SMOOTH",
"168.333 -6 OFFCURVE",
"190 1.333 OFFCURVE",
"206 16 CURVE SMOOTH",
"222 30.667 OFFCURVE",
"230 50.667 OFFCURVE",
"230 76 CURVE SMOOTH",
"230 274 LINE SMOOTH",
"230 302.667 OFFCURVE",
"237.833 325.5 OFFCURVE",
"253.5 342.5 CURVE SMOOTH",
"269.167 359.5 OFFCURVE",
"290.333 368 OFFCURVE",
"317 368 CURVE SMOOTH",
"358.333 368 OFFCURVE",
"379 344 OFFCURVE",
"379 296 CURVE SMOOTH",
"379 -7 LINE SMOOTH",
"379 -20.333 OFFCURVE",
"375.167 -31.167 OFFCURVE",
"367.5 -39.5 CURVE SMOOTH",
"359.833 -47.833 OFFCURVE",
"350 -52.667 OFFCURVE",
"338 -54 CURVE",
"310 -56 LINE SMOOTH",
"286.667 -57.333 OFFCURVE",
"269.5 -63 OFFCURVE",
"258.5 -73 CURVE SMOOTH",
"247.5 -83 OFFCURVE",
"242 -97.333 OFFCURVE",
"242 -116 CURVE SMOOTH",
"242 -139.333 OFFCURVE",
"251.167 -156.667 OFFCURVE",
"269.5 -168 CURVE SMOOTH",
"287.833 -179.333 OFFCURVE",
"313.667 -184 OFFCURVE",
"347 -182 CURVE SMOOTH",
"375 -180 LINE SMOOTH",
"435 -175.333 OFFCURVE",
"480.333 -157.167 OFFCURVE",
"511 -125.5 CURVE SMOOTH",
"541.667 -93.833 OFFCURVE",
"557 -49.667 OFFCURVE",
"557 7 CURVE SMOOTH",
"557 292 LINE SMOOTH",
"557 363.333 OFFCURVE",
"542.667 416.5 OFFCURVE",
"514 451.5 CURVE SMOOTH",
"485.333 486.5 OFFCURVE",
"441.667 504 OFFCURVE",
"383 504 CURVE SMOOTH"
);
}
);
width = 605;
}
);
leftKerningGroup = idotless;
rightKerningGroup = a;
unicode = 014B;
},
{
glyphname = o;
lastChange = "2018-02-11 07:19:50 +0000";
layers = (
{
layerId = "049F51DC-9351-481A-A5F1-2729E00BCCBB";
paths = (
{
closed = 1;
nodes = (
"354.667 -8 OFFCURVE",
"402.333 2.5 OFFCURVE",
"443 23.5 CURVE SMOOTH",
"483.667 44.5 OFFCURVE",
"515.167 74.333 OFFCURVE",
"537.5 113 CURVE SMOOTH",
"559.833 151.667 OFFCURVE",
"571 197 OFFCURVE",
"571 249 CURVE SMOOTH",
"571 301 OFFCURVE",
"559.833 346.167 OFFCURVE",
"537.5 384.5 CURVE SMOOTH",
"515.167 422.833 OFFCURVE",
"483.667 452.333 OFFCURVE",
"443 473 CURVE SMOOTH",
"402.333 493.667 OFFCURVE",
"354.667 504 OFFCURVE",
"300 504 CURVE SMOOTH",
"245.333 504 OFFCURVE",
"197.667 493.667 OFFCURVE",
"157 473 CURVE SMOOTH",
"116.333 452.333 OFFCURVE",
"84.833 422.833 OFFCURVE",
"62.5 384.5 CURVE SMOOTH",
"40.167 346.167 OFFCURVE",
"29 301 OFFCURVE",
"29 249 CURVE SMOOTH",
"29 197 OFFCURVE",
"40.167 151.667 OFFCURVE",
"62.5 113 CURVE SMOOTH",
"84.833 74.333 OFFCURVE",
"116.5 44.5 OFFCURVE",
"157.5 23.5 CURVE SMOOTH",
"198.5 2.5 OFFCURVE",
"246 -8 OFFCURVE",
"300 -8 CURVE SMOOTH"
);
},
{
closed = 1;
nodes = (
"236.667 125 OFFCURVE",
"205 166.333 OFFCURVE",
"205 249 CURVE SMOOTH",
"205 331.667 OFFCURVE",
"236.667 373 OFFCURVE",
"300 373 CURVE SMOOTH",
"363.333 373 OFFCURVE",
"395 331.667 OFFCURVE",
"395 249 CURVE SMOOTH",
"395 166.333 OFFCURVE",
"363.333 125 OFFCURVE",
"300 125 CURVE SMOOTH"
);
}
);
width = 600;
}
);
leftKerningGroup = c;
rightKerningGroup = b;
unicode = 006F;
},
{
glyphname = ohorn;
lastChange = "2017-12-28 15:37:02 +0000";
layers = (
{
layerId = "049F51DC-9351-481A-A5F1-2729E00BCCBB";
paths = (
{
closed = 1;
nodes = (
"604 585.333 OFFCURVE",
"598.333 603.833 OFFCURVE",
"587 615.5 CURVE SMOOTH",
"575.667 627.167 OFFCURVE",
"558 633 OFFCURVE",
"534 633 CURVE SMOOTH",
"508 633 OFFCURVE",
"487.667 627 OFFCURVE",
"473 615 CURVE SMOOTH",
"458.333 603 OFFCURVE",
"449.333 582.667 OFFCURVE",
"446 554 CURVE",
"440 514.667 OFFCURVE",
"419.333 495 OFFCURVE",
"384 495 CURVE SMOOTH",
"378.667 495 OFFCURVE",
"373.5 495.333 OFFCURVE",
"368.5 496 CURVE SMOOTH",
"363.5 496.667 OFFCURVE",
"359 497.333 OFFCURVE",
"355 498 CURVE",
"336.333 502 OFFCURVE",
"318 504 OFFCURVE",
"300 504 CURVE SMOOTH",
"245.333 504 OFFCURVE",
"197.667 493.667 OFFCURVE",
"157 473 CURVE SMOOTH",
"116.333 452.333 OFFCURVE",
"84.833 422.667 OFFCURVE",
"62.5 384 CURVE SMOOTH",
"40.167 345.333 OFFCURVE",
"29 299.667 OFFCURVE",
"29 247 CURVE SMOOTH",
"29 195.667 OFFCURVE",
"40.167 150.667 OFFCURVE",
"62.5 112 CURVE SMOOTH",
"84.833 73.333 OFFCURVE",
"116.5 43.667 OFFCURVE",
"157.5 23 CURVE SMOOTH",
"198.5 2.333 OFFCURVE",
"246 -8 OFFCURVE",
"300 -8 CURVE SMOOTH",
"354.667 -8 OFFCURVE",
"402.333 2.333 OFFCURVE",
"443 23 CURVE SMOOTH",
"483.667 43.667 OFFCURVE",
"515.167 73.333 OFFCURVE",
"537.5 112 CURVE SMOOTH",
"559.833 150.667 OFFCURVE",
"571 195.667 OFFCURVE",
"571 247 CURVE SMOOTH",
"571 282.333 OFFCURVE",
"565.667 315.333 OFFCURVE",
"555 346 CURVE SMOOTH",
"544.333 376.667 OFFCURVE",
"528.333 402.333 OFFCURVE",
"507 423 CURVE",
"535.667 434.333 OFFCURVE",
"559 453 OFFCURVE",
"577 479 CURVE SMOOTH",
"595 505 OFFCURVE",
"604 532 OFFCURVE",
"604 560 CURVE SMOOTH"
);
},
{
closed = 1;
nodes = (
"236.667 125 OFFCURVE",
"205 165.667 OFFCURVE",
"205 247 CURVE SMOOTH",
"205 331 OFFCURVE",
"236.667 373 OFFCURVE",
"300 373 CURVE SMOOTH",
"331.333 373 OFFCURVE",
"355 362.833 OFFCURVE",
"371 342.5 CURVE SMOOTH",
"387 322.167 OFFCURVE",
"395 290.333 OFFCURVE",
"395 247 CURVE SMOOTH",
"395 165.667 OFFCURVE",
"363.333 125 OFFCURVE",
"300 125 CURVE SMOOTH"
);
}
);
width = 600;
}
);
leftKerningGroup = c;
rightKerningGroup = b;
unicode = 01A1;
},
{
glyphname = oogonek;
lastChange = "2017-12-28 15:37:02 +0000";
layers = (
{
layerId = "049F51DC-9351-481A-A5F1-2729E00BCCBB";
paths = (
{
closed = 1;
nodes = (
"453.667 21.333 OFFCURVE",
"495.167 50.5 OFFCURVE",
"525.5 93.5 CURVE SMOOTH",
"555.833 136.5 OFFCURVE",
"571 188.333 OFFCURVE",
"571 249 CURVE SMOOTH",
"571 301 OFFCURVE",
"559.833 346.167 OFFCURVE",
"537.5 384.5 CURVE SMOOTH",
"515.167 422.833 OFFCURVE",
"483.667 452.333 OFFCURVE",
"443 473 CURVE SMOOTH",
"402.333 493.667 OFFCURVE",
"354.667 504 OFFCURVE",
"300 504 CURVE SMOOTH",
"245.333 504 OFFCURVE",
"197.667 493.667 OFFCURVE",
"157 473 CURVE SMOOTH",
"116.333 452.333 OFFCURVE",
"84.833 422.833 OFFCURVE",
"62.5 384.5 CURVE SMOOTH",
"40.167 346.167 OFFCURVE",
"29 301 OFFCURVE",
"29 249 CURVE SMOOTH",
"29 176.333 OFFCURVE",
"50.167 117.5 OFFCURVE",
"92.5 72.5 CURVE SMOOTH",
"134.833 27.5 OFFCURVE",
"193 1.333 OFFCURVE",
"267 -6 CURVE",
"244.333 -28.667 OFFCURVE",
"233 -55.667 OFFCURVE",
"233 -87 CURVE SMOOTH",
"233 -119 OFFCURVE",
"245.333 -145.5 OFFCURVE",
"270 -166.5 CURVE SMOOTH",
"294.667 -187.5 OFFCURVE",
"326 -198 OFFCURVE",
"364 -198 CURVE SMOOTH",
"399.333 -198 OFFCURVE",
"430.333 -190 OFFCURVE",
"457 -174 CURVE",
"470.333 -166.667 OFFCURVE",
"477 -154.667 OFFCURVE",
"477 -138 CURVE SMOOTH",
"477 -128.667 OFFCURVE",
"474.167 -120.333 OFFCURVE",
"468.5 -113 CURVE SMOOTH",
"462.833 -105.667 OFFCURVE",
"455.667 -102 OFFCURVE",
"447 -102 CURVE SMOOTH",
"443.667 -102 OFFCURVE",
"441 -102.333 OFFCURVE",
"439 -103 CURVE",
"417.667 -107.667 OFFCURVE",
"401.667 -110 OFFCURVE",
"391 -110 CURVE SMOOTH",
"376.333 -110 OFFCURVE",
"364.5 -105.333 OFFCURVE",
"355.5 -96 CURVE SMOOTH",
"346.5 -86.667 OFFCURVE",
"342 -74.667 OFFCURVE",
"342 -60 CURVE SMOOTH",
"342 -28.667 OFFCURVE",
"361.667 -6.667 OFFCURVE",
"401 6 CURVE SMOOTH"
);
},
{
closed = 1;
nodes = (
"236.667 125 OFFCURVE",
"205 166.333 OFFCURVE",
"205 249 CURVE SMOOTH",
"205 331.667 OFFCURVE",
"236.667 373 OFFCURVE",
"300 373 CURVE SMOOTH",
"363.333 373 OFFCURVE",
"395 331.667 OFFCURVE",
"395 249 CURVE SMOOTH",
"395 166.333 OFFCURVE",
"363.333 125 OFFCURVE",
"300 125 CURVE SMOOTH"
);
}
);
width = 600;
}
);
leftKerningGroup = c;
note = uni01EB;
rightKerningGroup = b;
unicode = 01EB;
},
{
glyphname = oslash;
lastChange = "2017-12-28 15:37:02 +0000";
layers = (
{
layerId = "049F51DC-9351-481A-A5F1-2729E00BCCBB";
paths = (
{
closed = 1;
nodes = (
"490 483 LINE SMOOTH",
"495.333 492.333 OFFCURVE",
"498 500.667 OFFCURVE",
"498 508 CURVE SMOOTH",
"498 520 OFFCURVE",
"493.333 530 OFFCURVE",
"484 538 CURVE SMOOTH",
"474.667 546 OFFCURVE",
"463.667 550 OFFCURVE",
"451 550 CURVE SMOOTH",
"432.333 550 OFFCURVE",
"417.667 541.333 OFFCURVE",
"407 524 CURVE SMOOTH",
"389 493 LINE",
"361 500.333 OFFCURVE",
"331.333 504 OFFCURVE",
"300 504 CURVE SMOOTH",
"245.333 504 OFFCURVE",
"197.667 493.667 OFFCURVE",
"157 473 CURVE SMOOTH",
"116.333 452.333 OFFCURVE",
"84.833 422.833 OFFCURVE",
"62.5 384.5 CURVE SMOOTH",
"40.167 346.167 OFFCURVE",
"29 301 OFFCURVE",
"29 249 CURVE SMOOTH",
"29 203.667 OFFCURVE",
"37.5 163.333 OFFCURVE",
"54.5 128 CURVE SMOOTH",
"71.5 92.667 OFFCURVE",
"95.667 64 OFFCURVE",
"127 42 CURVE",
"110 13 LINE SMOOTH",
"104.667 3.667 OFFCURVE",
"102 -4.667 OFFCURVE",
"102 -12 CURVE SMOOTH",
"102 -24 OFFCURVE",
"106.667 -34 OFFCURVE",
"116 -42 CURVE SMOOTH",
"125.333 -50 OFFCURVE",
"136.333 -54 OFFCURVE",
"149 -54 CURVE SMOOTH",
"167.667 -54 OFFCURVE",
"182.333 -45.333 OFFCURVE",
"193 -28 CURVE SMOOTH",
"211 3 LINE",
"239 -4.333 OFFCURVE",
"268.667 -8 OFFCURVE",
"300 -8 CURVE SMOOTH",
"354.667 -8 OFFCURVE",
"402.333 2.5 OFFCURVE",
"443 23.5 CURVE SMOOTH",
"483.667 44.5 OFFCURVE",
"515.167 74.333 OFFCURVE",
"537.5 113 CURVE SMOOTH",
"559.833 151.667 OFFCURVE",
"571 197 OFFCURVE",
"571 249 CURVE SMOOTH",
"571 294.333 OFFCURVE",
"562.667 334.5 OFFCURVE",
"546 369.5 CURVE SMOOTH",
"529.333 404.5 OFFCURVE",
"505.333 433 OFFCURVE",
"474 455 CURVE"
);
},
{
closed = 1;
nodes = (
"202 292.333 OFFCURVE",
"210 324 OFFCURVE",
"226 344 CURVE SMOOTH",
"242 364 OFFCURVE",
"266.667 374 OFFCURVE",
"300 374 CURVE SMOOTH",
"308.667 374 OFFCURVE",
"315 373.667 OFFCURVE",
"319 373 CURVE",
"210 185 LINE",
"204.667 204.333 OFFCURVE",
"202 225.667 OFFCURVE",
"202 249 CURVE SMOOTH"
);
},
{
closed = 1;
nodes = (
"291.333 123 OFFCURVE",
"285 123.333 OFFCURVE",
"281 124 CURVE",
"391 312 LINE",
"396.333 294 OFFCURVE",
"399 273 OFFCURVE",
"399 249 CURVE SMOOTH",
"399 205.667 OFFCURVE",
"390.833 173.833 OFFCURVE",
"374.5 153.5 CURVE SMOOTH",
"358.167 133.167 OFFCURVE",
"333.333 123 OFFCURVE",
"300 123 CURVE SMOOTH"
);
}
);
width = 600;
}
);
leftKerningGroup = c;
rightKerningGroup = b;
unicode = 00F8;
},
